<svg width="127" height="184" viewBox="0 0 127 184" fill="none" xmlns="http://www.w3.org/2000/svg">
<rect x="18.5557" y="57.1108" width="90.2886" height="13.9222" rx="6.96109" stroke="black"/>
<path d="M50.5332 103.133V81.1884H76.8665V103.133H50.5332Z" stroke="black"/>
<path d="M126.246 160.392H0.5C0.5 134.56 16.0789 112.366 38.354 102.694L46.1443 97.5193L63.2609 98.3053L83.0109 97.5193L88.3924 102.694C110.667 112.366 126.246 134.56 126.246 160.392Z" fill="white" stroke="black"/>
<path d="M52.7576 108.542L63.3726 98.744L73.9875 108.542L66.6387 119.974L76.4371 170.599L63.3726 183.255L50.308 170.599L60.1064 119.974L52.7576 108.542Z" fill="#9EDB3C"/>
<path d="M52.7576 108.542L63.3726 98.744L73.9875 108.542M52.7576 108.542L60.1064 119.974L50.308 170.599L63.3726 183.255L76.4371 170.599L66.6387 119.974L73.9875 108.542M52.7576 108.542L38.2441 102.694M73.9875 108.542L88.2773 102.694" stroke="black"/>
<mask id="mask0" mask-type="alpha" maskUnits="userSpaceOnUse" x="50" y="98" width="27" height="86">
<path d="M52.9828 108.542L63.5978 98.744L74.2127 108.542L66.8639 119.974L76.6623 170.599L63.5978 183.255L50.5332 170.599L60.3316 119.974L52.9828 108.542Z" fill="#C4C4C4"/>
</mask>
<g mask="url(#mask0)">
<path d="M168.597 290.977L461.756 -5.95697L461.131 -6.58923L167.972 290.344L168.597 290.977Z" fill="black"/>
<path d="M-72.6544 290.977L220.505 -5.95697L219.88 -6.58923L-73.2792 290.344L-72.6544 290.977Z" fill="black"/>
<path d="M-65.7615 290.977L227.398 -5.95697L226.773 -6.58923L-66.3864 290.344L-65.7615 290.977Z" fill="black"/>
<path d="M-58.8687 290.977L234.29 -5.95697L233.666 -6.58923L-59.4935 290.344L-58.8687 290.977Z" fill="black"/>
<path d="M-51.9757 290.977L241.183 -5.95697L240.558 -6.58923L-52.6006 290.344L-51.9757 290.977Z" fill="black"/>
<path d="M-45.0828 290.977L248.076 -5.95697L247.451 -6.58923L-45.7077 290.344L-45.0828 290.977Z" fill="black"/>
<path d="M-38.1899 290.977L254.969 -5.95697L254.344 -6.58923L-38.8148 290.344L-38.1899 290.977Z" fill="black"/>
<path d="M-31.2971 290.977L261.862 -5.95697L261.237 -6.58923L-31.9219 290.344L-31.2971 290.977Z" fill="black"/>
<path d="M-24.4042 290.977L268.755 -5.95697L268.13 -6.58923L-25.0291 290.344L-24.4042 290.977Z" fill="black"/>
<path d="M-17.5114 290.977L275.648 -5.95697L275.023 -6.58923L-18.1362 290.344L-17.5114 290.977Z" fill="black"/>
<path d="M-3.72552 290.977L289.434 -5.95697L288.809 -6.58923L-4.3504 290.344L-3.72552 290.977Z" fill="black"/>
<path d="M3.16736 290.977L296.326 -5.95697L295.702 -6.58923L2.54248 290.344L3.16736 290.977Z" fill="black"/>
<path d="M10.0602 290.977L303.219 -5.95697L302.594 -6.58923L9.43536 290.344L10.0602 290.977Z" fill="black"/>
<path d="M16.9531 290.977L310.112 -5.95697L309.487 -6.58923L16.3282 290.344L16.9531 290.977Z" fill="black"/>
<path d="M23.846 290.977L317.005 -5.95697L316.38 -6.58923L23.2211 290.344L23.846 290.977Z" fill="black"/>
<path d="M30.7389 290.977L323.898 -5.95697L323.273 -6.58923L30.1141 290.344L30.7389 290.977Z" fill="black"/>
<path d="M37.6318 290.977L330.791 -5.95697L330.166 -6.58923L37.007 290.344L37.6318 290.977Z" fill="black"/>
<path d="M44.5247 290.977L337.684 -5.95697L337.059 -6.58923L43.8998 290.344L44.5247 290.977Z" fill="black"/>
<path d="M51.4175 290.977L344.577 -5.95697L343.952 -6.58923L50.7927 290.344L51.4175 290.977Z" fill="black"/>
<path d="M58.3104 290.977L351.47 -5.95697L350.845 -6.58923L57.6855 290.344L58.3104 290.977Z" fill="black"/>
<path d="M72.0962 290.977L365.255 -5.95697L364.63 -6.58923L71.4713 290.344L72.0962 290.977Z" fill="black"/>
<path d="M78.9891 290.977L372.148 -5.95697L371.523 -6.58923L78.3642 290.344L78.9891 290.977Z" fill="black"/>
<path d="M85.882 290.977L379.041 -5.95697L378.416 -6.58923L85.2571 290.344L85.882 290.977Z" fill="black"/>
<path d="M92.7748 290.977L385.934 -5.95697L385.309 -6.58923L92.15 290.344L92.7748 290.977Z" fill="black"/>
<path d="M106.561 290.977L399.72 -5.95697L399.095 -6.58923L105.936 290.344L106.561 290.977Z" fill="black"/>
<path d="M113.454 290.977L406.613 -5.95697L405.988 -6.58923L112.829 290.344L113.454 290.977Z" fill="black"/>
<path d="M120.346 290.977L413.505 -5.95697L412.881 -6.58923L119.722 290.344L120.346 290.977Z" fill="black"/>
<path d="M127.239 290.977L420.398 -5.95697L419.773 -6.58923L126.614 290.344L127.239 290.977Z" fill="black"/>
<path d="M134.132 290.977L427.291 -5.95697L426.666 -6.58923L133.507 290.344L134.132 290.977Z" fill="black"/>
<path d="M141.025 290.977L434.184 -5.95697L433.559 -6.58923L140.4 290.344L141.025 290.977Z" fill="black"/>
<path d="M147.918 290.977L441.077 -5.95697L440.452 -6.58923L147.293 290.344L147.918 290.977Z" fill="black"/>
<path d="M189.275 290.977L482.434 -5.95697L481.809 -6.58923L188.65 290.344L189.275 290.977Z" fill="black"/>
<path d="M203.061 290.977L496.22 -5.95697L495.595 -6.58923L202.436 290.344L203.061 290.977Z" fill="black"/>
<path d="M216.847 290.977L510.006 -5.95697L509.381 -6.58923L216.222 290.344L216.847 290.977Z" fill="black"/>
<path d="M230.633 290.977L523.792 -5.95697L523.167 -6.58923L230.008 290.344L230.633 290.977Z" fill="black"/>
<path d="M251.311 290.977L544.47 -5.95697L543.845 -6.58923L250.686 290.344L251.311 290.977Z" fill="black"/>
<path d="M265.097 290.977L558.256 -5.95697L557.631 -6.58923L264.472 290.344L265.097 290.977Z" fill="black"/>
<path d="M278.883 290.977L572.042 -5.95697L571.417 -6.58923L278.258 290.344L278.883 290.977Z" fill="black"/>
<path d="M292.668 290.977L585.828 -5.95697L585.203 -6.58923L292.044 290.344L292.668 290.977Z" fill="black"/>
<path d="M306.454 290.977L599.613 -5.95697L598.988 -6.58923L305.829 290.344L306.454 290.977Z" fill="black"/>
<path d="M313.347 290.977L606.506 -5.95697L605.881 -6.58923L312.722 290.344L313.347 290.977Z" fill="black"/>
<path d="M327.133 290.977L620.292 -5.95697L619.667 -6.58923L326.508 290.344L327.133 290.977Z" fill="black"/>
<path d="M340.919 290.977L634.078 -5.95697L633.453 -6.58923L340.294 290.344L340.919 290.977Z" fill="black"/>
<path d="M354.704 290.977L647.864 -5.95697L647.239 -6.58923L354.08 290.344L354.704 290.977Z" fill="black"/>
<path d="M368.49 290.977L661.649 -5.95697L661.024 -6.58923L367.865 290.344L368.49 290.977Z" fill="black"/>
<path d="M416.74 290.977L709.899 -5.95697L709.275 -6.58923L416.115 290.344L416.74 290.977Z" fill="black"/>
<path d="M430.526 290.977L723.685 -5.95697L723.06 -6.58923L429.901 290.344L430.526 290.977Z" fill="black"/>
<path d="M444.312 290.977L737.471 -5.95697L736.846 -6.58923L443.687 290.344L444.312 290.977Z" fill="black"/>
<path d="M-79.5472 290.977L213.612 -5.95697L212.987 -6.58923L-80.1721 290.344L-79.5472 290.977Z" fill="black"/>
<path d="M-10.6183 290.977L282.541 -5.95697L281.916 -6.58923L-11.2433 290.344L-10.6183 290.977Z" fill="black"/>
<path d="M65.2032 290.977L358.362 -5.95697L357.738 -6.58923L64.5784 290.344L65.2032 290.977Z" fill="black"/>
<path d="M99.6677 290.977L392.827 -5.95697L392.202 -6.58923L99.0428 290.344L99.6677 290.977Z" fill="black"/>
<path d="M154.811 290.977L447.97 -5.95697L447.345 -6.58923L154.186 290.344L154.811 290.977Z" fill="black"/>
<path d="M161.704 290.977L454.863 -5.95697L454.238 -6.58923L161.079 290.344L161.704 290.977Z" fill="black"/>
<path d="M175.489 290.977L468.649 -5.95697L468.024 -6.58923L174.865 290.344L175.489 290.977Z" fill="black"/>
<path d="M182.382 290.977L475.541 -5.95697L474.917 -6.58923L181.757 290.344L182.382 290.977Z" fill="black"/>
<path d="M196.168 290.977L489.327 -5.95697L488.702 -6.58923L195.543 290.344L196.168 290.977Z" fill="black"/>
<path d="M209.954 290.977L503.113 -5.95697L502.488 -6.58923L209.329 290.344L209.954 290.977Z" fill="black"/>
<path d="M223.74 290.977L516.899 -5.95697L516.274 -6.58923L223.115 290.344L223.74 290.977Z" fill="black"/>
<path d="M237.525 290.977L530.684 -5.95697L530.06 -6.58923L236.901 290.344L237.525 290.977Z" fill="black"/>
<path d="M244.418 290.977L537.577 -5.95697L536.952 -6.58923L243.793 290.344L244.418 290.977Z" fill="black"/>
<path d="M258.204 290.977L551.363 -5.95697L550.738 -6.58923L257.579 290.344L258.204 290.977Z" fill="black"/>
<path d="M271.99 290.977L565.149 -5.95697L564.524 -6.58923L271.365 290.344L271.99 290.977Z" fill="black"/>
<path d="M285.776 290.977L578.935 -5.95697L578.31 -6.58923L285.151 290.344L285.776 290.977Z" fill="black"/>
<path d="M299.561 290.977L592.72 -5.95697L592.096 -6.58923L298.936 290.344L299.561 290.977Z" fill="black"/>
<path d="M320.24 290.977L613.399 -5.95697L612.774 -6.58923L319.615 290.344L320.24 290.977Z" fill="black"/>
<path d="M334.026 290.977L627.185 -5.95697L626.56 -6.58923L333.401 290.344L334.026 290.977Z" fill="black"/>
<path d="M347.812 290.977L640.971 -5.95697L640.346 -6.58923L347.187 290.344L347.812 290.977Z" fill="black"/>
<path d="M361.597 290.977L654.756 -5.95697L654.131 -6.58923L360.972 290.344L361.597 290.977Z" fill="black"/>
<path d="M375.383 290.977L668.542 -5.95697L667.917 -6.58923L374.758 290.344L375.383 290.977Z" fill="black"/>
<path d="M382.276 290.977L675.435 -5.95697L674.81 -6.58923L381.651 290.344L382.276 290.977Z" fill="black"/>
<path d="M389.169 290.977L682.328 -5.95697L681.703 -6.58923L388.544 290.344L389.169 290.977Z" fill="black"/>
<path d="M396.062 290.977L689.221 -5.95697L688.596 -6.58923L395.437 290.344L396.062 290.977Z" fill="black"/>
<path d="M402.955 290.977L696.114 -5.95697L695.489 -6.58923L402.33 290.344L402.955 290.977Z" fill="black"/>
<path d="M409.848 290.977L703.007 -5.95697L702.382 -6.58923L409.223 290.344L409.848 290.977Z" fill="black"/>
<path d="M423.633 290.977L716.792 -5.95697L716.167 -6.58923L423.008 290.344L423.633 290.977Z" fill="black"/>
<path d="M437.419 290.977L730.578 -5.95697L729.953 -6.58923L436.794 290.344L437.419 290.977Z" fill="black"/>
<path d="M451.205 290.977L744.364 -5.95697L743.739 -6.58923L450.58 290.344L451.205 290.977Z" fill="black"/>
<path d="M458.098 290.977L751.257 -5.95697L750.632 -6.58923L457.473 290.344L458.098 290.977Z" fill="black"/>
<path d="M464.991 290.977L758.15 -5.95697L757.525 -6.58923L464.366 290.344L464.991 290.977Z" fill="black"/>
<path d="M471.883 290.977L765.042 -5.95697L764.418 -6.58923L471.259 290.344L471.883 290.977Z" fill="black"/>
<path d="M-389.751 290.977L-96.5923 -5.95697L-97.2172 -6.58923L-390.376 290.344L-389.751 290.977Z" fill="black"/>
<path d="M-631.002 290.977L-337.843 -5.95697L-338.468 -6.58923L-631.627 290.344L-631.002 290.977Z" fill="black"/>
<path d="M-624.109 290.977L-330.95 -5.95697L-331.575 -6.58923L-624.734 290.344L-624.109 290.977Z" fill="black"/>
<path d="M-617.217 290.977L-324.058 -5.95697L-324.682 -6.58923L-617.842 290.344L-617.217 290.977Z" fill="black"/>
<path d="M-610.324 290.977L-317.165 -5.95697L-317.79 -6.58923L-610.949 290.344L-610.324 290.977Z" fill="black"/>
<path d="M-603.431 290.977L-310.272 -5.95697L-310.897 -6.58923L-604.056 290.344L-603.431 290.977Z" fill="black"/>
<path d="M-596.538 290.977L-303.379 -5.95697L-304.004 -6.58923L-597.163 290.344L-596.538 290.977Z" fill="black"/>
<path d="M-589.645 290.977L-296.486 -5.95697L-297.111 -6.58923L-590.27 290.344L-589.645 290.977Z" fill="black"/>
<path d="M-582.752 290.977L-289.593 -5.95697L-290.218 -6.58923L-583.377 290.344L-582.752 290.977Z" fill="black"/>
<path d="M-575.859 290.977L-282.7 -5.95697L-283.325 -6.58923L-576.484 290.344L-575.859 290.977Z" fill="black"/>
<path d="M-562.074 290.977L-268.914 -5.95697L-269.539 -6.58923L-562.698 290.344L-562.074 290.977Z" fill="black"/>
<path d="M-555.181 290.977L-262.022 -5.95697L-262.646 -6.58923L-555.806 290.344L-555.181 290.977Z" fill="black"/>
<path d="M-548.288 290.977L-255.129 -5.95697L-255.753 -6.58923L-548.913 290.344L-548.288 290.977Z" fill="black"/>
<path d="M-541.395 290.977L-248.236 -5.95697L-248.861 -6.58923L-542.02 290.344L-541.395 290.977Z" fill="black"/>
<path d="M-534.502 290.977L-241.343 -5.95697L-241.968 -6.58923L-535.127 290.344L-534.502 290.977Z" fill="black"/>
<path d="M-527.609 290.977L-234.45 -5.95697L-235.075 -6.58923L-528.234 290.344L-527.609 290.977Z" fill="black"/>
<path d="M-520.716 290.977L-227.557 -5.95697L-228.182 -6.58923L-521.341 290.344L-520.716 290.977Z" fill="black"/>
<path d="M-513.823 290.977L-220.664 -5.95697L-221.289 -6.58923L-514.448 290.344L-513.823 290.977Z" fill="black"/>
<path d="M-506.93 290.977L-213.771 -5.95697L-214.396 -6.58923L-507.555 290.344L-506.93 290.977Z" fill="black"/>
<path d="M-500.038 290.977L-206.878 -5.95697L-207.503 -6.58923L-500.662 290.344L-500.038 290.977Z" fill="black"/>
<path d="M-486.252 290.977L-193.093 -5.95697L-193.718 -6.58923L-486.877 290.344L-486.252 290.977Z" fill="black"/>
<path d="M-479.359 290.977L-186.2 -5.95697L-186.825 -6.58923L-479.984 290.344L-479.359 290.977Z" fill="black"/>
<path d="M-472.466 290.977L-179.307 -5.95697L-179.932 -6.58923L-473.091 290.344L-472.466 290.977Z" fill="black"/>
<path d="M-465.573 290.977L-172.414 -5.95697L-173.039 -6.58923L-466.198 290.344L-465.573 290.977Z" fill="black"/>
<path d="M-451.787 290.977L-158.628 -5.95697L-159.253 -6.58923L-452.412 290.344L-451.787 290.977Z" fill="black"/>
<path d="M-444.895 290.977L-151.735 -5.95697L-152.36 -6.58923L-445.519 290.344L-444.895 290.977Z" fill="black"/>
<path d="M-438.002 290.977L-144.843 -5.95697L-145.467 -6.58923L-438.626 290.344L-438.002 290.977Z" fill="black"/>
<path d="M-431.109 290.977L-137.95 -5.95697L-138.575 -6.58923L-431.734 290.344L-431.109 290.977Z" fill="black"/>
<path d="M-424.216 290.977L-131.057 -5.95697L-131.682 -6.58923L-424.841 290.344L-424.216 290.977Z" fill="black"/>
<path d="M-417.323 290.977L-124.164 -5.95697L-124.789 -6.58923L-417.948 290.344L-417.323 290.977Z" fill="black"/>
<path d="M-410.43 290.977L-117.271 -5.95697L-117.896 -6.58923L-411.055 290.344L-410.43 290.977Z" fill="black"/>
<path d="M-369.073 290.977L-75.9137 -5.95697L-76.5386 -6.58923L-369.698 290.344L-369.073 290.977Z" fill="black"/>
<path d="M-355.287 290.977L-62.1279 -5.95697L-62.7528 -6.58923L-355.912 290.344L-355.287 290.977Z" fill="black"/>
<path d="M-341.501 290.977L-48.3422 -5.95697L-48.967 -6.58923L-342.126 290.344L-341.501 290.977Z" fill="black"/>
<path d="M-327.716 290.977L-34.5564 -5.95697L-35.1813 -6.58923L-328.34 290.344L-327.716 290.977Z" fill="black"/>
<path d="M-307.037 290.977L-13.8778 -5.95697L-14.5026 -6.58923L-307.662 290.344L-307.037 290.977Z" fill="black"/>
<path d="M-293.251 290.977L-0.092041 -5.95697L-0.716858 -6.58923L-293.876 290.344L-293.251 290.977Z" fill="black"/>
<path d="M-279.465 290.977L13.6938 -5.95697L13.0689 -6.58923L-280.09 290.344L-279.465 290.977Z" fill="black"/>
<path d="M-265.68 290.977L27.4795 -5.95697L26.8547 -6.58923L-266.304 290.344L-265.68 290.977Z" fill="black"/>
<path d="M-251.894 290.977L41.2653 -5.95697L40.6404 -6.58923L-252.519 290.344L-251.894 290.977Z" fill="black"/>
<path d="M-245.001 290.977L48.1581 -5.95697L47.5333 -6.58923L-245.626 290.344L-245.001 290.977Z" fill="black"/>
<path d="M-231.215 290.977L61.9439 -5.95697L61.3191 -6.58923L-231.84 290.344L-231.215 290.977Z" fill="black"/>
<path d="M-217.429 290.977L75.7297 -5.95697L75.1049 -6.58923L-218.054 290.344L-217.429 290.977Z" fill="black"/>
<path d="M-203.644 290.977L89.5155 -5.95697L88.8906 -6.58923L-204.268 290.344L-203.644 290.977Z" fill="black"/>
<path d="M-189.858 290.977L103.301 -5.95697L102.676 -6.58923L-190.483 290.344L-189.858 290.977Z" fill="black"/>
<path d="M-141.608 290.977L151.551 -5.95697L150.927 -6.58923L-142.233 290.344L-141.608 290.977Z" fill="black"/>
<path d="M-127.822 290.977L165.337 -5.95697L164.712 -6.58923L-128.447 290.344L-127.822 290.977Z" fill="black"/>
<path d="M-114.036 290.977L179.123 -5.95697L178.498 -6.58923L-114.661 290.344L-114.036 290.977Z" fill="black"/>
<path d="M-637.895 290.977L-344.736 -5.95697L-345.361 -6.58923L-638.52 290.344L-637.895 290.977Z" fill="black"/>
<path d="M-568.966 290.977L-275.807 -5.95697L-276.432 -6.58923L-569.591 290.344L-568.966 290.977Z" fill="black"/>
<path d="M-493.145 290.977L-199.986 -5.95697L-200.61 -6.58923L-493.77 290.344L-493.145 290.977Z" fill="black"/>
<path d="M-458.68 290.977L-165.521 -5.95697L-166.146 -6.58923L-459.305 290.344L-458.68 290.977Z" fill="black"/>
<path d="M-403.537 290.977L-110.378 -5.95697L-111.003 -6.58923L-404.162 290.344L-403.537 290.977Z" fill="black"/>
<path d="M-396.644 290.977L-103.485 -5.95697L-104.11 -6.58923L-397.269 290.344L-396.644 290.977Z" fill="black"/>
<path d="M-382.859 290.977L-89.6995 -5.95697L-90.3244 -6.58923L-383.484 290.344L-382.859 290.977Z" fill="black"/>
<path d="M-375.966 290.977L-82.8066 -5.95697L-83.4315 -6.58923L-376.591 290.344L-375.966 290.977Z" fill="black"/>
<path d="M-362.18 290.977L-69.0209 -5.95697L-69.6457 -6.58923L-362.805 290.344L-362.18 290.977Z" fill="black"/>
<path d="M-348.394 290.977L-55.2351 -5.95697L-55.86 -6.58923L-349.019 290.344L-348.394 290.977Z" fill="black"/>
<path d="M-334.609 290.977L-41.4494 -5.95697L-42.0742 -6.58923L-335.233 290.344L-334.609 290.977Z" fill="black"/>
<path d="M-320.823 290.977L-27.6635 -5.95697L-28.2884 -6.58923L-321.447 290.344L-320.823 290.977Z" fill="black"/>
<path d="M-313.93 290.977L-20.7707 -5.95697L-21.3956 -6.58923L-314.555 290.344L-313.93 290.977Z" fill="black"/>
<path d="M-300.144 290.977L-6.98499 -5.95697L-7.6098 -6.58923L-300.769 290.344L-300.144 290.977Z" fill="black"/>
<path d="M-286.358 290.977L6.8009 -5.95697L6.17596 -6.58923L-286.983 290.344L-286.358 290.977Z" fill="black"/>
<path d="M-272.573 290.977L20.5866 -5.95697L19.9618 -6.58923L-273.197 290.344L-272.573 290.977Z" fill="black"/>
<path d="M-258.787 290.977L34.3724 -5.95697L33.7475 -6.58923L-259.412 290.344L-258.787 290.977Z" fill="black"/>
<path d="M-238.108 290.977L55.051 -5.95697L54.4262 -6.58923L-238.733 290.344L-238.108 290.977Z" fill="black"/>
<path d="M-224.322 290.977L68.8368 -5.95697L68.2119 -6.58923L-224.947 290.344L-224.322 290.977Z" fill="black"/>
<path d="M-210.536 290.977L82.6226 -5.95697L81.9977 -6.58923L-211.161 290.344L-210.536 290.977Z" fill="black"/>
<path d="M-196.751 290.977L96.4083 -5.95697L95.7835 -6.58923L-197.375 290.344L-196.751 290.977Z" fill="black"/>
<path d="M-182.965 290.977L110.194 -5.95697L109.569 -6.58923L-183.59 290.344L-182.965 290.977Z" fill="black"/>
<path d="M-176.072 290.977L117.087 -5.95697L116.462 -6.58923L-176.697 290.344L-176.072 290.977Z" fill="black"/>
<path d="M-169.179 290.977L123.98 -5.95697L123.355 -6.58923L-169.804 290.344L-169.179 290.977Z" fill="black"/>
<path d="M-162.286 290.977L130.873 -5.95697L130.248 -6.58923L-162.911 290.344L-162.286 290.977Z" fill="black"/>
<path d="M-155.393 290.977L137.766 -5.95697L137.141 -6.58923L-156.018 290.344L-155.393 290.977Z" fill="black"/>
<path d="M-148.5 290.977L144.659 -5.95697L144.034 -6.58923L-149.125 290.344L-148.5 290.977Z" fill="black"/>
<path d="M-134.715 290.977L158.444 -5.95697L157.819 -6.58923L-135.34 290.344L-134.715 290.977Z" fill="black"/>
<path d="M-120.929 290.977L172.23 -5.95697L171.605 -6.58923L-121.554 290.344L-120.929 290.977Z" fill="black"/>
<path d="M-107.143 290.977L186.016 -5.95697L185.391 -6.58923L-107.768 290.344L-107.143 290.977Z" fill="black"/>
<path d="M-100.25 290.977L192.909 -5.95697L192.284 -6.58923L-100.875 290.344L-100.25 290.977Z" fill="black"/>
<path d="M-93.3575 290.977L199.802 -5.95697L199.177 -6.58923L-93.9823 290.344L-93.3575 290.977Z" fill="black"/>
<path d="M-86.4646 290.977L206.694 -5.95697L206.07 -6.58923L-87.0895 290.344L-86.4646 290.977Z" fill="black"/>
</g>
<path d="M63.3934 92.8655C85.0395 92.8655 102.587 75.3179 102.587 53.6718V45.6384C102.587 23.9923 85.0395 6.4447 63.3934 6.4447C41.7473 6.4447 24.1997 23.9923 24.1997 45.6384V53.6718C24.1997 75.3179 41.7473 92.8655 63.3934 92.8655Z" fill="white" stroke="black"/>
<path d="M104.955 32.6348C104.955 15.3351 84.4855 1.31091 63.6998 1.31091C42.914 1.31091 22.4443 15.3351 22.4443 32.6348V39.0552C43.6901 36.0364 58.2671 29.0212 63.6998 17.0952C69.1325 29.0212 83.7095 36.0364 104.955 39.0552V32.6348Z" fill="#9EDB3C" stroke="black"/>
<path d="M72.4775 64.2225L93.2558 43.4442C94.1664 44.3078 94.9665 45.2868 95.6326 46.3577L75.391 66.5993C74.3201 65.9331 73.3411 65.1331 72.4775 64.2225Z" fill="#9EDB3C"/>
<path d="M78.3327 68.0024L97.0358 49.2994C97.1988 49.7703 97.3386 50.2521 97.4537 50.7434L79.7767 68.4204C79.2854 68.3053 78.8036 68.1655 78.3327 68.0024Z" fill="#9EDB3C"/>
<path d="M32.0996 64.2225L52.8779 43.4442C53.7885 44.3078 54.5885 45.2868 55.2547 46.3577L35.0131 66.5993C33.9422 65.9331 32.9632 65.1331 32.0996 64.2225Z" fill="#9EDB3C"/>
<path d="M37.9548 68.0024L56.6578 49.2994C56.8209 49.7703 56.9607 50.2521 57.0758 50.7434L39.3988 68.4204C38.9075 68.3053 38.4257 68.1655 37.9548 68.0024Z" fill="#9EDB3C"/>
<path d="M57.2694 53.6713C57.2694 61.7885 50.689 68.3689 42.5717 68.3689C34.4545 68.3689 27.8741 61.7885 27.8741 53.6713M57.2694 53.6713C57.2694 45.554 50.689 38.9736 42.5717 38.9736C34.4545 38.9736 27.8741 45.554 27.8741 53.6713M57.2694 53.6713H68.4355M27.8741 53.6713H24.1997M97.8308 53.6713C97.8308 61.7885 91.2504 68.3689 83.1331 68.3689C75.0158 68.3689 68.4355 61.7885 68.4355 53.6713M97.8308 53.6713C97.8308 45.554 91.2504 38.9736 83.1331 38.9736C75.0158 38.9736 68.4355 45.554 68.4355 53.6713M97.8308 53.6713H102.322" stroke="black"/>
<path d="M58.4336 70.2165L63.2614 50.4666L68.0891 70.2165H58.4336Z" stroke="black"/>
</svg>
