<svg width="380" height="232" viewBox="0 0 380 232" fill="none" xmlns="http://www.w3.org/2000/svg"><path fill-rule="evenodd" clip-rule="evenodd" d="M117.316 80.9682L37.3477 1V80.9682H117.316Z" fill="#9EDB3C"/><path fill-rule="evenodd" clip-rule="evenodd" d="M255 201L336 120V201H255Z" fill="#9EDB3C"/><path d="M57.2516 201.238H335.731V120.452H36.8508V222.303L56.8906 201.392L57.0382 201.238H57.2516Z" stroke="black"/><path d="M315.33 81.2856H36.8506V0.5H335.731V98.8628L315.659 81.4083L315.517 81.2856H315.33Z" stroke="black"/><path d="M0.5 193.151H26.7619V219.413H0.5V193.151Z" fill="#9EDB3C" stroke="black"/><path d="M7.77148 206.282C7.77148 209.519 10.3956 212.143 13.6326 212.143C16.8696 212.143 19.4937 209.519 19.4937 206.282C19.4937 203.045 16.8696 200.421 13.6326 200.421C10.3956 200.421 7.77148 203.045 7.77148 206.282Z" stroke="black"/><path d="M353.085 73.1985H379.347V99.4604H353.085V73.1985Z" fill="#9EDB3C" stroke="black"/><path d="M358.953 92.1905L366.216 80.8929L373.478 92.1905H358.953Z" stroke="black"/><path d="M71.3818 149.531H297.564V159.436H71.3818V149.531Z" stroke="black"/><path d="M65.9287 25.9443H168.524V35.8491H65.9287V25.9443Z" stroke="black"/><path d="M71.3818 165.889H233.953V175.793H71.3818V165.889Z" stroke="black"/><path d="M65.9287 42.3015H188.516V52.2063H65.9287V42.3015Z" stroke="black"/><mask id="mask0" mask-type="alpha" maskUnits="userSpaceOnUse" x="44" y="17" width="301" height="212"><path d="M44.6211 214.828L58.252 200.92H335.414V137.309H344.502V210.007H65.5219L44.6211 228.182V214.828Z" fill="#C4C4C4"/><path d="M44.6211 80.968V90.0553H323.601L344.502 108.23V17.3569H335.414V99.1425L314.514 80.968H44.6211Z" fill="#C4C4C4"/></mask><g mask="url(#mask0)"><path d="M250.965 244L529.177 -37.4008L528.584 -38L250.372 243.401L250.965 244Z" fill="black"/><path d="M22.0143 244L300.226 -37.4008L299.633 -38L21.4213 243.401L22.0143 244Z" fill="black"/><path d="M28.5557 244L306.768 -37.4008L306.175 -38L27.9627 243.401L28.5557 244Z" fill="black"/><path d="M35.0972 244L313.309 -37.4008L312.716 -38L34.5042 243.401L35.0972 244Z" fill="black"/><path d="M41.6386 244L319.851 -37.4008L319.258 -38L41.0456 243.401L41.6386 244Z" fill="black"/><path d="M48.1801 244L326.392 -37.4008L325.799 -38L47.587 243.401L48.1801 244Z" fill="black"/><path d="M54.7215 244L332.933 -37.4008L332.34 -38L54.1285 243.401L54.7215 244Z" fill="black"/><path d="M61.2629 244L339.475 -37.4008L338.882 -38L60.6699 243.401L61.2629 244Z" fill="black"/><path d="M67.8044 244L346.016 -37.4008L345.423 -38L67.2114 243.401L67.8044 244Z" fill="black"/><path d="M74.3458 244L352.558 -37.4008L351.965 -38L73.7528 243.401L74.3458 244Z" fill="black"/><path d="M87.4287 244L365.641 -37.4008L365.048 -38L86.8356 243.401L87.4287 244Z" fill="black"/><path d="M93.9702 244L372.182 -37.4008L371.589 -38L93.3771 243.401L93.9702 244Z" fill="black"/><path d="M100.512 244L378.724 -37.4008L378.131 -38L99.9185 243.401L100.512 244Z" fill="black"/><path d="M107.053 244L385.265 -37.4008L384.672 -38L106.46 243.401L107.053 244Z" fill="black"/><path d="M113.594 244L391.806 -37.4008L391.213 -38L113.001 243.401L113.594 244Z" fill="black"/><path d="M120.136 244L398.348 -37.4008L397.755 -38L119.543 243.401L120.136 244Z" fill="black"/><path d="M126.677 244L404.889 -37.4008L404.296 -38L126.084 243.401L126.677 244Z" fill="black"/><path d="M133.219 244L411.431 -37.4008L410.838 -38L132.626 243.401L133.219 244Z" fill="black"/><path d="M139.76 244L417.972 -37.4008L417.379 -38L139.167 243.401L139.76 244Z" fill="black"/><path d="M146.302 244L424.514 -37.4008L423.921 -38L145.709 243.401L146.302 244Z" fill="black"/><path d="M159.385 244L437.596 -37.4008L437.004 -38L158.792 243.401L159.385 244Z" fill="black"/><path d="M165.926 244L444.138 -37.4008L443.545 -38L165.333 243.401L165.926 244Z" fill="black"/><path d="M172.467 244L450.679 -37.4008L450.086 -38L171.874 243.401L172.467 244Z" fill="black"/><path d="M179.009 244L457.221 -37.4008L456.628 -38L178.416 243.401L179.009 244Z" fill="black"/><path d="M192.092 244L470.304 -37.4008L469.711 -38L191.499 243.401L192.092 244Z" fill="black"/><path d="M198.633 244L476.845 -37.4008L476.252 -38L198.04 243.401L198.633 244Z" fill="black"/><path d="M205.175 244L483.387 -37.4008L482.794 -38L204.582 243.401L205.175 244Z" fill="black"/><path d="M211.716 244L489.928 -37.4008L489.335 -38L211.123 243.401L211.716 244Z" fill="black"/><path d="M218.258 244L496.469 -37.4008L495.876 -38L217.664 243.401L218.258 244Z" fill="black"/><path d="M224.799 244L503.011 -37.4008L502.418 -38L224.206 243.401L224.799 244Z" fill="black"/><path d="M231.34 244L509.552 -37.4008L508.959 -38L230.747 243.401L231.34 244Z" fill="black"/><path d="M270.589 244L548.801 -37.4008L548.208 -38L269.996 243.401L270.589 244Z" fill="black"/><path d="M283.672 244L561.884 -37.4008L561.291 -38L283.079 243.401L283.672 244Z" fill="black"/><path d="M296.755 244L574.967 -37.4008L574.374 -38L296.162 243.401L296.755 244Z" fill="black"/><path d="M309.838 244L588.05 -37.4008L587.457 -38L309.245 243.401L309.838 244Z" fill="black"/><path d="M329.462 244L607.674 -37.4008L607.081 -38L328.869 243.401L329.462 244Z" fill="black"/><path d="M342.545 244L620.757 -37.4008L620.164 -38L341.952 243.401L342.545 244Z" fill="black"/><path d="M355.628 244L633.84 -37.4008L633.247 -38L355.035 243.401L355.628 244Z" fill="black"/><path d="M368.711 244L646.923 -37.4008L646.33 -38L368.118 243.401L368.711 244Z" fill="black"/><path d="M381.794 244L660.005 -37.4008L659.413 -38L381.201 243.401L381.794 244Z" fill="black"/><path d="M388.335 244L666.547 -37.4008L665.954 -38L387.742 243.401L388.335 244Z" fill="black"/><path d="M401.418 244L679.63 -37.4008L679.037 -38L400.825 243.401L401.418 244Z" fill="black"/><path d="M414.501 244L692.713 -37.4008L692.12 -38L413.908 243.401L414.501 244Z" fill="black"/><path d="M427.584 244L705.796 -37.4008L705.203 -38L426.991 243.401L427.584 244Z" fill="black"/><path d="M440.666 244L718.878 -37.4008L718.285 -38L440.073 243.401L440.666 244Z" fill="black"/><path d="M486.457 244L764.668 -37.4008L764.076 -38L485.863 243.401L486.457 244Z" fill="black"/><path d="M499.539 244L777.751 -37.4008L777.158 -38L498.946 243.401L499.539 244Z" fill="black"/><path d="M512.622 244L790.834 -37.4008L790.241 -38L512.029 243.401L512.622 244Z" fill="black"/><path d="M15.4728 244L293.685 -37.4008L293.092 -38L14.8798 243.401L15.4728 244Z" fill="black"/><path d="M80.8873 244L359.099 -37.4008L358.506 -38L80.2943 243.401L80.8873 244Z" fill="black"/><path d="M152.843 244L431.055 -37.4008L430.462 -38L152.25 243.401L152.843 244Z" fill="black"/><path d="M185.55 244L463.762 -37.4008L463.169 -38L184.957 243.401L185.55 244Z" fill="black"/><path d="M237.882 244L516.094 -37.4008L515.501 -38L237.289 243.401L237.882 244Z" fill="black"/><path d="M244.423 244L522.635 -37.4008L522.042 -38L243.83 243.401L244.423 244Z" fill="black"/><path d="M257.506 244L535.718 -37.4008L535.125 -38L256.913 243.401L257.506 244Z" fill="black"/><path d="M264.048 244L542.26 -37.4008L541.667 -38L263.455 243.401L264.048 244Z" fill="black"/><path d="M277.13 244L555.342 -37.4008L554.749 -38L276.537 243.401L277.13 244Z" fill="black"/><path d="M290.213 244L568.425 -37.4008L567.832 -38L289.62 243.401L290.213 244Z" fill="black"/><path d="M303.296 244L581.508 -37.4008L580.915 -38L302.703 243.401L303.296 244Z" fill="black"/><path d="M316.379 244L594.591 -37.4008L593.998 -38L315.786 243.401L316.379 244Z" fill="black"/><path d="M322.921 244L601.132 -37.4008L600.539 -38L322.328 243.401L322.921 244Z" fill="black"/><path d="M336.003 244L614.215 -37.4008L613.622 -38L335.41 243.401L336.003 244Z" fill="black"/><path d="M349.086 244L627.298 -37.4008L626.705 -38L348.493 243.401L349.086 244Z" fill="black"/><path d="M362.169 244L640.381 -37.4008L639.788 -38L361.576 243.401L362.169 244Z" fill="black"/><path d="M375.252 244L653.464 -37.4008L652.871 -38L374.659 243.401L375.252 244Z" fill="black"/><path d="M394.876 244L673.088 -37.4008L672.495 -38L394.283 243.401L394.876 244Z" fill="black"/><path d="M407.959 244L686.171 -37.4008L685.578 -38L407.366 243.401L407.959 244Z" fill="black"/><path d="M421.042 244L699.254 -37.4008L698.661 -38L420.449 243.401L421.042 244Z" fill="black"/><path d="M434.125 244L712.337 -37.4008L711.744 -38L433.532 243.401L434.125 244Z" fill="black"/><path d="M447.208 244L725.42 -37.4008L724.827 -38L446.615 243.401L447.208 244Z" fill="black"/><path d="M453.749 244L731.961 -37.4008L731.368 -38L453.156 243.401L453.749 244Z" fill="black"/><path d="M460.291 244L738.503 -37.4008L737.91 -38L459.698 243.401L460.291 244Z" fill="black"/><path d="M466.832 244L745.044 -37.4008L744.451 -38L466.239 243.401L466.832 244Z" fill="black"/><path d="M473.374 244L751.586 -37.4008L750.993 -38L472.781 243.401L473.374 244Z" fill="black"/><path d="M479.915 244L758.127 -37.4008L757.534 -38L479.322 243.401L479.915 244Z" fill="black"/><path d="M492.998 244L771.21 -37.4008L770.617 -38L492.405 243.401L492.998 244Z" fill="black"/><path d="M506.081 244L784.293 -37.4008L783.7 -38L505.488 243.401L506.081 244Z" fill="black"/><path d="M519.164 244L797.376 -37.4008L796.783 -38L518.571 243.401L519.164 244Z" fill="black"/><path d="M525.705 244L803.917 -37.4008L803.324 -38L525.112 243.401L525.705 244Z" fill="black"/><path d="M532.247 244L810.459 -37.4008L809.866 -38L531.654 243.401L532.247 244Z" fill="black"/><path d="M538.788 244L817 -37.4008L816.407 -38L538.195 243.401L538.788 244Z" fill="black"/><path d="M-278.915 244L-0.703186 -37.4008L-1.2962 -38L-279.508 243.401L-278.915 244Z" fill="black"/><path d="M-507.866 244L-229.654 -37.4008L-230.247 -38L-508.459 243.401L-507.866 244Z" fill="black"/><path d="M-501.324 244L-223.112 -37.4008L-223.705 -38L-501.917 243.401L-501.324 244Z" fill="black"/><path d="M-494.783 244L-216.571 -37.4008L-217.164 -38L-495.376 243.401L-494.783 244Z" fill="black"/><path d="M-488.241 244L-210.029 -37.4008L-210.622 -38L-488.834 243.401L-488.241 244Z" fill="black"/><path d="M-481.7 244L-203.488 -37.4008L-204.081 -38L-482.293 243.401L-481.7 244Z" fill="black"/><path d="M-475.158 244L-196.946 -37.4008L-197.539 -38L-475.751 243.401L-475.158 244Z" fill="black"/><path d="M-468.617 244L-190.405 -37.4008L-190.998 -38L-469.21 243.401L-468.617 244Z" fill="black"/><path d="M-462.076 244L-183.864 -37.4008L-184.457 -38L-462.669 243.401L-462.076 244Z" fill="black"/><path d="M-455.534 244L-177.322 -37.4008L-177.915 -38L-456.127 243.401L-455.534 244Z" fill="black"/><path d="M-442.451 244L-164.239 -37.4008L-164.832 -38L-443.044 243.401L-442.451 244Z" fill="black"/><path d="M-435.91 244L-157.698 -37.4008L-158.291 -38L-436.503 243.401L-435.91 244Z" fill="black"/><path d="M-429.368 244L-151.156 -37.4008L-151.749 -38L-429.961 243.401L-429.368 244Z" fill="black"/><path d="M-422.827 244L-144.615 -37.4008L-145.208 -38L-423.42 243.401L-422.827 244Z" fill="black"/><path d="M-416.286 244L-138.073 -37.4008L-138.666 -38L-416.878 243.401L-416.286 244Z" fill="black"/><path d="M-409.744 244L-131.532 -37.4008L-132.125 -38L-410.337 243.401L-409.744 244Z" fill="black"/><path d="M-403.203 244L-124.991 -37.4008L-125.584 -38L-403.796 243.401L-403.203 244Z" fill="black"/><path d="M-396.661 244L-118.449 -37.4008L-119.042 -38L-397.254 243.401L-396.661 244Z" fill="black"/><path d="M-390.12 244L-111.908 -37.4008L-112.501 -38L-390.713 243.401L-390.12 244Z" fill="black"/><path d="M-383.578 244L-105.366 -37.4008L-105.959 -38L-384.171 243.401L-383.578 244Z" fill="black"/><path d="M-370.495 244L-92.2834 -37.4008L-92.8763 -38L-371.088 243.401L-370.495 244Z" fill="black"/><path d="M-363.954 244L-85.7419 -37.4008L-86.3349 -38L-364.547 243.401L-363.954 244Z" fill="black"/><path d="M-357.412 244L-79.2005 -37.4008L-79.7935 -38L-358.005 243.401L-357.412 244Z" fill="black"/><path d="M-350.871 244L-72.6591 -37.4008L-73.252 -38L-351.464 243.401L-350.871 244Z" fill="black"/><path d="M-337.788 244L-59.5762 -37.4008L-60.1692 -38L-338.381 243.401L-337.788 244Z" fill="black"/><path d="M-331.247 244L-53.0347 -37.4008L-53.6277 -38L-331.84 243.401L-331.247 244Z" fill="black"/><path d="M-324.705 244L-46.4933 -37.4008L-47.0863 -38L-325.298 243.401L-324.705 244Z" fill="black"/><path d="M-318.164 244L-39.9518 -37.4008L-40.5449 -38L-318.757 243.401L-318.164 244Z" fill="black"/><path d="M-311.622 244L-33.4104 -37.4008L-34.0034 -38L-312.215 243.401L-311.622 244Z" fill="black"/><path d="M-305.081 244L-26.869 -37.4008L-27.462 -38L-305.674 243.401L-305.081 244Z" fill="black"/><path d="M-298.54 244L-20.3276 -37.4008L-20.9205 -38L-299.132 243.401L-298.54 244Z" fill="black"/><path d="M-259.291 244L18.9211 -37.4008L18.3281 -38L-259.884 243.401L-259.291 244Z" fill="black"/><path d="M-246.208 244L32.004 -37.4008L31.411 -38L-246.801 243.401L-246.208 244Z" fill="black"/><path d="M-233.125 244L45.0869 -37.4008L44.4939 -38L-233.718 243.401L-233.125 244Z" fill="black"/><path d="M-220.042 244L58.1697 -37.4008L57.5768 -38L-220.635 243.401L-220.042 244Z" fill="black"/><path d="M-200.418 244L77.7941 -37.4008L77.201 -38L-201.011 243.401L-200.418 244Z" fill="black"/><path d="M-187.335 244L90.877 -37.4008L90.2839 -38L-187.928 243.401L-187.335 244Z" fill="black"/><path d="M-174.252 244L103.96 -37.4008L103.367 -38L-174.845 243.401L-174.252 244Z" fill="black"/><path d="M-161.169 244L117.043 -37.4008L116.45 -38L-161.762 243.401L-161.169 244Z" fill="black"/><path d="M-148.086 244L130.126 -37.4008L129.533 -38L-148.679 243.401L-148.086 244Z" fill="black"/><path d="M-141.545 244L136.667 -37.4008L136.074 -38L-142.138 243.401L-141.545 244Z" fill="black"/><path d="M-128.462 244L149.75 -37.4008L149.157 -38L-129.055 243.401L-128.462 244Z" fill="black"/><path d="M-115.379 244L162.833 -37.4008L162.24 -38L-115.972 243.401L-115.379 244Z" fill="black"/><path d="M-102.296 244L175.916 -37.4008L175.323 -38L-102.889 243.401L-102.296 244Z" fill="black"/><path d="M-89.2134 244L188.999 -37.4008L188.406 -38L-89.8064 243.401L-89.2134 244Z" fill="black"/><path d="M-43.4233 244L234.789 -37.4008L234.196 -38L-44.0163 243.401L-43.4233 244Z" fill="black"/><path d="M-30.3405 244L247.872 -37.4008L247.279 -38L-30.9335 243.401L-30.3405 244Z" fill="black"/><path d="M-17.2576 244L260.954 -37.4008L260.361 -38L-17.8506 243.401L-17.2576 244Z" fill="black"/><path d="M-514.407 244L-236.195 -37.4008L-236.788 -38L-515 243.401L-514.407 244Z" fill="black"/><path d="M-448.993 244L-170.781 -37.4008L-171.374 -38L-449.586 243.401L-448.993 244Z" fill="black"/><path d="M-377.037 244L-98.8248 -37.4008L-99.4178 -38L-377.63 243.401L-377.037 244Z" fill="black"/><path d="M-344.33 244L-66.1177 -37.4008L-66.7107 -38L-344.923 243.401L-344.33 244Z" fill="black"/><path d="M-291.998 244L-13.7861 -37.4008L-14.3791 -38L-292.591 243.401L-291.998 244Z" fill="black"/><path d="M-285.457 244L-7.24469 -37.4008L-7.83765 -38L-286.05 243.401L-285.457 244Z" fill="black"/><path d="M-272.374 244L5.8382 -37.4008L5.24524 -38L-272.967 243.401L-272.374 244Z" fill="black"/><path d="M-265.832 244L12.3796 -37.4008L11.7866 -38L-266.425 243.401L-265.832 244Z" fill="black"/><path d="M-252.749 244L25.4625 -37.4008L24.8695 -38L-253.342 243.401L-252.749 244Z" fill="black"/><path d="M-239.667 244L38.5454 -37.4008L37.9524 -38L-240.26 243.401L-239.667 244Z" fill="black"/><path d="M-226.584 244L51.6283 -37.4008L51.0353 -38L-227.177 243.401L-226.584 244Z" fill="black"/><path d="M-213.501 244L64.7112 -37.4008L64.1182 -38L-214.094 243.401L-213.501 244Z" fill="black"/><path d="M-206.959 244L71.2526 -37.4008L70.6596 -38L-207.552 243.401L-206.959 244Z" fill="black"/><path d="M-193.876 244L84.3354 -37.4008L83.7425 -38L-194.469 243.401L-193.876 244Z" fill="black"/><path d="M-180.794 244L97.4184 -37.4008L96.8254 -38L-181.387 243.401L-180.794 244Z" fill="black"/><path d="M-167.711 244L110.501 -37.4008L109.908 -38L-168.304 243.401L-167.711 244Z" fill="black"/><path d="M-154.628 244L123.584 -37.4008L122.991 -38L-155.221 243.401L-154.628 244Z" fill="black"/><path d="M-135.003 244L143.208 -37.4008L142.615 -38L-135.596 243.401L-135.003 244Z" fill="black"/><path d="M-121.921 244L156.291 -37.4008L155.698 -38L-122.514 243.401L-121.921 244Z" fill="black"/><path d="M-108.838 244L169.374 -37.4008L168.781 -38L-109.431 243.401L-108.838 244Z" fill="black"/><path d="M-95.7548 244L182.457 -37.4008L181.864 -38L-96.3478 243.401L-95.7548 244Z" fill="black"/><path d="M-82.6719 244L195.54 -37.4008L194.947 -38L-83.265 243.401L-82.6719 244Z" fill="black"/><path d="M-76.1306 244L202.081 -37.4008L201.488 -38L-76.7236 243.401L-76.1306 244Z" fill="black"/><path d="M-69.5891 244L208.623 -37.4008L208.03 -38L-70.1821 243.401L-69.5891 244Z" fill="black"/><path d="M-63.0477 244L215.164 -37.4008L214.571 -38L-63.6407 243.401L-63.0477 244Z" fill="black"/><path d="M-56.5062 244L221.706 -37.4008L221.113 -38L-57.0992 243.401L-56.5062 244Z" fill="black"/><path d="M-49.9648 244L228.247 -37.4008L227.654 -38L-50.5577 243.401L-49.9648 244Z" fill="black"/><path d="M-36.8819 244L241.33 -37.4008L240.737 -38L-37.4749 243.401L-36.8819 244Z" fill="black"/><path d="M-23.799 244L254.413 -37.4008L253.82 -38L-24.392 243.401L-23.799 244Z" fill="black"/><path d="M-10.7161 244L267.496 -37.4008L266.903 -38L-11.3091 243.401L-10.7161 244Z" fill="black"/><path d="M-4.17468 244L274.037 -37.4008L273.444 -38L-4.7677 243.401L-4.17468 244Z" fill="black"/><path d="M2.36676 244L280.579 -37.4008L279.986 -38L1.77374 243.401L2.36676 244Z" fill="black"/><path d="M8.90814 244L287.12 -37.4008L286.527 -38L8.31519 243.401L8.90814 244Z" fill="black"/></g><path d="M44.6211 214.828V230L65.5219 210.007H344.502V137.309H335.414M44.6211 80.968V90.0553H323.601L344.502 108.23V17.3569H335.414" stroke="black"/></svg>