<svg width="146" height="184" viewBox="0 0 146 184" fill="none" xmlns="http://www.w3.org/2000/svg"><path d="M0.292969 0.292358H138.293V177.292H0.292969V0.292358Z" fill="white"/><path d="M0.5 0.5H138.915V177.131H0.5V0.5Z" stroke="black"/><mask id="mask0" mask-type="alpha" maskUnits="userSpaceOnUse" x="6" y="6" width="140" height="178"><path fill-rule="evenodd" clip-rule="evenodd" d="M6.36914 176.923V184H145.785V6.36926H138.708V176.923H6.36914Z" fill="#C4C4C4"/></mask><g mask="url(#mask0)"><path d="M177.986 218.677L414.341 -20.721L413.837 -21.2307L177.483 218.167L177.986 218.677Z" fill="black"/><path d="M-16.5184 218.677L219.836 -20.721L219.333 -21.2307L-17.0222 218.167L-16.5184 218.677Z" fill="black"/><path d="M-10.9611 218.677L225.394 -20.721L224.89 -21.2307L-11.4649 218.167L-10.9611 218.677Z" fill="black"/><path d="M-5.40381 218.677L230.951 -20.721L230.447 -21.2307L-5.90759 218.167L-5.40381 218.677Z" fill="black"/><path d="M0.153442 218.677L236.508 -20.721L236.004 -21.2307L-0.350342 218.167L0.153442 218.677Z" fill="black"/><path d="M5.71075 218.677L242.066 -20.721L241.562 -21.2307L5.20697 218.167L5.71075 218.677Z" fill="black"/><path d="M11.268 218.677L247.623 -20.721L247.119 -21.2307L10.7642 218.167L11.268 218.677Z" fill="black"/><path d="M16.8253 218.677L253.18 -20.721L252.676 -21.2307L16.3215 218.167L16.8253 218.677Z" fill="black"/><path d="M22.3826 218.677L258.737 -20.721L258.234 -21.2307L21.8788 218.167L22.3826 218.677Z" fill="black"/><path d="M27.9398 218.677L264.295 -20.721L263.791 -21.2307L27.436 218.167L27.9398 218.677Z" fill="black"/><path d="M39.0544 218.677L275.409 -20.721L274.905 -21.2307L38.5506 218.167L39.0544 218.677Z" fill="black"/><path d="M44.6117 218.677L280.967 -20.721L280.463 -21.2307L44.1078 218.167L44.6117 218.677Z" fill="black"/><path d="M50.1689 218.677L286.524 -20.721L286.02 -21.2307L49.6652 218.167L50.1689 218.677Z" fill="black"/><path d="M55.7263 218.677L292.081 -20.721L291.577 -21.2307L55.2225 218.167L55.7263 218.677Z" fill="black"/><path d="M61.2835 218.677L297.638 -20.721L297.135 -21.2307L60.7797 218.167L61.2835 218.677Z" fill="black"/><path d="M66.8408 218.677L303.196 -20.721L302.692 -21.2307L66.337 218.167L66.8408 218.677Z" fill="black"/><path d="M72.3981 218.677L308.753 -20.721L308.249 -21.2307L71.8943 218.167L72.3981 218.677Z" fill="black"/><path d="M77.9553 218.677L314.31 -20.721L313.806 -21.2307L77.4515 218.167L77.9553 218.677Z" fill="black"/><path d="M83.5126 218.677L319.867 -20.721L319.364 -21.2307L83.0089 218.167L83.5126 218.677Z" fill="black"/><path d="M89.0699 218.677L325.425 -20.721L324.921 -21.2307L88.5661 218.167L89.0699 218.677Z" fill="black"/><path d="M100.184 218.677L336.539 -20.721L336.035 -21.2307L99.6807 218.167L100.184 218.677Z" fill="black"/><path d="M105.742 218.677L342.097 -20.721L341.593 -21.2307L105.238 218.167L105.742 218.677Z" fill="black"/><path d="M111.299 218.677L347.654 -20.721L347.15 -21.2307L110.795 218.167L111.299 218.677Z" fill="black"/><path d="M116.856 218.677L353.211 -20.721L352.707 -21.2307L116.352 218.167L116.856 218.677Z" fill="black"/><path d="M127.971 218.677L364.326 -20.721L363.822 -21.2307L127.467 218.167L127.971 218.677Z" fill="black"/><path d="M133.528 218.677L369.883 -20.721L369.379 -21.2307L133.024 218.167L133.528 218.677Z" fill="black"/><path d="M139.085 218.677L375.44 -20.721L374.936 -21.2307L138.582 218.167L139.085 218.677Z" fill="black"/><path d="M144.643 218.677L380.997 -20.721L380.494 -21.2307L144.139 218.167L144.643 218.677Z" fill="black"/><path d="M150.2 218.677L386.555 -20.721L386.051 -21.2307L149.696 218.167L150.2 218.677Z" fill="black"/><path d="M155.757 218.677L392.112 -20.721L391.608 -21.2307L155.253 218.167L155.757 218.677Z" fill="black"/><path d="M161.315 218.677L397.669 -20.721L397.166 -21.2307L160.811 218.167L161.315 218.677Z" fill="black"/><path d="M194.658 218.677L431.013 -20.721L430.509 -21.2307L194.154 218.167L194.658 218.677Z" fill="black"/><path d="M205.773 218.677L442.128 -20.721L441.624 -21.2307L205.269 218.167L205.773 218.677Z" fill="black"/><path d="M216.887 218.677L453.242 -20.721L452.738 -21.2307L216.383 218.167L216.887 218.677Z" fill="black"/><path d="M228.002 218.677L464.357 -20.721L463.853 -21.2307L227.498 218.167L228.002 218.677Z" fill="black"/><path d="M244.674 218.677L481.028 -20.721L480.525 -21.2307L244.17 218.167L244.674 218.677Z" fill="black"/><path d="M255.788 218.677L492.143 -20.721L491.639 -21.2307L255.284 218.167L255.788 218.677Z" fill="black"/><path d="M266.903 218.677L503.258 -20.721L502.754 -21.2307L266.399 218.167L266.903 218.677Z" fill="black"/><path d="M278.017 218.677L514.372 -20.721L513.868 -21.2307L277.513 218.167L278.017 218.677Z" fill="black"/><path d="M289.132 218.677L525.487 -20.721L524.983 -21.2307L288.628 218.167L289.132 218.677Z" fill="black"/><path d="M294.689 218.677L531.044 -20.721L530.54 -21.2307L294.185 218.167L294.689 218.677Z" fill="black"/><path d="M305.804 218.677L542.159 -20.721L541.655 -21.2307L305.3 218.167L305.804 218.677Z" fill="black"/><path d="M316.918 218.677L553.273 -20.721L552.769 -21.2307L316.414 218.167L316.918 218.677Z" fill="black"/><path d="M328.033 218.677L564.388 -20.721L563.884 -21.2307L327.529 218.167L328.033 218.677Z" fill="black"/><path d="M339.147 218.677L575.502 -20.721L574.998 -21.2307L338.644 218.167L339.147 218.677Z" fill="black"/><path d="M378.048 218.677L614.403 -20.721L613.899 -21.2307L377.544 218.167L378.048 218.677Z" fill="black"/><path d="M389.163 218.677L625.518 -20.721L625.014 -21.2307L388.659 218.167L389.163 218.677Z" fill="black"/><path d="M400.277 218.677L636.632 -20.721L636.128 -21.2307L399.774 218.167L400.277 218.677Z" fill="black"/><path d="M-22.0756 218.677L214.279 -20.721L213.775 -21.2307L-22.5794 218.167L-22.0756 218.677Z" fill="black"/><path d="M33.4971 218.677L269.852 -20.721L269.348 -21.2307L32.9933 218.167L33.4971 218.677Z" fill="black"/><path d="M94.6271 218.677L330.982 -20.721L330.478 -21.2307L94.1234 218.167L94.6271 218.677Z" fill="black"/><path d="M122.414 218.677L358.768 -20.721L358.265 -21.2307L121.91 218.167L122.414 218.677Z" fill="black"/><path d="M166.872 218.677L403.227 -20.721L402.723 -21.2307L166.368 218.167L166.872 218.677Z" fill="black"/><path d="M172.429 218.677L408.784 -20.721L408.28 -21.2307L171.925 218.167L172.429 218.677Z" fill="black"/><path d="M183.544 218.677L419.898 -20.721L419.395 -21.2307L183.04 218.167L183.544 218.677Z" fill="black"/><path d="M189.101 218.677L425.456 -20.721L424.952 -21.2307L188.597 218.167L189.101 218.677Z" fill="black"/><path d="M200.215 218.677L436.57 -20.721L436.066 -21.2307L199.712 218.167L200.215 218.677Z" fill="black"/><path d="M211.33 218.677L447.685 -20.721L447.181 -21.2307L210.826 218.167L211.33 218.677Z" fill="black"/><path d="M222.445 218.677L458.799 -20.721L458.296 -21.2307L221.941 218.167L222.445 218.677Z" fill="black"/><path d="M233.559 218.677L469.914 -20.721L469.41 -21.2307L233.055 218.167L233.559 218.677Z" fill="black"/><path d="M239.116 218.677L475.471 -20.721L474.967 -21.2307L238.613 218.167L239.116 218.677Z" fill="black"/><path d="M250.231 218.677L486.586 -20.721L486.082 -21.2307L249.727 218.167L250.231 218.677Z" fill="black"/><path d="M261.345 218.677L497.7 -20.721L497.197 -21.2307L260.842 218.167L261.345 218.677Z" fill="black"/><path d="M272.46 218.677L508.815 -20.721L508.311 -21.2307L271.956 218.167L272.46 218.677Z" fill="black"/><path d="M283.575 218.677L519.929 -20.721L519.426 -21.2307L283.071 218.167L283.575 218.677Z" fill="black"/><path d="M300.246 218.677L536.601 -20.721L536.097 -21.2307L299.743 218.167L300.246 218.677Z" fill="black"/><path d="M311.361 218.677L547.716 -20.721L547.212 -21.2307L310.857 218.167L311.361 218.677Z" fill="black"/><path d="M322.476 218.677L558.83 -20.721L558.327 -21.2307L321.972 218.167L322.476 218.677Z" fill="black"/><path d="M333.59 218.677L569.945 -20.721L569.441 -21.2307L333.086 218.167L333.59 218.677Z" fill="black"/><path d="M344.705 218.677L581.059 -20.721L580.556 -21.2307L344.201 218.167L344.705 218.677Z" fill="black"/><path d="M350.262 218.677L586.617 -20.721L586.113 -21.2307L349.758 218.167L350.262 218.677Z" fill="black"/><path d="M355.819 218.677L592.174 -20.721L591.67 -21.2307L355.315 218.167L355.819 218.677Z" fill="black"/><path d="M361.376 218.677L597.731 -20.721L597.227 -21.2307L360.873 218.167L361.376 218.677Z" fill="black"/><path d="M366.934 218.677L603.289 -20.721L602.785 -21.2307L366.43 218.167L366.934 218.677Z" fill="black"/><path d="M372.491 218.677L608.846 -20.721L608.342 -21.2307L371.987 218.167L372.491 218.677Z" fill="black"/><path d="M383.606 218.677L619.96 -20.721L619.457 -21.2307L383.102 218.167L383.606 218.677Z" fill="black"/><path d="M394.72 218.677L631.075 -20.721L630.571 -21.2307L394.216 218.167L394.72 218.677Z" fill="black"/><path d="M405.835 218.677L642.19 -20.721L641.686 -21.2307L405.331 218.167L405.835 218.677Z" fill="black"/><path d="M411.392 218.677L647.747 -20.721L647.243 -21.2307L410.888 218.167L411.392 218.677Z" fill="black"/><path d="M416.949 218.677L653.304 -20.721L652.8 -21.2307L416.445 218.167L416.949 218.677Z" fill="black"/><path d="M422.507 218.677L658.861 -20.721L658.358 -21.2307L422.003 218.167L422.507 218.677Z" fill="black"/><path d="M-272.173 218.677L-35.818 -20.721L-36.3218 -21.2307L-272.677 218.167L-272.173 218.677Z" fill="black"/><path d="M-466.677 218.677L-230.323 -20.721L-230.827 -21.2307L-467.181 218.167L-466.677 218.677Z" fill="black"/><path d="M-461.12 218.677L-224.765 -20.721L-225.269 -21.2307L-461.624 218.167L-461.12 218.677Z" fill="black"/><path d="M-455.563 218.677L-219.208 -20.721L-219.712 -21.2307L-456.067 218.167L-455.563 218.677Z" fill="black"/><path d="M-450.006 218.677L-213.651 -20.721L-214.155 -21.2307L-450.51 218.167L-450.006 218.677Z" fill="black"/><path d="M-444.448 218.677L-208.094 -20.721L-208.597 -21.2307L-444.952 218.167L-444.448 218.677Z" fill="black"/><path d="M-438.891 218.677L-202.536 -20.721L-203.04 -21.2307L-439.395 218.167L-438.891 218.677Z" fill="black"/><path d="M-433.334 218.677L-196.979 -20.721L-197.483 -21.2307L-433.838 218.167L-433.334 218.677Z" fill="black"/><path d="M-427.777 218.677L-191.422 -20.721L-191.926 -21.2307L-428.28 218.167L-427.777 218.677Z" fill="black"/><path d="M-422.219 218.677L-185.864 -20.721L-186.368 -21.2307L-422.723 218.167L-422.219 218.677Z" fill="black"/><path d="M-411.105 218.677L-174.75 -20.721L-175.254 -21.2307L-411.609 218.167L-411.105 218.677Z" fill="black"/><path d="M-405.547 218.677L-169.193 -20.721L-169.696 -21.2307L-406.051 218.167L-405.547 218.677Z" fill="black"/><path d="M-399.99 218.677L-163.635 -20.721L-164.139 -21.2307L-400.494 218.167L-399.99 218.677Z" fill="black"/><path d="M-394.433 218.677L-158.078 -20.721L-158.582 -21.2307L-394.937 218.167L-394.433 218.677Z" fill="black"/><path d="M-388.876 218.677L-152.521 -20.721L-153.025 -21.2307L-389.38 218.167L-388.876 218.677Z" fill="black"/><path d="M-383.318 218.677L-146.964 -20.721L-147.467 -21.2307L-383.822 218.167L-383.318 218.677Z" fill="black"/><path d="M-377.761 218.677L-141.406 -20.721L-141.91 -21.2307L-378.265 218.167L-377.761 218.677Z" fill="black"/><path d="M-372.204 218.677L-135.849 -20.721L-136.353 -21.2307L-372.708 218.167L-372.204 218.677Z" fill="black"/><path d="M-366.646 218.677L-130.292 -20.721L-130.795 -21.2307L-367.15 218.167L-366.646 218.677Z" fill="black"/><path d="M-361.089 218.677L-124.734 -20.721L-125.238 -21.2307L-361.593 218.167L-361.089 218.677Z" fill="black"/><path d="M-349.975 218.677L-113.62 -20.721L-114.124 -21.2307L-350.478 218.167L-349.975 218.677Z" fill="black"/><path d="M-344.417 218.677L-108.063 -20.721L-108.566 -21.2307L-344.921 218.167L-344.417 218.677Z" fill="black"/><path d="M-338.86 218.677L-102.505 -20.721L-103.009 -21.2307L-339.364 218.167L-338.86 218.677Z" fill="black"/><path d="M-333.303 218.677L-96.9481 -20.721L-97.4518 -21.2307L-333.807 218.167L-333.303 218.677Z" fill="black"/><path d="M-322.188 218.677L-85.8335 -20.721L-86.3373 -21.2307L-322.692 218.167L-322.188 218.677Z" fill="black"/><path d="M-316.631 218.677L-80.2762 -20.721L-80.78 -21.2307L-317.135 218.167L-316.631 218.677Z" fill="black"/><path d="M-311.074 218.677L-74.7189 -20.721L-75.2227 -21.2307L-311.578 218.167L-311.074 218.677Z" fill="black"/><path d="M-305.516 218.677L-69.1617 -20.721L-69.6655 -21.2307L-306.02 218.167L-305.516 218.677Z" fill="black"/><path d="M-299.959 218.677L-63.6044 -20.721L-64.1082 -21.2307L-300.463 218.167L-299.959 218.677Z" fill="black"/><path d="M-294.402 218.677L-58.0471 -20.721L-58.5509 -21.2307L-294.906 218.167L-294.402 218.677Z" fill="black"/><path d="M-288.845 218.677L-52.4899 -20.721L-52.9937 -21.2307L-289.348 218.167L-288.845 218.677Z" fill="black"/><path d="M-255.501 218.677L-19.1462 -20.721L-19.65 -21.2307L-256.005 218.167L-255.501 218.677Z" fill="black"/><path d="M-244.386 218.677L-8.03162 -20.721L-8.5354 -21.2307L-244.89 218.167L-244.386 218.677Z" fill="black"/><path d="M-233.272 218.677L3.08295 -20.721L2.57916 -21.2307L-233.776 218.167L-233.272 218.677Z" fill="black"/><path d="M-222.157 218.677L14.1975 -20.721L13.6937 -21.2307L-222.661 218.167L-222.157 218.677Z" fill="black"/><path d="M-205.486 218.677L30.8693 -20.721L30.3655 -21.2307L-205.989 218.167L-205.486 218.677Z" fill="black"/><path d="M-194.371 218.677L41.9839 -20.721L41.4801 -21.2307L-194.875 218.167L-194.371 218.677Z" fill="black"/><path d="M-183.256 218.677L53.0984 -20.721L52.5947 -21.2307L-183.76 218.167L-183.256 218.677Z" fill="black"/><path d="M-172.142 218.677L64.213 -20.721L63.7092 -21.2307L-172.646 218.167L-172.142 218.677Z" fill="black"/><path d="M-161.027 218.677L75.3276 -20.721L74.8238 -21.2307L-161.531 218.167L-161.027 218.677Z" fill="black"/><path d="M-155.47 218.677L80.8848 -20.721L80.381 -21.2307L-155.974 218.167L-155.47 218.677Z" fill="black"/><path d="M-144.356 218.677L91.9993 -20.721L91.4955 -21.2307L-144.859 218.167L-144.356 218.677Z" fill="black"/><path d="M-133.241 218.677L103.114 -20.721L102.61 -21.2307L-133.745 218.167L-133.241 218.677Z" fill="black"/><path d="M-122.126 218.677L114.228 -20.721L113.725 -21.2307L-122.63 218.167L-122.126 218.677Z" fill="black"/><path d="M-111.012 218.677L125.343 -20.721L124.839 -21.2307L-111.516 218.167L-111.012 218.677Z" fill="black"/><path d="M-72.1108 218.677L164.244 -20.721L163.74 -21.2307L-72.6146 218.167L-72.1108 218.677Z" fill="black"/><path d="M-60.9963 218.677L175.358 -20.721L174.855 -21.2307L-61.5001 218.167L-60.9963 218.677Z" fill="black"/><path d="M-49.8818 218.677L186.473 -20.721L185.969 -21.2307L-50.3856 218.167L-49.8818 218.677Z" fill="black"/><path d="M-472.235 218.677L-235.88 -20.721L-236.384 -21.2307L-472.739 218.167L-472.235 218.677Z" fill="black"/><path d="M-416.662 218.677L-180.307 -20.721L-180.811 -21.2307L-417.166 218.167L-416.662 218.677Z" fill="black"/><path d="M-355.532 218.677L-119.177 -20.721L-119.681 -21.2307L-356.036 218.167L-355.532 218.677Z" fill="black"/><path d="M-327.746 218.677L-91.3909 -20.721L-91.8947 -21.2307L-328.249 218.167L-327.746 218.677Z" fill="black"/><path d="M-283.287 218.677L-46.9326 -20.721L-47.4363 -21.2307L-283.791 218.167L-283.287 218.677Z" fill="black"/><path d="M-277.73 218.677L-41.3753 -20.721L-41.8791 -21.2307L-278.234 218.167L-277.73 218.677Z" fill="black"/><path d="M-266.616 218.677L-30.2607 -20.721L-30.7645 -21.2307L-267.119 218.167L-266.616 218.677Z" fill="black"/><path d="M-261.058 218.677L-24.7035 -20.721L-25.2073 -21.2307L-261.562 218.167L-261.058 218.677Z" fill="black"/><path d="M-249.944 218.677L-13.5889 -20.721L-14.0927 -21.2307L-250.448 218.167L-249.944 218.677Z" fill="black"/><path d="M-238.829 218.677L-2.47437 -20.721L-2.97815 -21.2307L-239.333 218.167L-238.829 218.677Z" fill="black"/><path d="M-227.715 218.677L8.6402 -20.721L8.13641 -21.2307L-228.218 218.167L-227.715 218.677Z" fill="black"/><path d="M-216.6 218.677L19.7548 -20.721L19.251 -21.2307L-217.104 218.167L-216.6 218.677Z" fill="black"/><path d="M-211.043 218.677L25.312 -20.721L24.8082 -21.2307L-211.547 218.167L-211.043 218.677Z" fill="black"/><path d="M-199.928 218.677L36.4266 -20.721L35.9228 -21.2307L-200.432 218.167L-199.928 218.677Z" fill="black"/><path d="M-188.814 218.677L47.5411 -20.721L47.0374 -21.2307L-189.318 218.167L-188.814 218.677Z" fill="black"/><path d="M-177.699 218.677L58.6557 -20.721L58.1519 -21.2307L-178.203 218.167L-177.699 218.677Z" fill="black"/><path d="M-166.585 218.677L69.7703 -20.721L69.2665 -21.2307L-167.088 218.167L-166.585 218.677Z" fill="black"/><path d="M-149.913 218.677L86.4421 -20.721L85.9383 -21.2307L-150.417 218.167L-149.913 218.677Z" fill="black"/><path d="M-138.798 218.677L97.5566 -20.721L97.0529 -21.2307L-139.302 218.167L-138.798 218.677Z" fill="black"/><path d="M-127.684 218.677L108.671 -20.721L108.167 -21.2307L-128.187 218.167L-127.684 218.677Z" fill="black"/><path d="M-116.569 218.677L119.786 -20.721L119.282 -21.2307L-117.073 218.167L-116.569 218.677Z" fill="black"/><path d="M-105.455 218.677L130.9 -20.721L130.397 -21.2307L-105.958 218.167L-105.455 218.677Z" fill="black"/><path d="M-99.8973 218.677L136.458 -20.721L135.954 -21.2307L-100.401 218.167L-99.8973 218.677Z" fill="black"/><path d="M-94.34 218.677L142.015 -20.721L141.511 -21.2307L-94.8438 218.167L-94.34 218.677Z" fill="black"/><path d="M-88.7828 218.677L147.572 -20.721L147.068 -21.2307L-89.2866 218.167L-88.7828 218.677Z" fill="black"/><path d="M-83.2254 218.677L153.129 -20.721L152.626 -21.2307L-83.7292 218.167L-83.2254 218.677Z" fill="black"/><path d="M-77.6682 218.677L158.687 -20.721L158.183 -21.2307L-78.1719 218.167L-77.6682 218.677Z" fill="black"/><path d="M-66.5536 218.677L169.801 -20.721L169.297 -21.2307L-67.0574 218.167L-66.5536 218.677Z" fill="black"/><path d="M-55.439 218.677L180.916 -20.721L180.412 -21.2307L-55.9428 218.167L-55.439 218.677Z" fill="black"/><path d="M-44.3245 218.677L192.03 -20.721L191.527 -21.2307L-44.8282 218.167L-44.3245 218.677Z" fill="black"/><path d="M-38.7672 218.677L197.588 -20.721L197.084 -21.2307L-39.271 218.167L-38.7672 218.677Z" fill="black"/><path d="M-33.21 218.677L203.145 -20.721L202.641 -21.2307L-33.7137 218.167L-33.21 218.677Z" fill="black"/><path d="M-27.6526 218.677L208.702 -20.721L208.198 -21.2307L-28.1564 218.167L-27.6526 218.677Z" fill="black"/></g><mask id="path-5-inside-1" fill="white"><path fill-rule="evenodd" clip-rule="evenodd" d="M6.36914 176.923V184H145.785V6.36926H138.708V176.923H6.36914Z"/></mask><path d="M6.36914 184H5.36914V185H6.36914V184ZM6.36914 176.923V175.923H5.36914V176.923H6.36914ZM145.785 184V185H146.785V184H145.785ZM145.785 6.36926H146.785V5.36926H145.785V6.36926ZM138.708 6.36926V5.36926H137.708V6.36926H138.708ZM138.708 176.923V177.923H139.708V176.923H138.708ZM7.36914 184V176.923H5.36914V184H7.36914ZM145.785 183H6.36914V185H145.785V183ZM144.785 6.36926V184H146.785V6.36926H144.785ZM138.708 7.36926H145.785V5.36926H138.708V7.36926ZM137.708 6.36926V176.923H139.708V6.36926H137.708ZM138.708 175.923H6.36914V177.923H138.708V175.923Z" fill="black" mask="url(#path-5-inside-1)"/><path d="M16.7773 30.0229H30.0273V16.7729H16.7773V30.0229Z" stroke="black"/><path d="M119.809 16.777H47.9163V20.0231H119.809V16.777Z" stroke="black"/><path d="M48.9336 154.777H18.7951V158.023H48.9336V154.777Z" stroke="black"/><path d="M16.793 48.7925H119.793V51.7925H16.793V48.7925Z" stroke="black"/><path d="M16.793 90.7925H119.793V93.7925H16.793V90.7925Z" stroke="black"/><path d="M16.793 58.7925H119.793V61.7925H16.793V58.7925Z" stroke="black"/><path d="M16.793 69.7925H119.793V72.7925H16.793V69.7925Z" stroke="black"/><path d="M16.793 80.7925H119.793V83.7925H16.793V80.7925Z" stroke="black"/><circle r="16.5" transform="matrix(-1 0 0 1 103.305 141.292)" fill="#9EDB3C" stroke="#15181E"/><path d="M100.212 147.292C100.813 147.292 102.298 147.188 103.404 146.387V146.996H105.643V144.326L106.578 143.367L108.61 146.994H111.293L108.214 141.81L111.212 138.543H108.466L105.643 141.749V135.593H103.404V136.565C102.721 135.842 101.616 135.292 99.8939 135.292C96.1644 135.292 95.4664 137.538 95.4664 138.795C95.4664 140.523 96.404 141.481 98.0374 141.874L100.354 142.44C101.577 142.738 102.45 142.959 102.45 143.854C102.45 145.047 101.18 145.329 100.038 145.329C97.9424 145.329 97.5934 144.119 97.5934 143.476H95.293C95.293 144.89 96.0219 147.292 100.212 147.292ZM101.736 140.493L98.9275 139.816C98.4504 139.706 97.7049 139.518 97.7049 138.623C97.7049 137.603 98.7994 137.256 99.7204 137.256C101.814 137.256 102.006 138.466 102.068 138.983H103.404V141.108C102.915 140.828 102.335 140.642 101.736 140.493Z" fill="#15181E"/></svg>