<svg width="215" height="202" viewBox="0 0 215 202" fill="none" xmlns="http://www.w3.org/2000/svg"><path fill-rule="evenodd" clip-rule="evenodd" d="M107.5 5.21191L206 191.212H9L107.5 5.21191ZM116.047 140.036V66.2119H98.0469V140.036H116.047ZM116.047 164.212V146.13H98.0469V164.212H116.047Z" fill="#9FDB3D"/><path d="M8.5252 200.47L8.95357 200.712H205.954L206.382 200.47L214.336 187.258L214.349 186.766L115.849 0.766002L115.407 0.5H99.5L99.0581 0.766002L0.558135 186.766L0.571631 187.258L8.5252 200.47ZM9.78414 190.712L107.454 6.28035L205.123 190.712H9.78414Z" stroke="#15181E" stroke-linecap="square" stroke-linejoin="bevel" fill="#FFFFFF"/><path fill-rule="evenodd" clip-rule="evenodd" d="M116.953 66.2119V140.036H98.9531V66.2119H116.953ZM116.953 146.13V164.212H98.9531V146.13H116.953Z" stroke="#15181E" stroke-linecap="square"/><mask id="mask0" mask-type="alpha" maskUnits="userSpaceOnUse" x="9" y="5" width="197" height="187"><path fill-rule="evenodd" clip-rule="evenodd" d="M107.5 5.21191L206 191.212H9L107.5 5.21191ZM116.047 140.036V66.2119H98.0469V140.036H116.047ZM116.047 164.212V146.13H98.0469V164.212H116.047Z" fill="#C4C4C4"/></mask><g mask="url(#mask0)"><path d="M171.503 262.212L505.482 -76.0678L504.771 -76.7881L170.791 261.492L171.503 262.212Z" fill="black"/><path d="M-103.341 262.212L230.639 -76.0678L229.927 -76.7881L-104.053 261.492L-103.341 262.212Z" fill="black"/><path d="M-95.4883 262.212L238.491 -76.0678L237.78 -76.7881L-96.2001 261.492L-95.4883 262.212Z" fill="black"/><path d="M-87.6356 262.212L246.344 -76.0678L245.632 -76.7881L-88.3475 261.492L-87.6356 262.212Z" fill="black"/><path d="M-79.7829 262.212L254.197 -76.0678L253.485 -76.7881L-80.4948 261.492L-79.7829 262.212Z" fill="black"/><path d="M-71.9302 262.212L262.049 -76.0678L261.338 -76.7881L-72.6421 261.492L-71.9302 262.212Z" fill="black"/><path d="M-64.0776 262.212L269.902 -76.0678L269.19 -76.7881L-64.7894 261.492L-64.0776 262.212Z" fill="black"/><path d="M-56.2249 262.212L277.755 -76.0678L277.043 -76.7881L-56.9368 261.492L-56.2249 262.212Z" fill="black"/><path d="M-48.3722 262.212L285.607 -76.0678L284.896 -76.7881L-49.0841 261.492L-48.3722 262.212Z" fill="black"/><path d="M-40.5196 262.212L293.46 -76.0678L292.748 -76.7881L-41.2314 261.492L-40.5196 262.212Z" fill="black"/><path d="M-24.8141 262.212L309.166 -76.0678L308.454 -76.7881L-25.5261 261.492L-24.8141 262.212Z" fill="black"/><path d="M-16.9615 262.212L317.018 -76.0678L316.306 -76.7881L-17.6734 261.492L-16.9615 262.212Z" fill="black"/><path d="M-9.10883 262.212L324.871 -76.0678L324.159 -76.7881L-9.82074 261.492L-9.10883 262.212Z" fill="black"/><path d="M-1.25616 262.212L332.724 -76.0678L332.012 -76.7881L-1.96802 261.492L-1.25616 262.212Z" fill="black"/><path d="M6.5965 262.212L340.576 -76.0678L339.864 -76.7881L5.88464 261.492L6.5965 262.212Z" fill="black"/><path d="M14.4492 262.212L348.429 -76.0678L347.717 -76.7881L13.7374 261.492L14.4492 262.212Z" fill="black"/><path d="M22.3019 262.212L356.282 -76.0678L355.57 -76.7881L21.59 261.492L22.3019 262.212Z" fill="black"/><path d="M30.1545 262.212L364.134 -76.0678L363.422 -76.7881L29.4427 261.492L30.1545 262.212Z" fill="black"/><path d="M38.0072 262.212L371.987 -76.0678L371.275 -76.7881L37.2953 261.492L38.0072 262.212Z" fill="black"/><path d="M45.8599 262.212L379.84 -76.0678L379.128 -76.7881L45.148 261.492L45.8599 262.212Z" fill="black"/><path d="M61.5652 262.212L395.545 -76.0678L394.833 -76.7881L60.8534 261.492L61.5652 262.212Z" fill="black"/><path d="M69.4179 262.212L403.398 -76.0678L402.686 -76.7881L68.7061 261.492L69.4179 262.212Z" fill="black"/><path d="M77.2706 262.212L411.25 -76.0678L410.538 -76.7881L76.5587 261.492L77.2706 262.212Z" fill="black"/><path d="M85.1232 262.212L419.103 -76.0678L418.391 -76.7881L84.4114 261.492L85.1232 262.212Z" fill="black"/><path d="M100.829 262.212L434.808 -76.0678L434.096 -76.7881L100.117 261.492L100.829 262.212Z" fill="black"/><path d="M108.681 262.212L442.661 -76.0678L441.949 -76.7881L107.969 261.492L108.681 262.212Z" fill="black"/><path d="M116.534 262.212L450.514 -76.0678L449.802 -76.7881L115.822 261.492L116.534 262.212Z" fill="black"/><path d="M124.387 262.212L458.366 -76.0678L457.654 -76.7881L123.675 261.492L124.387 262.212Z" fill="black"/><path d="M132.239 262.212L466.219 -76.0678L465.507 -76.7881L131.527 261.492L132.239 262.212Z" fill="black"/><path d="M140.092 262.212L474.072 -76.0678L473.36 -76.7881L139.38 261.492L140.092 262.212Z" fill="black"/><path d="M147.945 262.212L481.924 -76.0678L481.212 -76.7881L147.233 261.492L147.945 262.212Z" fill="black"/><path d="M195.061 262.212L529.04 -76.0678L528.329 -76.7881L194.349 261.492L195.061 262.212Z" fill="black"/><path d="M210.766 262.212L544.746 -76.0678L544.034 -76.7881L210.054 261.492L210.766 262.212Z" fill="black"/><path d="M226.471 262.212L560.451 -76.0678L559.739 -76.7881L225.76 261.492L226.471 262.212Z" fill="black"/><path d="M242.177 262.212L576.156 -76.0678L575.445 -76.7881L241.465 261.492L242.177 262.212Z" fill="black"/><path d="M265.735 262.212L599.714 -76.0678L599.003 -76.7881L265.023 261.492L265.735 262.212Z" fill="black"/><path d="M281.44 262.212L615.42 -76.0678L614.708 -76.7881L280.728 261.492L281.44 262.212Z" fill="black"/><path d="M297.145 262.212L631.125 -76.0678L630.413 -76.7881L296.434 261.492L297.145 262.212Z" fill="black"/><path d="M312.851 262.212L646.83 -76.0678L646.119 -76.7881L312.139 261.492L312.851 262.212Z" fill="black"/><path d="M328.556 262.212L662.536 -76.0678L661.824 -76.7881L327.844 261.492L328.556 262.212Z" fill="black"/><path d="M336.409 262.212L670.389 -76.0678L669.677 -76.7881L335.697 261.492L336.409 262.212Z" fill="black"/><path d="M352.114 262.212L686.094 -76.0678L685.382 -76.7881L351.402 261.492L352.114 262.212Z" fill="black"/><path d="M367.82 262.212L701.799 -76.0678L701.087 -76.7881L367.108 261.492L367.82 262.212Z" fill="black"/><path d="M383.525 262.212L717.505 -76.0678L716.793 -76.7881L382.813 261.492L383.525 262.212Z" fill="black"/><path d="M399.23 262.212L733.21 -76.0678L732.498 -76.7881L398.518 261.492L399.23 262.212Z" fill="black"/><path d="M454.199 262.212L788.179 -76.0678L787.467 -76.7881L453.487 261.492L454.199 262.212Z" fill="black"/><path d="M469.904 262.212L803.884 -76.0678L803.172 -76.7881L469.192 261.492L469.904 262.212Z" fill="black"/><path d="M485.61 262.212L819.589 -76.0678L818.878 -76.7881L484.898 261.492L485.61 262.212Z" fill="black"/><path d="M-111.194 262.212L222.786 -76.0678L222.074 -76.7881L-111.905 261.492L-111.194 262.212Z" fill="black"/><path d="M-32.6668 262.212L301.313 -76.0678L300.601 -76.7881L-33.3787 261.492L-32.6668 262.212Z" fill="black"/><path d="M53.7125 262.212L387.692 -76.0678L386.98 -76.7881L53.0007 261.492L53.7125 262.212Z" fill="black"/><path d="M92.9759 262.212L426.956 -76.0678L426.244 -76.7881L92.264 261.492L92.9759 262.212Z" fill="black"/><path d="M155.797 262.212L489.777 -76.0678L489.065 -76.7881L155.086 261.492L155.797 262.212Z" fill="black"/><path d="M163.65 262.212L497.63 -76.0678L496.918 -76.7881L162.938 261.492L163.65 262.212Z" fill="black"/><path d="M179.355 262.212L513.335 -76.0678L512.623 -76.7881L178.643 261.492L179.355 262.212Z" fill="black"/><path d="M187.208 262.212L521.188 -76.0678L520.476 -76.7881L186.496 261.492L187.208 262.212Z" fill="black"/><path d="M202.913 262.212L536.893 -76.0678L536.181 -76.7881L202.202 261.492L202.913 262.212Z" fill="black"/><path d="M218.619 262.212L552.598 -76.0678L551.887 -76.7881L217.907 261.492L218.619 262.212Z" fill="black"/><path d="M234.324 262.212L568.304 -76.0678L567.592 -76.7881L233.612 261.492L234.324 262.212Z" fill="black"/><path d="M250.029 262.212L584.009 -76.0678L583.297 -76.7881L249.318 261.492L250.029 262.212Z" fill="black"/><path d="M257.882 262.212L591.862 -76.0678L591.15 -76.7881L257.17 261.492L257.882 262.212Z" fill="black"/><path d="M273.587 262.212L607.567 -76.0678L606.855 -76.7881L272.876 261.492L273.587 262.212Z" fill="black"/><path d="M289.293 262.212L623.272 -76.0678L622.561 -76.7881L288.581 261.492L289.293 262.212Z" fill="black"/><path d="M304.998 262.212L638.978 -76.0678L638.266 -76.7881L304.286 261.492L304.998 262.212Z" fill="black"/><path d="M320.703 262.212L654.683 -76.0678L653.971 -76.7881L319.992 261.492L320.703 262.212Z" fill="black"/><path d="M344.262 262.212L678.241 -76.0678L677.529 -76.7881L343.55 261.492L344.262 262.212Z" fill="black"/><path d="M359.967 262.212L693.947 -76.0678L693.235 -76.7881L359.255 261.492L359.967 262.212Z" fill="black"/><path d="M375.672 262.212L709.652 -76.0678L708.94 -76.7881L374.96 261.492L375.672 262.212Z" fill="black"/><path d="M391.378 262.212L725.357 -76.0678L724.645 -76.7881L390.666 261.492L391.378 262.212Z" fill="black"/><path d="M407.083 262.212L741.063 -76.0678L740.351 -76.7881L406.371 261.492L407.083 262.212Z" fill="black"/><path d="M414.936 262.212L748.915 -76.0678L748.203 -76.7881L414.224 261.492L414.936 262.212Z" fill="black"/><path d="M422.788 262.212L756.768 -76.0678L756.056 -76.7881L422.076 261.492L422.788 262.212Z" fill="black"/><path d="M430.641 262.212L764.621 -76.0678L763.909 -76.7881L429.929 261.492L430.641 262.212Z" fill="black"/><path d="M438.494 262.212L772.473 -76.0678L771.761 -76.7881L437.782 261.492L438.494 262.212Z" fill="black"/><path d="M446.346 262.212L780.326 -76.0678L779.614 -76.7881L445.634 261.492L446.346 262.212Z" fill="black"/><path d="M462.052 262.212L796.031 -76.0678L795.319 -76.7881L461.34 261.492L462.052 262.212Z" fill="black"/><path d="M477.757 262.212L811.737 -76.0678L811.025 -76.7881L477.045 261.492L477.757 262.212Z" fill="black"/><path d="M493.462 262.212L827.442 -76.0678L826.73 -76.7881L492.75 261.492L493.462 262.212Z" fill="black"/><path d="M501.315 262.212L835.295 -76.0678L834.583 -76.7881L500.603 261.492L501.315 262.212Z" fill="black"/><path d="M509.168 262.212L843.147 -76.0678L842.435 -76.7881L508.456 261.492L509.168 262.212Z" fill="black"/><path d="M517.02 262.212L851 -76.0678L850.288 -76.7881L516.309 261.492L517.02 262.212Z" fill="black"/><path d="M-464.592 262.212L-130.612 -76.0678L-131.324 -76.7881L-465.304 261.492L-464.592 262.212Z" fill="black"/><path d="M-739.435 262.212L-405.456 -76.0678L-406.168 -76.7881L-740.147 261.492L-739.435 262.212Z" fill="black"/><path d="M-731.583 262.212L-397.603 -76.0678L-398.315 -76.7881L-732.295 261.492L-731.583 262.212Z" fill="black"/><path d="M-723.73 262.212L-389.75 -76.0678L-390.462 -76.7881L-724.442 261.492L-723.73 262.212Z" fill="black"/><path d="M-715.877 262.212L-381.898 -76.0678L-382.61 -76.7881L-716.589 261.492L-715.877 262.212Z" fill="black"/><path d="M-708.025 262.212L-374.045 -76.0678L-374.757 -76.7881L-708.737 261.492L-708.025 262.212Z" fill="black"/><path d="M-700.172 262.212L-366.193 -76.0678L-366.904 -76.7881L-700.884 261.492L-700.172 262.212Z" fill="black"/><path d="M-692.319 262.212L-358.34 -76.0678L-359.052 -76.7881L-693.031 261.492L-692.319 262.212Z" fill="black"/><path d="M-684.467 262.212L-350.487 -76.0678L-351.199 -76.7881L-685.179 261.492L-684.467 262.212Z" fill="black"/><path d="M-676.614 262.212L-342.634 -76.0678L-343.346 -76.7881L-677.326 261.492L-676.614 262.212Z" fill="black"/><path d="M-660.909 262.212L-326.929 -76.0678L-327.641 -76.7881L-661.621 261.492L-660.909 262.212Z" fill="black"/><path d="M-653.056 262.212L-319.076 -76.0678L-319.788 -76.7881L-653.768 261.492L-653.056 262.212Z" fill="black"/><path d="M-645.203 262.212L-311.224 -76.0678L-311.935 -76.7881L-645.915 261.492L-645.203 262.212Z" fill="black"/><path d="M-637.351 262.212L-303.371 -76.0678L-304.083 -76.7881L-638.063 261.492L-637.351 262.212Z" fill="black"/><path d="M-629.498 262.212L-295.518 -76.0678L-296.23 -76.7881L-630.21 261.492L-629.498 262.212Z" fill="black"/><path d="M-621.645 262.212L-287.666 -76.0678L-288.377 -76.7881L-622.357 261.492L-621.645 262.212Z" fill="black"/><path d="M-613.793 262.212L-279.813 -76.0678L-280.525 -76.7881L-614.504 261.492L-613.793 262.212Z" fill="black"/><path d="M-605.94 262.212L-271.96 -76.0678L-272.672 -76.7881L-606.652 261.492L-605.94 262.212Z" fill="black"/><path d="M-598.087 262.212L-264.108 -76.0678L-264.819 -76.7881L-598.799 261.492L-598.087 262.212Z" fill="black"/><path d="M-590.235 262.212L-256.255 -76.0678L-256.967 -76.7881L-590.947 261.492L-590.235 262.212Z" fill="black"/><path d="M-574.529 262.212L-240.55 -76.0678L-241.261 -76.7881L-575.241 261.492L-574.529 262.212Z" fill="black"/><path d="M-566.677 262.212L-232.697 -76.0678L-233.409 -76.7881L-567.388 261.492L-566.677 262.212Z" fill="black"/><path d="M-558.824 262.212L-224.844 -76.0678L-225.556 -76.7881L-559.536 261.492L-558.824 262.212Z" fill="black"/><path d="M-550.971 262.212L-216.992 -76.0678L-217.703 -76.7881L-551.683 261.492L-550.971 262.212Z" fill="black"/><path d="M-535.266 262.212L-201.286 -76.0678L-201.998 -76.7881L-535.978 261.492L-535.266 262.212Z" fill="black"/><path d="M-527.413 262.212L-193.434 -76.0678L-194.145 -76.7881L-528.125 261.492L-527.413 262.212Z" fill="black"/><path d="M-519.561 262.212L-185.581 -76.0678L-186.293 -76.7881L-520.272 261.492L-519.561 262.212Z" fill="black"/><path d="M-511.708 262.212L-177.728 -76.0678L-178.44 -76.7881L-512.42 261.492L-511.708 262.212Z" fill="black"/><path d="M-503.855 262.212L-169.876 -76.0678L-170.587 -76.7881L-504.567 261.492L-503.855 262.212Z" fill="black"/><path d="M-496.003 262.212L-162.023 -76.0678L-162.735 -76.7881L-496.714 261.492L-496.003 262.212Z" fill="black"/><path d="M-488.15 262.212L-154.17 -76.0678L-154.882 -76.7881L-488.862 261.492L-488.15 262.212Z" fill="black"/><path d="M-441.034 262.212L-107.054 -76.0678L-107.766 -76.7881L-441.746 261.492L-441.034 262.212Z" fill="black"/><path d="M-425.328 262.212L-91.3488 -76.0678L-92.0606 -76.7881L-426.04 261.492L-425.328 262.212Z" fill="black"/><path d="M-409.623 262.212L-75.6434 -76.0678L-76.3553 -76.7881L-410.335 261.492L-409.623 262.212Z" fill="black"/><path d="M-393.918 262.212L-59.938 -76.0678L-60.65 -76.7881L-394.63 261.492L-393.918 262.212Z" fill="black"/><path d="M-370.36 262.212L-36.3801 -76.0678L-37.0919 -76.7881L-371.072 261.492L-370.36 262.212Z" fill="black"/><path d="M-354.654 262.212L-20.6747 -76.0678L-21.3866 -76.7881L-355.366 261.492L-354.654 262.212Z" fill="black"/><path d="M-338.949 262.212L-4.96936 -76.0678L-5.68121 -76.7881L-339.661 261.492L-338.949 262.212Z" fill="black"/><path d="M-323.244 262.212L10.736 -76.0678L10.0241 -76.7881L-323.956 261.492L-323.244 262.212Z" fill="black"/><path d="M-307.538 262.212L26.4413 -76.0678L25.7295 -76.7881L-308.25 261.492L-307.538 262.212Z" fill="black"/><path d="M-299.686 262.212L34.294 -76.0678L33.5821 -76.7881L-300.398 261.492L-299.686 262.212Z" fill="black"/><path d="M-283.98 262.212L49.9993 -76.0678L49.2875 -76.7881L-284.692 261.492L-283.98 262.212Z" fill="black"/><path d="M-268.275 262.212L65.7047 -76.0678L64.9929 -76.7881L-268.987 261.492L-268.275 262.212Z" fill="black"/><path d="M-252.57 262.212L81.4101 -76.0678L80.6982 -76.7881L-253.281 261.492L-252.57 262.212Z" fill="black"/><path d="M-236.864 262.212L97.1154 -76.0678L96.4036 -76.7881L-237.576 261.492L-236.864 262.212Z" fill="black"/><path d="M-181.896 262.212L152.084 -76.0678L151.372 -76.7881L-182.607 261.492L-181.896 262.212Z" fill="black"/><path d="M-166.19 262.212L167.789 -76.0678L167.078 -76.7881L-166.902 261.492L-166.19 262.212Z" fill="black"/><path d="M-150.485 262.212L183.495 -76.0678L182.783 -76.7881L-151.197 261.492L-150.485 262.212Z" fill="black"/><path d="M-747.288 262.212L-413.308 -76.0678L-414.02 -76.7881L-748 261.492L-747.288 262.212Z" fill="black"/><path d="M-668.761 262.212L-334.782 -76.0678L-335.494 -76.7881L-669.473 261.492L-668.761 262.212Z" fill="black"/><path d="M-582.382 262.212L-248.402 -76.0678L-249.114 -76.7881L-583.094 261.492L-582.382 262.212Z" fill="black"/><path d="M-543.119 262.212L-209.139 -76.0678L-209.851 -76.7881L-543.83 261.492L-543.119 262.212Z" fill="black"/><path d="M-480.297 262.212L-146.318 -76.0678L-147.029 -76.7881L-481.009 261.492L-480.297 262.212Z" fill="black"/><path d="M-472.444 262.212L-138.465 -76.0678L-139.177 -76.7881L-473.156 261.492L-472.444 262.212Z" fill="black"/><path d="M-456.739 262.212L-122.76 -76.0678L-123.471 -76.7881L-457.451 261.492L-456.739 262.212Z" fill="black"/><path d="M-448.886 262.212L-114.907 -76.0678L-115.619 -76.7881L-449.598 261.492L-448.886 262.212Z" fill="black"/><path d="M-433.181 262.212L-99.2015 -76.0678L-99.9133 -76.7881L-433.893 261.492L-433.181 262.212Z" fill="black"/><path d="M-417.476 262.212L-83.4962 -76.0678L-84.208 -76.7881L-418.188 261.492L-417.476 262.212Z" fill="black"/><path d="M-401.771 262.212L-67.7908 -76.0678L-68.5027 -76.7881L-402.482 261.492L-401.771 262.212Z" fill="black"/><path d="M-386.065 262.212L-52.0854 -76.0678L-52.7972 -76.7881L-386.777 261.492L-386.065 262.212Z" fill="black"/><path d="M-378.212 262.212L-44.2328 -76.0678L-44.9446 -76.7881L-378.924 261.492L-378.212 262.212Z" fill="black"/><path d="M-362.507 262.212L-28.5275 -76.0678L-29.2393 -76.7881L-363.219 261.492L-362.507 262.212Z" fill="black"/><path d="M-346.802 262.212L-12.822 -76.0678L-13.5339 -76.7881L-347.514 261.492L-346.802 262.212Z" fill="black"/><path d="M-331.096 262.212L2.8833 -76.0678L2.17145 -76.7881L-331.808 261.492L-331.096 262.212Z" fill="black"/><path d="M-315.391 262.212L18.5886 -76.0678L17.8768 -76.7881L-316.103 261.492L-315.391 262.212Z" fill="black"/><path d="M-291.833 262.212L42.1467 -76.0678L41.4348 -76.7881L-292.545 261.492L-291.833 262.212Z" fill="black"/><path d="M-276.128 262.212L57.852 -76.0678L57.1401 -76.7881L-276.839 261.492L-276.128 262.212Z" fill="black"/><path d="M-260.422 262.212L73.5573 -76.0678L72.8455 -76.7881L-261.134 261.492L-260.422 262.212Z" fill="black"/><path d="M-244.717 262.212L89.2627 -76.0678L88.5508 -76.7881L-245.429 261.492L-244.717 262.212Z" fill="black"/><path d="M-229.012 262.212L104.968 -76.0678L104.256 -76.7881L-229.723 261.492L-229.012 262.212Z" fill="black"/><path d="M-221.159 262.212L112.821 -76.0678L112.109 -76.7881L-221.871 261.492L-221.159 262.212Z" fill="black"/><path d="M-213.306 262.212L120.673 -76.0678L119.962 -76.7881L-214.018 261.492L-213.306 262.212Z" fill="black"/><path d="M-205.454 262.212L128.526 -76.0678L127.814 -76.7881L-206.166 261.492L-205.454 262.212Z" fill="black"/><path d="M-197.601 262.212L136.379 -76.0678L135.667 -76.7881L-198.313 261.492L-197.601 262.212Z" fill="black"/><path d="M-189.748 262.212L144.231 -76.0678L143.52 -76.7881L-190.46 261.492L-189.748 262.212Z" fill="black"/><path d="M-174.043 262.212L159.937 -76.0678L159.225 -76.7881L-174.755 261.492L-174.043 262.212Z" fill="black"/><path d="M-158.338 262.212L175.642 -76.0678L174.93 -76.7881L-159.049 261.492L-158.338 262.212Z" fill="black"/><path d="M-142.632 262.212L191.347 -76.0678L190.636 -76.7881L-143.344 261.492L-142.632 262.212Z" fill="black"/><path d="M-134.779 262.212L199.2 -76.0678L198.488 -76.7881L-135.491 261.492L-134.779 262.212Z" fill="black"/><path d="M-126.927 262.212L207.053 -76.0678L206.341 -76.7881L-127.639 261.492L-126.927 262.212Z" fill="black"/><path d="M-119.074 262.212L214.905 -76.0678L214.194 -76.7881L-119.786 261.492L-119.074 262.212Z" fill="black"/></g></svg>