<svg width="217" height="140" viewBox="0 0 217 140" fill="none" xmlns="http://www.w3.org/2000/svg"><path d="M0 127H217V130C217 135.523 212.523 140 207 140H10C4.47716 140 0 135.523 0 130V127Z" fill="white"/><path d="M11 10C11 4.47715 15.4772 0 21 0H196C201.523 0 206 4.47715 206 10V128H11V10Z" fill="white"/><path fill-rule="evenodd" clip-rule="evenodd" d="M107.385 30L128 9H29C24.5817 9 21 12.5817 21 17V118L49 89.4766V30H107.385Z" fill="#9EDB3C"/><path d="M0.5 127.5H216.5V130C216.5 135.247 212.247 139.5 207 139.5H10C4.7533 139.5 0.5 135.247 0.5 130V127.5Z" stroke="black"/><mask id="mask0" mask-type="alpha" maskUnits="userSpaceOnUse" x="20" y="9" width="177" height="113"><path fill-rule="evenodd" clip-rule="evenodd" d="M26 9C22.6863 9 20 11.6863 20 15V122H49V30H168V122H197V15C197 11.6863 194.314 9 191 9H26Z" fill="#C4C4C4"/></mask><g mask="url(#mask0)"><path d="M191.503 192L525.482 -146.28L524.771 -147L190.791 191.28L191.503 192Z" fill="black"/><path d="M-83.3409 192L250.639 -146.28L249.927 -147L-84.0528 191.28L-83.3409 192Z" fill="black"/><path d="M-75.4883 192L258.491 -146.28L257.78 -147L-76.2001 191.28L-75.4883 192Z" fill="black"/><path d="M-67.6356 192L266.344 -146.28L265.632 -147L-68.3475 191.28L-67.6356 192Z" fill="black"/><path d="M-59.7829 192L274.197 -146.28L273.485 -147L-60.4948 191.28L-59.7829 192Z" fill="black"/><path d="M-51.9302 192L282.049 -146.28L281.338 -147L-52.6421 191.28L-51.9302 192Z" fill="black"/><path d="M-44.0776 192L289.902 -146.28L289.19 -147L-44.7894 191.28L-44.0776 192Z" fill="black"/><path d="M-36.2249 192L297.755 -146.28L297.043 -147L-36.9368 191.28L-36.2249 192Z" fill="black"/><path d="M-28.3722 192L305.607 -146.28L304.896 -147L-29.0841 191.28L-28.3722 192Z" fill="black"/><path d="M-20.5196 192L313.46 -146.28L312.748 -147L-21.2314 191.28L-20.5196 192Z" fill="black"/><path d="M-4.81415 192L329.166 -146.28L328.454 -147L-5.52606 191.28L-4.81415 192Z" fill="black"/><path d="M3.03851 192L337.018 -146.28L336.306 -147L2.3266 191.28L3.03851 192Z" fill="black"/><path d="M10.8912 192L344.871 -146.28L344.159 -147L10.1793 191.28L10.8912 192Z" fill="black"/><path d="M18.7438 192L352.724 -146.28L352.012 -147L18.032 191.28L18.7438 192Z" fill="black"/><path d="M26.5965 192L360.576 -146.28L359.864 -147L25.8846 191.28L26.5965 192Z" fill="black"/><path d="M34.4492 192L368.429 -146.28L367.717 -147L33.7374 191.28L34.4492 192Z" fill="black"/><path d="M42.3019 192L376.282 -146.28L375.57 -147L41.59 191.28L42.3019 192Z" fill="black"/><path d="M50.1545 192L384.134 -146.28L383.422 -147L49.4427 191.28L50.1545 192Z" fill="black"/><path d="M58.0072 192L391.987 -146.28L391.275 -147L57.2953 191.28L58.0072 192Z" fill="black"/><path d="M65.8599 192L399.84 -146.28L399.128 -147L65.148 191.28L65.8599 192Z" fill="black"/><path d="M81.5652 192L415.545 -146.28L414.833 -147L80.8534 191.28L81.5652 192Z" fill="black"/><path d="M89.4179 192L423.398 -146.28L422.686 -147L88.7061 191.28L89.4179 192Z" fill="black"/><path d="M97.2706 192L431.25 -146.28L430.538 -147L96.5587 191.28L97.2706 192Z" fill="black"/><path d="M105.123 192L439.103 -146.28L438.391 -147L104.411 191.28L105.123 192Z" fill="black"/><path d="M120.829 192L454.808 -146.28L454.096 -147L120.117 191.28L120.829 192Z" fill="black"/><path d="M128.681 192L462.661 -146.28L461.949 -147L127.969 191.28L128.681 192Z" fill="black"/><path d="M136.534 192L470.514 -146.28L469.802 -147L135.822 191.28L136.534 192Z" fill="black"/><path d="M144.387 192L478.366 -146.28L477.654 -147L143.675 191.28L144.387 192Z" fill="black"/><path d="M152.239 192L486.219 -146.28L485.507 -147L151.527 191.28L152.239 192Z" fill="black"/><path d="M160.092 192L494.072 -146.28L493.36 -147L159.38 191.28L160.092 192Z" fill="black"/><path d="M167.945 192L501.924 -146.28L501.212 -147L167.233 191.28L167.945 192Z" fill="black"/><path d="M215.061 192L549.04 -146.28L548.329 -147L214.349 191.28L215.061 192Z" fill="black"/><path d="M230.766 192L564.746 -146.28L564.034 -147L230.054 191.28L230.766 192Z" fill="black"/><path d="M246.471 192L580.451 -146.28L579.739 -147L245.76 191.28L246.471 192Z" fill="black"/><path d="M262.177 192L596.156 -146.28L595.445 -147L261.465 191.28L262.177 192Z" fill="black"/><path d="M285.735 192L619.714 -146.28L619.003 -147L285.023 191.28L285.735 192Z" fill="black"/><path d="M301.44 192L635.42 -146.28L634.708 -147L300.728 191.28L301.44 192Z" fill="black"/><path d="M317.145 192L651.125 -146.28L650.413 -147L316.434 191.28L317.145 192Z" fill="black"/><path d="M332.851 192L666.83 -146.28L666.119 -147L332.139 191.28L332.851 192Z" fill="black"/><path d="M348.556 192L682.536 -146.28L681.824 -147L347.844 191.28L348.556 192Z" fill="black"/><path d="M356.409 192L690.389 -146.28L689.677 -147L355.697 191.28L356.409 192Z" fill="black"/><path d="M372.114 192L706.094 -146.28L705.382 -147L371.402 191.28L372.114 192Z" fill="black"/><path d="M387.82 192L721.799 -146.28L721.087 -147L387.108 191.28L387.82 192Z" fill="black"/><path d="M403.525 192L737.505 -146.28L736.793 -147L402.813 191.28L403.525 192Z" fill="black"/><path d="M419.23 192L753.21 -146.28L752.498 -147L418.518 191.28L419.23 192Z" fill="black"/><path d="M474.199 192L808.179 -146.28L807.467 -147L473.487 191.28L474.199 192Z" fill="black"/><path d="M489.904 192L823.884 -146.28L823.172 -147L489.192 191.28L489.904 192Z" fill="black"/><path d="M505.61 192L839.589 -146.28L838.878 -147L504.898 191.28L505.61 192Z" fill="black"/><path d="M-91.1936 192L242.786 -146.28L242.074 -147L-91.9055 191.28L-91.1936 192Z" fill="black"/><path d="M-12.6668 192L321.313 -146.28L320.601 -147L-13.3787 191.28L-12.6668 192Z" fill="black"/><path d="M73.7125 192L407.692 -146.28L406.98 -147L73.0007 191.28L73.7125 192Z" fill="black"/><path d="M112.976 192L446.956 -146.28L446.244 -147L112.264 191.28L112.976 192Z" fill="black"/><path d="M175.797 192L509.777 -146.28L509.065 -147L175.086 191.28L175.797 192Z" fill="black"/><path d="M183.65 192L517.63 -146.28L516.918 -147L182.938 191.28L183.65 192Z" fill="black"/><path d="M199.355 192L533.335 -146.28L532.623 -147L198.643 191.28L199.355 192Z" fill="black"/><path d="M207.208 192L541.188 -146.28L540.476 -147L206.496 191.28L207.208 192Z" fill="black"/><path d="M222.913 192L556.893 -146.28L556.181 -147L222.202 191.28L222.913 192Z" fill="black"/><path d="M238.619 192L572.598 -146.28L571.887 -147L237.907 191.28L238.619 192Z" fill="black"/><path d="M254.324 192L588.304 -146.28L587.592 -147L253.612 191.28L254.324 192Z" fill="black"/><path d="M270.029 192L604.009 -146.28L603.297 -147L269.318 191.28L270.029 192Z" fill="black"/><path d="M277.882 192L611.862 -146.28L611.15 -147L277.17 191.28L277.882 192Z" fill="black"/><path d="M293.587 192L627.567 -146.28L626.855 -147L292.876 191.28L293.587 192Z" fill="black"/><path d="M309.293 192L643.272 -146.28L642.561 -147L308.581 191.28L309.293 192Z" fill="black"/><path d="M324.998 192L658.978 -146.28L658.266 -147L324.286 191.28L324.998 192Z" fill="black"/><path d="M340.703 192L674.683 -146.28L673.971 -147L339.992 191.28L340.703 192Z" fill="black"/><path d="M364.262 192L698.241 -146.28L697.529 -147L363.55 191.28L364.262 192Z" fill="black"/><path d="M379.967 192L713.947 -146.28L713.235 -147L379.255 191.28L379.967 192Z" fill="black"/><path d="M395.672 192L729.652 -146.28L728.94 -147L394.96 191.28L395.672 192Z" fill="black"/><path d="M411.378 192L745.357 -146.28L744.645 -147L410.666 191.28L411.378 192Z" fill="black"/><path d="M427.083 192L761.063 -146.28L760.351 -147L426.371 191.28L427.083 192Z" fill="black"/><path d="M434.936 192L768.915 -146.28L768.203 -147L434.224 191.28L434.936 192Z" fill="black"/><path d="M442.788 192L776.768 -146.28L776.056 -147L442.076 191.28L442.788 192Z" fill="black"/><path d="M450.641 192L784.621 -146.28L783.909 -147L449.929 191.28L450.641 192Z" fill="black"/><path d="M458.494 192L792.473 -146.28L791.761 -147L457.782 191.28L458.494 192Z" fill="black"/><path d="M466.346 192L800.326 -146.28L799.614 -147L465.634 191.28L466.346 192Z" fill="black"/><path d="M482.052 192L816.031 -146.28L815.319 -147L481.34 191.28L482.052 192Z" fill="black"/><path d="M497.757 192L831.737 -146.28L831.025 -147L497.045 191.28L497.757 192Z" fill="black"/><path d="M513.462 192L847.442 -146.28L846.73 -147L512.75 191.28L513.462 192Z" fill="black"/><path d="M521.315 192L855.295 -146.28L854.583 -147L520.603 191.28L521.315 192Z" fill="black"/><path d="M529.168 192L863.147 -146.28L862.435 -147L528.456 191.28L529.168 192Z" fill="black"/><path d="M537.02 192L871 -146.28L870.288 -147L536.309 191.28L537.02 192Z" fill="black"/><path d="M-444.592 192L-110.612 -146.28L-111.324 -147L-445.304 191.28L-444.592 192Z" fill="black"/><path d="M-719.435 192L-385.456 -146.28L-386.168 -147L-720.147 191.28L-719.435 192Z" fill="black"/><path d="M-711.583 192L-377.603 -146.28L-378.315 -147L-712.295 191.28L-711.583 192Z" fill="black"/><path d="M-703.73 192L-369.75 -146.28L-370.462 -147L-704.442 191.28L-703.73 192Z" fill="black"/><path d="M-695.877 192L-361.898 -146.28L-362.61 -147L-696.589 191.28L-695.877 192Z" fill="black"/><path d="M-688.025 192L-354.045 -146.28L-354.757 -147L-688.737 191.28L-688.025 192Z" fill="black"/><path d="M-680.172 192L-346.193 -146.28L-346.904 -147L-680.884 191.28L-680.172 192Z" fill="black"/><path d="M-672.319 192L-338.34 -146.28L-339.052 -147L-673.031 191.28L-672.319 192Z" fill="black"/><path d="M-664.467 192L-330.487 -146.28L-331.199 -147L-665.179 191.28L-664.467 192Z" fill="black"/><path d="M-656.614 192L-322.634 -146.28L-323.346 -147L-657.326 191.28L-656.614 192Z" fill="black"/><path d="M-640.909 192L-306.929 -146.28L-307.641 -147L-641.621 191.28L-640.909 192Z" fill="black"/><path d="M-633.056 192L-299.076 -146.28L-299.788 -147L-633.768 191.28L-633.056 192Z" fill="black"/><path d="M-625.203 192L-291.224 -146.28L-291.935 -147L-625.915 191.28L-625.203 192Z" fill="black"/><path d="M-617.351 192L-283.371 -146.28L-284.083 -147L-618.063 191.28L-617.351 192Z" fill="black"/><path d="M-609.498 192L-275.518 -146.28L-276.23 -147L-610.21 191.28L-609.498 192Z" fill="black"/><path d="M-601.645 192L-267.666 -146.28L-268.377 -147L-602.357 191.28L-601.645 192Z" fill="black"/><path d="M-593.793 192L-259.813 -146.28L-260.525 -147L-594.504 191.28L-593.793 192Z" fill="black"/><path d="M-585.94 192L-251.96 -146.28L-252.672 -147L-586.652 191.28L-585.94 192Z" fill="black"/><path d="M-578.087 192L-244.108 -146.28L-244.819 -147L-578.799 191.28L-578.087 192Z" fill="black"/><path d="M-570.235 192L-236.255 -146.28L-236.967 -147L-570.947 191.28L-570.235 192Z" fill="black"/><path d="M-554.529 192L-220.55 -146.28L-221.261 -147L-555.241 191.28L-554.529 192Z" fill="black"/><path d="M-546.677 192L-212.697 -146.28L-213.409 -147L-547.388 191.28L-546.677 192Z" fill="black"/><path d="M-538.824 192L-204.844 -146.28L-205.556 -147L-539.536 191.28L-538.824 192Z" fill="black"/><path d="M-530.971 192L-196.992 -146.28L-197.703 -147L-531.683 191.28L-530.971 192Z" fill="black"/><path d="M-515.266 192L-181.286 -146.28L-181.998 -147L-515.978 191.28L-515.266 192Z" fill="black"/><path d="M-507.413 192L-173.434 -146.28L-174.145 -147L-508.125 191.28L-507.413 192Z" fill="black"/><path d="M-499.561 192L-165.581 -146.28L-166.293 -147L-500.272 191.28L-499.561 192Z" fill="black"/><path d="M-491.708 192L-157.728 -146.28L-158.44 -147L-492.42 191.28L-491.708 192Z" fill="black"/><path d="M-483.855 192L-149.876 -146.28L-150.587 -147L-484.567 191.28L-483.855 192Z" fill="black"/><path d="M-476.003 192L-142.023 -146.28L-142.735 -147L-476.714 191.28L-476.003 192Z" fill="black"/><path d="M-468.15 192L-134.17 -146.28L-134.882 -147L-468.862 191.28L-468.15 192Z" fill="black"/><path d="M-421.034 192L-87.0541 -146.28L-87.766 -147L-421.746 191.28L-421.034 192Z" fill="black"/><path d="M-405.328 192L-71.3488 -146.28L-72.0606 -147L-406.04 191.28L-405.328 192Z" fill="black"/><path d="M-389.623 192L-55.6434 -146.28L-56.3553 -147L-390.335 191.28L-389.623 192Z" fill="black"/><path d="M-373.918 192L-39.938 -146.28L-40.65 -147L-374.63 191.28L-373.918 192Z" fill="black"/><path d="M-350.36 192L-16.3801 -146.28L-17.0919 -147L-351.072 191.28L-350.36 192Z" fill="black"/><path d="M-334.654 192L-0.674744 -146.28L-1.3866 -147L-335.366 191.28L-334.654 192Z" fill="black"/><path d="M-318.949 192L15.0306 -146.28L14.3188 -147L-319.661 191.28L-318.949 192Z" fill="black"/><path d="M-303.244 192L30.736 -146.28L30.0241 -147L-303.956 191.28L-303.244 192Z" fill="black"/><path d="M-287.538 192L46.4413 -146.28L45.7295 -147L-288.25 191.28L-287.538 192Z" fill="black"/><path d="M-279.686 192L54.294 -146.28L53.5821 -147L-280.398 191.28L-279.686 192Z" fill="black"/><path d="M-263.98 192L69.9993 -146.28L69.2875 -147L-264.692 191.28L-263.98 192Z" fill="black"/><path d="M-248.275 192L85.7047 -146.28L84.9929 -147L-248.987 191.28L-248.275 192Z" fill="black"/><path d="M-232.57 192L101.41 -146.28L100.698 -147L-233.281 191.28L-232.57 192Z" fill="black"/><path d="M-216.864 192L117.115 -146.28L116.404 -147L-217.576 191.28L-216.864 192Z" fill="black"/><path d="M-161.896 192L172.084 -146.28L171.372 -147L-162.607 191.28L-161.896 192Z" fill="black"/><path d="M-146.19 192L187.789 -146.28L187.078 -147L-146.902 191.28L-146.19 192Z" fill="black"/><path d="M-130.485 192L203.495 -146.28L202.783 -147L-131.197 191.28L-130.485 192Z" fill="black"/><path d="M-727.288 192L-393.308 -146.28L-394.02 -147L-728 191.28L-727.288 192Z" fill="black"/><path d="M-648.761 192L-314.782 -146.28L-315.494 -147L-649.473 191.28L-648.761 192Z" fill="black"/><path d="M-562.382 192L-228.402 -146.28L-229.114 -147L-563.094 191.28L-562.382 192Z" fill="black"/><path d="M-523.119 192L-189.139 -146.28L-189.851 -147L-523.83 191.28L-523.119 192Z" fill="black"/><path d="M-460.297 192L-126.318 -146.28L-127.029 -147L-461.009 191.28L-460.297 192Z" fill="black"/><path d="M-452.444 192L-118.465 -146.28L-119.177 -147L-453.156 191.28L-452.444 192Z" fill="black"/><path d="M-436.739 192L-102.76 -146.28L-103.471 -147L-437.451 191.28L-436.739 192Z" fill="black"/><path d="M-428.886 192L-94.9069 -146.28L-95.6187 -147L-429.598 191.28L-428.886 192Z" fill="black"/><path d="M-413.181 192L-79.2015 -146.28L-79.9133 -147L-413.893 191.28L-413.181 192Z" fill="black"/><path d="M-397.476 192L-63.4962 -146.28L-64.208 -147L-398.188 191.28L-397.476 192Z" fill="black"/><path d="M-381.771 192L-47.7908 -146.28L-48.5027 -147L-382.482 191.28L-381.771 192Z" fill="black"/><path d="M-366.065 192L-32.0854 -146.28L-32.7972 -147L-366.777 191.28L-366.065 192Z" fill="black"/><path d="M-358.212 192L-24.2328 -146.28L-24.9446 -147L-358.924 191.28L-358.212 192Z" fill="black"/><path d="M-342.507 192L-8.52747 -146.28L-9.23932 -147L-343.219 191.28L-342.507 192Z" fill="black"/><path d="M-326.802 192L7.17798 -146.28L6.46606 -147L-327.514 191.28L-326.802 192Z" fill="black"/><path d="M-311.096 192L22.8833 -146.28L22.1714 -147L-311.808 191.28L-311.096 192Z" fill="black"/><path d="M-295.391 192L38.5886 -146.28L37.8768 -147L-296.103 191.28L-295.391 192Z" fill="black"/><path d="M-271.833 192L62.1467 -146.28L61.4348 -147L-272.545 191.28L-271.833 192Z" fill="black"/><path d="M-256.128 192L77.852 -146.28L77.1401 -147L-256.839 191.28L-256.128 192Z" fill="black"/><path d="M-240.422 192L93.5573 -146.28L92.8455 -147L-241.134 191.28L-240.422 192Z" fill="black"/><path d="M-224.717 192L109.263 -146.28L108.551 -147L-225.429 191.28L-224.717 192Z" fill="black"/><path d="M-209.012 192L124.968 -146.28L124.256 -147L-209.723 191.28L-209.012 192Z" fill="black"/><path d="M-201.159 192L132.821 -146.28L132.109 -147L-201.871 191.28L-201.159 192Z" fill="black"/><path d="M-193.306 192L140.673 -146.28L139.962 -147L-194.018 191.28L-193.306 192Z" fill="black"/><path d="M-185.454 192L148.526 -146.28L147.814 -147L-186.166 191.28L-185.454 192Z" fill="black"/><path d="M-177.601 192L156.379 -146.28L155.667 -147L-178.313 191.28L-177.601 192Z" fill="black"/><path d="M-169.748 192L164.231 -146.28L163.52 -147L-170.46 191.28L-169.748 192Z" fill="black"/><path d="M-154.043 192L179.937 -146.28L179.225 -147L-154.755 191.28L-154.043 192Z" fill="black"/><path d="M-138.338 192L195.642 -146.28L194.93 -147L-139.049 191.28L-138.338 192Z" fill="black"/><path d="M-122.632 192L211.347 -146.28L210.636 -147L-123.344 191.28L-122.632 192Z" fill="black"/><path d="M-114.779 192L219.2 -146.28L218.488 -147L-115.491 191.28L-114.779 192Z" fill="black"/><path d="M-106.927 192L227.053 -146.28L226.341 -147L-107.639 191.28L-106.927 192Z" fill="black"/><path d="M-99.0742 192L234.905 -146.28L234.194 -147L-99.786 191.28L-99.0742 192Z" fill="black"/></g><path d="M11.5 10C11.5 4.7533 15.7533 0.5 21 0.5H196C201.247 0.5 205.5 4.7533 205.5 10V127.5H11.5V10Z" stroke="black"/><path d="M20.5 15C20.5 11.9624 22.9624 9.5 26 9.5H191C194.038 9.5 196.5 11.9624 196.5 15V121.5H20.5V15Z" stroke="black"/><path d="M49.5 30.5H167.5V121.5H49.5V30.5Z" stroke="black"/><path d="M119.421 93.7534L119.16 93.2807L118.709 93.578C115.003 96.0206 110.87 97.2421 106.352 97.2421C99.9679 97.2421 95.4576 95.0498 92.5375 91.7372C89.6081 88.4141 88.2346 83.9122 88.2346 79.2262C88.2346 72.491 90.2312 67.0856 94.244 62.9595C98.2623 58.8277 103.347 56.7579 109.483 56.7579C115.099 56.7579 119.528 58.304 122.822 61.2976C126.115 64.2914 127.765 68.1175 127.765 72.9276C127.765 76.954 127.057 79.9275 125.661 81.9235C124.234 83.908 122.72 84.8077 121.071 84.8077C120.127 84.8077 119.519 84.5805 119.145 84.221C118.775 83.8651 118.55 83.2979 118.55 82.4299C118.55 82.431 118.551 82.4175 118.554 82.3789C118.557 82.3438 118.561 82.2972 118.567 82.2379C118.58 82.1193 118.598 81.9593 118.622 81.7554C118.631 81.6797 118.641 81.5983 118.651 81.5111C118.696 81.1332 118.754 80.6474 118.82 80.0556L121.125 66.277L121.222 65.6946H120.632H114.481H114.088L113.995 66.0755L113.649 67.4864H113.275C112.14 65.7671 110.182 64.9344 107.506 64.9344C103.893 64.9344 100.952 66.3614 98.6625 69.1341L98.6625 69.1341L98.6586 69.1389C96.4403 71.8945 95.3078 75.2107 95.3078 79.009C95.3078 82.1625 96.155 84.7641 97.7753 86.5837C99.4024 88.4107 101.758 89.3914 104.65 89.3914C107.616 89.3914 110.075 88.3073 111.868 86.0792H112.353C113.528 88.3636 116.031 89.3914 119.588 89.3914C123.691 89.3914 126.923 87.8036 129.166 84.676L129.168 84.6726C131.381 81.5313 132.5 77.6243 132.5 72.9276C132.5 66.7663 130.303 61.7902 125.899 58.0498C121.568 54.3245 116.231 52.5 109.922 52.5C102.115 52.5 95.7178 55.0412 90.8341 60.1466C85.9576 65.1902 83.5 71.6174 83.5 79.2805C83.5 85.905 85.5142 91.3087 89.6347 95.3827C93.7542 99.4555 99.2714 101.5 106.078 101.5C111.603 101.5 116.533 100.119 120.851 97.2916L121.239 97.0373L121.014 96.6312L119.421 93.7534ZM110.334 81.2785L110.331 81.2815C109.313 82.7917 108.032 83.5045 106.462 83.5045C105.385 83.5045 104.55 83.1237 103.971 82.3914C103.38 81.643 103.009 80.4674 103.008 78.7978C103.062 76.5435 103.59 74.6818 104.577 73.0875C105.602 71.5203 106.884 70.767 108.439 70.767C109.668 70.767 110.506 71.157 111.056 71.8743C111.626 72.6172 111.949 73.7908 111.949 75.4796C111.949 77.789 111.419 79.6943 110.334 81.2785Z" fill="#9EDB3C" stroke="black"/><path d="M82.5224 127.5C82.775 130.303 85.131 132.5 88 132.5H129C131.869 132.5 134.225 130.303 134.478 127.5H82.5224Z" stroke="black"/></svg>