<svg width="146" height="172" viewBox="0 0 146 172" fill="none" xmlns="http://www.w3.org/2000/svg"><path d="M104.135 98.101C122.195 80.0411 122.195 50.7602 104.135 32.7003L38.7344 98.101C56.7943 116.161 86.0752 116.161 104.135 98.101Z" fill="#9EDB3C"/><path d="M38.392 81.4899L38.2626 81.9729L38.7456 82.1023L66.3113 89.4885L66.7943 89.6179L66.9237 89.135L67.4938 87.0075C69.7412 90.1468 72.9861 92.22 76.9059 93.2704C82.0497 94.6486 87.0844 93.9248 91.4111 90.6459C95.721 87.3797 99.2739 81.6202 101.575 73.0305C103.877 64.4407 103.684 57.66 101.59 52.66C99.4875 47.6406 95.4943 44.4784 90.3491 43.0998C85.2035 41.721 80.1806 42.4676 75.8668 45.7686C71.5703 49.0563 68.0305 54.8366 65.7291 63.4255C63.6149 71.3158 63.5947 77.6621 65.2197 82.5025L58.1051 80.5962L69.2559 38.9811L69.3853 38.4981L68.9023 38.3687L61.5198 36.3906L61.3716 36.3509L61.2266 36.4011L49.5428 40.452L49.2922 40.5389L49.2236 40.795L47.5552 47.0218L47.3121 47.9289L48.2004 47.6241L59.8077 43.6409L60.5319 43.8349L51.179 78.7403L40.419 75.8572L39.936 75.7278L39.8066 76.2107L38.392 81.4899ZM78.5793 87.0252C74.8439 86.0243 72.6127 83.5143 71.6729 79.8086C70.7238 76.0659 71.0961 71.0999 72.6552 65.2813C74.2234 59.4285 76.3886 54.9247 79.0844 52.1496C81.7534 49.4021 84.9405 48.344 88.6757 49.3449C92.4465 50.3553 94.6936 52.8713 95.6391 56.5863C96.5943 60.3392 96.2177 65.3218 94.6494 71.1746C93.0903 76.9933 90.9298 81.4797 88.2286 84.2438C85.5545 86.9801 82.3503 88.0357 78.5793 87.0252Z" stroke="black"/><circle cx="71.4339" cy="65.4007" r="49.6644" stroke="black"/><circle cx="71.4328" cy="65.4007" r="45.7453" stroke="black"/><mask id="mask0" mask-type="alpha" maskUnits="userSpaceOnUse" x="45" y="115" width="101" height="20"><rect x="45.5664" y="115.565" width="100.329" height="18.8116" fill="#C4C4C4"/></mask><g mask="url(#mask0)"><path d="M373.809 -43.0247L372.122 -306.707L371.56 -306.711L373.247 -43.028L373.809 -43.0247Z" fill="black"/><path d="M266.006 64.7783L264.319 -198.905L263.757 -198.908L265.444 64.7749L266.006 64.7783Z" fill="black"/><path d="M269.086 61.6982L267.399 -201.985L266.838 -201.988L268.524 61.6949L269.086 61.6982Z" fill="black"/><path d="M272.166 58.6181L270.479 -205.065L269.918 -205.068L271.604 58.6148L272.166 58.6181Z" fill="black"/><path d="M275.246 55.538L273.559 -208.145L272.998 -208.148L274.684 55.5347L275.246 55.538Z" fill="black"/><path d="M278.326 52.4579L276.64 -211.225L276.078 -211.228L277.764 52.4546L278.326 52.4579Z" fill="black"/><path d="M281.406 49.3778L279.72 -214.305L279.158 -214.308L280.845 49.3745L281.406 49.3778Z" fill="black"/><path d="M284.486 46.2978L282.8 -217.385L282.238 -217.388L283.925 46.2945L284.486 46.2978Z" fill="black"/><path d="M287.566 43.2177L285.88 -220.465L285.318 -220.468L287.005 43.2144L287.566 43.2177Z" fill="black"/><path d="M290.647 40.1376L288.96 -223.545L288.398 -223.548L290.085 40.1343L290.647 40.1376Z" fill="black"/><path d="M296.807 33.9774L295.12 -229.705L294.558 -229.709L296.245 33.9741L296.807 33.9774Z" fill="black"/><path d="M299.887 30.8973L298.2 -232.785L297.638 -232.789L299.325 30.8941L299.887 30.8973Z" fill="black"/><path d="M302.967 27.8172L301.28 -235.866L300.718 -235.869L302.405 27.814L302.967 27.8172Z" fill="black"/><path d="M306.047 24.7372L304.36 -238.946L303.799 -238.949L305.485 24.7339L306.047 24.7372Z" fill="black"/><path d="M309.127 21.6571L307.44 -242.026L306.879 -242.029L308.565 21.6538L309.127 21.6571Z" fill="black"/><path d="M312.207 18.577L310.521 -245.106L309.959 -245.109L311.645 18.5737L312.207 18.577Z" fill="black"/><path d="M315.287 15.4969L313.601 -248.186L313.039 -248.189L314.725 15.4936L315.287 15.4969Z" fill="black"/><path d="M318.367 12.4168L316.681 -251.266L316.119 -251.269L317.806 12.4135L318.367 12.4168Z" fill="black"/><path d="M321.447 9.33675L319.761 -254.346L319.199 -254.349L320.886 9.33345L321.447 9.33675Z" fill="black"/><path d="M324.527 6.25667L322.841 -257.426L322.279 -257.429L323.966 6.25337L324.527 6.25667Z" fill="black"/><path d="M330.688 0.0965028L329.001 -263.586L328.439 -263.59L330.126 0.0932011L330.688 0.0965028Z" fill="black"/><path d="M333.768 -2.98358L332.081 -266.666L331.519 -266.67L333.206 -2.98688L333.768 -2.98358Z" fill="black"/><path d="M336.848 -6.06366L335.161 -269.746L334.599 -269.75L336.286 -6.06697L336.848 -6.06366Z" fill="black"/><path d="M339.928 -9.14375L338.241 -272.827L337.68 -272.83L339.366 -9.14705L339.928 -9.14375Z" fill="black"/><path d="M346.088 -15.3039L344.401 -278.987L343.84 -278.99L345.526 -15.3072L346.088 -15.3039Z" fill="black"/><path d="M349.168 -18.384L347.481 -282.067L346.92 -282.07L348.606 -18.3873L349.168 -18.384Z" fill="black"/><path d="M352.248 -21.4641L350.562 -285.147L350 -285.15L351.686 -21.4674L352.248 -21.4641Z" fill="black"/><path d="M355.328 -24.5442L353.642 -288.227L353.08 -288.23L354.767 -24.5475L355.328 -24.5442Z" fill="black"/><path d="M358.408 -27.6242L356.722 -291.307L356.16 -291.31L357.847 -27.6276L358.408 -27.6242Z" fill="black"/><path d="M361.488 -30.7043L359.802 -294.387L359.24 -294.39L360.927 -30.7076L361.488 -30.7043Z" fill="black"/><path d="M364.569 -33.7844L362.882 -297.467L362.32 -297.47L364.007 -33.7877L364.569 -33.7844Z" fill="black"/><path d="M383.049 -52.2649L381.362 -315.948L380.801 -315.951L382.487 -52.2682L383.049 -52.2649Z" fill="black"/><path d="M389.209 -58.4251L387.523 -322.108L386.961 -322.111L388.647 -58.4284L389.209 -58.4251Z" fill="black"/><path d="M395.369 -64.5853L393.683 -328.268L393.121 -328.271L394.808 -64.5886L395.369 -64.5853Z" fill="black"/><path d="M401.53 -70.7454L399.843 -334.428L399.281 -334.431L400.968 -70.7487L401.53 -70.7454Z" fill="black"/><path d="M410.77 -79.9856L409.083 -343.668L408.521 -343.672L410.208 -79.9889L410.77 -79.9856Z" fill="black"/><path d="M416.93 -86.1458L415.243 -349.829L414.682 -349.832L416.368 -86.1491L416.93 -86.1458Z" fill="black"/><path d="M423.09 -92.306L421.403 -355.989L420.842 -355.992L422.528 -92.3093L423.09 -92.306Z" fill="black"/><path d="M429.25 -98.4661L427.564 -362.149L427.002 -362.152L428.689 -98.4695L429.25 -98.4661Z" fill="black"/><path d="M435.41 -104.626L433.724 -368.309L433.162 -368.312L434.849 -104.63L435.41 -104.626Z" fill="black"/><path d="M438.491 -107.706L436.804 -371.389L436.242 -371.392L437.929 -107.71L438.491 -107.706Z" fill="black"/><path d="M444.651 -113.867L442.964 -377.549L442.402 -377.553L444.089 -113.87L444.651 -113.867Z" fill="black"/><path d="M450.811 -120.027L449.124 -383.71L448.563 -383.713L450.249 -120.03L450.811 -120.027Z" fill="black"/><path d="M456.971 -126.187L455.284 -389.87L454.723 -389.873L456.409 -126.19L456.971 -126.187Z" fill="black"/><path d="M463.131 -132.347L461.445 -396.03L460.883 -396.033L462.569 -132.35L463.131 -132.347Z" fill="black"/><path d="M484.692 -153.908L483.005 -417.59L482.443 -417.594L484.13 -153.911L484.692 -153.908Z" fill="black"/><path d="M490.852 -160.068L489.165 -423.751L488.604 -423.754L490.29 -160.071L490.852 -160.068Z" fill="black"/><path d="M497.012 -166.228L495.326 -429.911L494.764 -429.914L496.45 -166.231L497.012 -166.228Z" fill="black"/><path d="M262.926 67.8583L261.239 -195.824L260.677 -195.828L262.364 67.855L262.926 67.8583Z" fill="black"/><path d="M293.727 37.0575L292.04 -226.625L291.478 -226.629L293.165 37.0542L293.727 37.0575Z" fill="black"/><path d="M327.608 3.17659L325.921 -260.506L325.359 -260.509L327.046 3.17328L327.608 3.17659Z" fill="black"/><path d="M343.008 -12.2238L341.321 -275.907L340.76 -275.91L342.446 -12.2271L343.008 -12.2238Z" fill="black"/><path d="M367.649 -36.8645L365.962 -300.547L365.4 -300.551L367.087 -36.8678L367.649 -36.8645Z" fill="black"/><path d="M370.729 -39.9446L369.042 -303.627L368.48 -303.631L370.167 -39.9479L370.729 -39.9446Z" fill="black"/><path d="M376.889 -46.1048L375.202 -309.788L374.64 -309.791L376.327 -46.1081L376.889 -46.1048Z" fill="black"/><path d="M379.969 -49.1848L378.282 -312.868L377.721 -312.871L379.407 -49.1881L379.969 -49.1848Z" fill="black"/><path d="M386.129 -55.345L384.442 -319.028L383.881 -319.031L385.567 -55.3483L386.129 -55.345Z" fill="black"/><path d="M392.289 -61.5052L390.603 -325.188L390.041 -325.191L391.728 -61.5085L392.289 -61.5052Z" fill="black"/><path d="M398.449 -67.6653L396.763 -331.348L396.201 -331.351L397.888 -67.6686L398.449 -67.6653Z" fill="black"/><path d="M404.61 -73.8255L402.923 -337.508L402.361 -337.512L404.048 -73.8288L404.61 -73.8255Z" fill="black"/><path d="M407.69 -76.9056L406.003 -340.588L405.441 -340.592L407.128 -76.9089L407.69 -76.9056Z" fill="black"/><path d="M413.85 -83.0657L412.163 -346.748L411.601 -346.752L413.288 -83.069L413.85 -83.0657Z" fill="black"/><path d="M420.01 -89.2259L418.323 -352.909L417.762 -352.912L419.448 -89.2292L420.01 -89.2259Z" fill="black"/><path d="M426.17 -95.3861L424.484 -359.069L423.922 -359.072L425.608 -95.3894L426.17 -95.3861Z" fill="black"/><path d="M432.33 -101.546L430.644 -365.229L430.082 -365.232L431.769 -101.55L432.33 -101.546Z" fill="black"/><path d="M441.571 -110.787L439.884 -374.469L439.322 -374.473L441.009 -110.79L441.571 -110.787Z" fill="black"/><path d="M447.731 -116.947L446.044 -380.629L445.482 -380.633L447.169 -116.95L447.731 -116.947Z" fill="black"/><path d="M453.891 -123.107L452.204 -386.79L451.643 -386.793L453.329 -123.11L453.891 -123.107Z" fill="black"/><path d="M460.051 -129.267L458.364 -392.95L457.803 -392.953L459.489 -129.27L460.051 -129.267Z" fill="black"/><path d="M466.211 -135.427L464.525 -399.11L463.963 -399.113L465.65 -135.43L466.211 -135.427Z" fill="black"/><path d="M469.291 -138.507L467.605 -402.19L467.043 -402.193L468.73 -138.511L469.291 -138.507Z" fill="black"/><path d="M472.371 -141.587L470.685 -405.27L470.123 -405.273L471.81 -141.591L472.371 -141.587Z" fill="black"/><path d="M475.452 -144.667L473.765 -408.35L473.203 -408.353L474.89 -144.671L475.452 -144.667Z" fill="black"/><path d="M478.532 -147.748L476.845 -411.43L476.283 -411.434L477.97 -147.751L478.532 -147.748Z" fill="black"/><path d="M481.612 -150.828L479.925 -414.51L479.363 -414.514L481.05 -150.831L481.612 -150.828Z" fill="black"/><path d="M487.772 -156.988L486.085 -420.671L485.523 -420.674L487.21 -156.991L487.772 -156.988Z" fill="black"/><path d="M493.932 -163.148L492.245 -426.831L491.684 -426.834L493.37 -163.151L493.932 -163.148Z" fill="black"/><path d="M500.092 -169.308L498.406 -432.991L497.844 -432.994L499.53 -169.311L500.092 -169.308Z" fill="black"/><path d="M503.172 -172.388L501.486 -436.071L500.924 -436.074L502.611 -172.391L503.172 -172.388Z" fill="black"/><path d="M506.252 -175.468L504.566 -439.151L504.004 -439.154L505.691 -175.472L506.252 -175.468Z" fill="black"/><path d="M509.332 -178.548L507.646 -442.231L507.084 -442.234L508.771 -178.552L509.332 -178.548Z" fill="black"/><path d="M124.311 206.473L122.624 -57.2098L122.063 -57.2131L123.749 206.47L124.311 206.473Z" fill="black"/><path d="M16.5082 314.276L14.8216 50.5932L14.2598 50.5899L15.9465 314.273L16.5082 314.276Z" fill="black"/><path d="M19.5883 311.196L17.9016 47.5131L17.3399 47.5098L19.0265 311.193L19.5883 311.196Z" fill="black"/><path d="M22.6683 308.116L20.9817 44.433L20.42 44.4297L22.1066 308.112L22.6683 308.116Z" fill="black"/><path d="M25.7484 305.036L24.0618 41.3529L23.5001 41.3496L25.1867 305.032L25.7484 305.036Z" fill="black"/><path d="M28.8285 301.956L27.1419 38.2729L26.5801 38.2695L28.2668 301.952L28.8285 301.956Z" fill="black"/><path d="M31.9086 298.876L30.2219 35.1928L29.6602 35.1894L31.3469 298.872L31.9086 298.876Z" fill="black"/><path d="M34.9887 295.795L33.3021 32.1127L32.7403 32.1093L34.4269 295.792L34.9887 295.795Z" fill="black"/><path d="M38.0688 292.715L36.3821 29.0326L35.8204 29.0293L37.507 292.712L38.0688 292.715Z" fill="black"/><path d="M41.1488 289.635L39.4622 25.9525L38.9005 25.9492L40.5871 289.632L41.1488 289.635Z" fill="black"/><path d="M47.309 283.475L45.6224 19.7923L45.0607 19.789L46.7473 283.472L47.309 283.475Z" fill="black"/><path d="M50.3891 280.395L48.7024 16.7123L48.1407 16.7089L49.8273 280.392L50.3891 280.395Z" fill="black"/><path d="M53.4692 277.315L51.7826 13.6322L51.2208 13.6288L52.9074 277.312L53.4692 277.315Z" fill="black"/><path d="M56.5493 274.235L54.8626 10.5521L54.3009 10.5488L55.9875 274.232L56.5493 274.235Z" fill="black"/><path d="M59.6293 271.155L57.9427 7.47199L57.381 7.46865L59.0676 271.151L59.6293 271.155Z" fill="black"/><path d="M62.7094 268.075L61.0228 4.3919L60.4611 4.38857L62.1477 268.071L62.7094 268.075Z" fill="black"/><path d="M65.7896 264.995L64.1029 1.31182L63.5412 1.30849L65.2278 264.991L65.7896 264.995Z" fill="black"/><path d="M68.8696 261.915L67.183 -1.76826L66.6213 -1.7716L68.3078 261.911L68.8696 261.915Z" fill="black"/><path d="M71.9497 258.834L70.2631 -4.84835L69.7014 -4.85168L71.388 258.831L71.9497 258.834Z" fill="black"/><path d="M75.0298 255.754L73.3432 -7.92843L72.7814 -7.93172L74.468 255.751L75.0298 255.754Z" fill="black"/><path d="M81.19 249.594L79.5033 -14.0886L78.9416 -14.0919L80.6282 249.591L81.19 249.594Z" fill="black"/><path d="M84.2701 246.514L82.5834 -17.1687L82.0216 -17.172L83.7083 246.511L84.2701 246.514Z" fill="black"/><path d="M87.3501 243.434L85.6635 -20.2488L85.1017 -20.2521L86.7884 243.431L87.3501 243.434Z" fill="black"/><path d="M90.4302 240.354L88.7436 -23.3288L88.1818 -23.3321L89.8685 240.351L90.4302 240.354Z" fill="black"/><path d="M96.5903 234.194L94.9037 -29.489L94.342 -29.4923L96.0286 234.19L96.5903 234.194Z" fill="black"/><path d="M99.6704 231.114L97.9838 -32.5691L97.4221 -32.5724L99.1087 231.11L99.6704 231.114Z" fill="black"/><path d="M102.751 228.034L101.064 -35.6492L100.502 -35.6525L102.189 228.03L102.751 228.034Z" fill="black"/><path d="M105.831 224.954L104.144 -38.7293L103.582 -38.7326L105.269 224.95L105.831 224.954Z" fill="black"/><path d="M108.911 221.873L107.224 -41.8093L106.662 -41.8126L108.349 221.87L108.911 221.873Z" fill="black"/><path d="M111.991 218.793L110.304 -44.8894L109.742 -44.8927L111.429 218.79L111.991 218.793Z" fill="black"/><path d="M115.071 215.713L113.384 -47.9695L112.822 -47.9728L114.509 215.71L115.071 215.713Z" fill="black"/><path d="M133.551 197.233L131.865 -66.45L131.303 -66.4533L132.99 197.229L133.551 197.233Z" fill="black"/><path d="M139.712 191.073L138.025 -72.6102L137.463 -72.6135L139.15 191.069L139.712 191.073Z" fill="black"/><path d="M145.872 184.912L144.185 -78.7704L143.623 -78.7736L145.31 184.909L145.872 184.912Z" fill="black"/><path d="M152.032 178.752L150.345 -84.9305L149.783 -84.9338L151.47 178.749L152.032 178.752Z" fill="black"/><path d="M161.272 169.512L159.585 -94.1707L159.024 -94.1741L160.71 169.509L161.272 169.512Z" fill="black"/><path d="M167.432 163.352L165.746 -100.331L165.184 -100.334L166.871 163.349L167.432 163.352Z" fill="black"/><path d="M173.592 157.192L171.906 -106.491L171.344 -106.494L173.031 157.188L173.592 157.192Z" fill="black"/><path d="M179.753 151.032L178.066 -112.651L177.504 -112.655L179.191 151.028L179.753 151.032Z" fill="black"/><path d="M185.913 144.871L184.226 -118.811L183.664 -118.815L185.351 144.868L185.913 144.871Z" fill="black"/><path d="M188.993 141.791L187.306 -121.891L186.744 -121.895L188.431 141.788L188.993 141.791Z" fill="black"/><path d="M195.153 135.631L193.466 -128.052L192.905 -128.055L194.591 135.628L195.153 135.631Z" fill="black"/><path d="M201.313 129.471L199.627 -134.212L199.065 -134.215L200.751 129.468L201.313 129.471Z" fill="black"/><path d="M207.473 123.311L205.787 -140.372L205.225 -140.375L206.912 123.307L207.473 123.311Z" fill="black"/><path d="M213.634 117.151L211.947 -146.532L211.385 -146.535L213.072 117.147L213.634 117.151Z" fill="black"/><path d="M235.194 95.59L233.507 -168.093L232.946 -168.096L234.632 95.5867L235.194 95.59Z" fill="black"/><path d="M241.354 89.4299L239.668 -174.253L239.106 -174.256L240.793 89.4266L241.354 89.4299Z" fill="black"/><path d="M247.514 83.2697L245.828 -180.413L245.266 -180.416L246.953 83.2664L247.514 83.2697Z" fill="black"/><path d="M13.4281 317.356L11.7415 53.6732L11.1797 53.67L12.8664 317.353L13.4281 317.356Z" fill="black"/><path d="M44.2289 286.555L42.5423 22.8724L41.9806 22.8691L43.6672 286.552L44.2289 286.555Z" fill="black"/><path d="M78.1099 252.674L76.4232 -11.0085L75.8615 -11.0118L77.5481 252.671L78.1099 252.674Z" fill="black"/><path d="M93.5103 237.274L91.8236 -26.4089L91.2618 -26.4122L92.9486 237.271L93.5103 237.274Z" fill="black"/><path d="M118.151 212.633L116.464 -51.0496L115.903 -51.0529L117.589 212.63L118.151 212.633Z" fill="black"/><path d="M121.231 209.553L119.544 -54.1297L118.983 -54.133L120.669 209.55L121.231 209.553Z" fill="black"/><path d="M127.391 203.393L125.705 -60.2898L125.143 -60.2931L126.829 203.39L127.391 203.393Z" fill="black"/><path d="M130.471 200.313L128.785 -63.3699L128.223 -63.3732L129.91 200.31L130.471 200.313Z" fill="black"/><path d="M136.631 194.153L134.945 -69.5301L134.383 -69.5334L136.07 194.149L136.631 194.153Z" fill="black"/><path d="M142.792 187.993L141.105 -75.6902L140.543 -75.6936L142.23 187.989L142.792 187.993Z" fill="black"/><path d="M148.952 181.832L147.265 -81.8504L146.703 -81.8537L148.39 181.829L148.952 181.832Z" fill="black"/><path d="M155.112 175.672L153.425 -88.0106L152.864 -88.0139L154.55 175.669L155.112 175.672Z" fill="black"/><path d="M158.192 172.592L156.505 -91.0906L155.944 -91.094L157.63 172.589L158.192 172.592Z" fill="black"/><path d="M164.352 166.432L162.666 -97.2508L162.104 -97.2541L163.79 166.429L164.352 166.432Z" fill="black"/><path d="M170.512 160.272L168.826 -103.411L168.264 -103.414L169.951 160.268L170.512 160.272Z" fill="black"/><path d="M176.673 154.112L174.986 -109.571L174.424 -109.574L176.111 154.108L176.673 154.112Z" fill="black"/><path d="M182.833 147.951L181.146 -115.731L180.584 -115.735L182.271 147.948L182.833 147.951Z" fill="black"/><path d="M192.073 138.711L190.386 -124.972L189.825 -124.975L191.511 138.708L192.073 138.711Z" fill="black"/><path d="M198.233 132.551L196.546 -131.132L195.985 -131.135L197.671 132.548L198.233 132.551Z" fill="black"/><path d="M204.393 126.391L202.707 -137.292L202.145 -137.295L203.832 126.388L204.393 126.391Z" fill="black"/><path d="M210.553 120.231L208.867 -143.452L208.305 -143.455L209.992 120.227L210.553 120.231Z" fill="black"/><path d="M216.714 114.071L215.027 -149.612L214.465 -149.616L216.152 114.067L216.714 114.071Z" fill="black"/><path d="M219.794 110.99L218.107 -152.692L217.545 -152.696L219.232 110.987L219.794 110.99Z" fill="black"/><path d="M222.874 107.91L221.187 -155.772L220.625 -155.776L222.312 107.907L222.874 107.91Z" fill="black"/><path d="M225.954 104.83L224.267 -158.852L223.705 -158.856L225.392 104.827L225.954 104.83Z" fill="black"/><path d="M229.034 101.75L227.347 -161.933L226.786 -161.936L228.472 101.747L229.034 101.75Z" fill="black"/><path d="M232.114 98.6701L230.427 -165.013L229.866 -165.016L231.552 98.6668L232.114 98.6701Z" fill="black"/><path d="M238.274 92.5099L236.588 -171.173L236.026 -171.176L237.712 92.5066L238.274 92.5099Z" fill="black"/><path d="M244.434 86.3498L242.748 -177.333L242.186 -177.336L243.873 86.3465L244.434 86.3498Z" fill="black"/><path d="M250.595 80.1896L248.908 -183.493L248.346 -183.496L250.033 80.1863L250.595 80.1896Z" fill="black"/><path d="M253.675 77.1095L251.988 -186.573L251.426 -186.577L253.113 77.1062L253.675 77.1095Z" fill="black"/><path d="M256.755 74.0294L255.068 -189.653L254.506 -189.657L256.193 74.0261L256.755 74.0294Z" fill="black"/><path d="M259.835 70.9493L258.148 -192.733L257.586 -192.737L259.273 70.9461L259.835 70.9493Z" fill="black"/></g><rect x="46.0664" y="116.065" width="99.3288" height="17.8116" stroke="black"/><mask id="mask1" mask-type="alpha" maskUnits="userSpaceOnUse" x="0" y="134" width="101" height="20"><rect x="0.105469" y="134.377" width="100.329" height="18.8116" fill="#C4C4C4"/></mask><g mask="url(#mask1)"><path d="M328.348 -24.213L326.661 -287.896L326.099 -287.899L327.786 -24.2163L328.348 -24.213Z" fill="black"/><path d="M220.545 83.5899L218.858 -180.093L218.297 -180.096L219.983 83.5866L220.545 83.5899Z" fill="black"/><path d="M223.625 80.5098L221.938 -183.173L221.377 -183.176L223.063 80.5065L223.625 80.5098Z" fill="black"/><path d="M226.705 77.4297L225.018 -186.253L224.457 -186.256L226.143 77.4264L226.705 77.4297Z" fill="black"/><path d="M229.785 74.3497L228.099 -189.333L227.537 -189.336L229.223 74.3464L229.785 74.3497Z" fill="black"/><path d="M232.865 71.2696L231.179 -192.413L230.617 -192.417L232.304 71.2663L232.865 71.2696Z" fill="black"/><path d="M235.945 68.1895L234.259 -195.493L233.697 -195.497L235.384 68.1862L235.945 68.1895Z" fill="black"/><path d="M239.025 65.1094L237.339 -198.573L236.777 -198.577L238.464 65.1061L239.025 65.1094Z" fill="black"/><path d="M242.106 62.0293L240.419 -201.653L239.857 -201.657L241.544 62.026L242.106 62.0293Z" fill="black"/><path d="M245.186 58.9492L243.499 -204.734L242.937 -204.737L244.624 58.9459L245.186 58.9492Z" fill="black"/><path d="M251.346 52.789L249.659 -210.894L249.097 -210.897L250.784 52.7858L251.346 52.789Z" fill="black"/><path d="M254.426 49.709L252.739 -213.974L252.177 -213.977L253.864 49.7057L254.426 49.709Z" fill="black"/><path d="M257.506 46.6289L255.819 -217.054L255.258 -217.057L256.944 46.6256L257.506 46.6289Z" fill="black"/><path d="M260.586 43.5488L258.899 -220.134L258.338 -220.137L260.024 43.5455L260.586 43.5488Z" fill="black"/><path d="M263.666 40.4687L261.979 -223.214L261.418 -223.217L263.104 40.4654L263.666 40.4687Z" fill="black"/><path d="M266.746 37.3886L265.06 -226.294L264.498 -226.297L266.184 37.3853L266.746 37.3886Z" fill="black"/><path d="M269.826 34.3086L268.14 -229.374L267.578 -229.378L269.265 34.3053L269.826 34.3086Z" fill="black"/><path d="M272.906 31.2285L271.22 -232.454L270.658 -232.458L272.345 31.2252L272.906 31.2285Z" fill="black"/><path d="M275.986 28.1484L274.3 -235.534L273.738 -235.538L275.425 28.1451L275.986 28.1484Z" fill="black"/><path d="M279.067 25.0683L277.38 -238.614L276.818 -238.618L278.505 25.065L279.067 25.0683Z" fill="black"/><path d="M285.227 18.9081L283.54 -244.775L282.978 -244.778L284.665 18.9048L285.227 18.9081Z" fill="black"/><path d="M288.307 15.8281L286.62 -247.855L286.058 -247.858L287.745 15.8248L288.307 15.8281Z" fill="black"/><path d="M291.387 12.748L289.7 -250.935L289.138 -250.938L290.825 12.7447L291.387 12.748Z" fill="black"/><path d="M294.467 9.6679L292.78 -254.015L292.219 -254.018L293.905 9.6646L294.467 9.6679Z" fill="black"/><path d="M300.627 3.50771L298.94 -260.175L298.379 -260.178L300.065 3.50441L300.627 3.50771Z" fill="black"/><path d="M303.707 0.427625L302.021 -263.255L301.459 -263.258L303.145 0.424324L303.707 0.427625Z" fill="black"/><path d="M306.787 -2.65246L305.101 -266.335L304.539 -266.339L306.226 -2.65576L306.787 -2.65246Z" fill="black"/><path d="M309.867 -5.73254L308.181 -269.415L307.619 -269.419L309.306 -5.73582L309.867 -5.73254Z" fill="black"/><path d="M312.947 -8.8126L311.261 -272.495L310.699 -272.499L312.386 -8.81591L312.947 -8.8126Z" fill="black"/><path d="M316.028 -11.8927L314.341 -275.575L313.779 -275.579L315.466 -11.896L316.028 -11.8927Z" fill="black"/><path d="M319.108 -14.9728L317.421 -278.656L316.859 -278.659L318.546 -14.9761L319.108 -14.9728Z" fill="black"/><path d="M337.588 -33.4533L335.901 -297.136L335.34 -297.139L337.026 -33.4566L337.588 -33.4533Z" fill="black"/><path d="M343.748 -39.6134L342.062 -303.296L341.5 -303.3L343.187 -39.6167L343.748 -39.6134Z" fill="black"/><path d="M349.908 -45.7736L348.222 -309.456L347.66 -309.46L349.347 -45.7769L349.908 -45.7736Z" fill="black"/><path d="M356.069 -51.9338L354.382 -315.617L353.82 -315.62L355.507 -51.9371L356.069 -51.9338Z" fill="black"/><path d="M365.309 -61.174L363.622 -324.857L363.06 -324.86L364.747 -61.1773L365.309 -61.174Z" fill="black"/><path d="M371.469 -67.3342L369.782 -331.017L369.221 -331.02L370.907 -67.3375L371.469 -67.3342Z" fill="black"/><path d="M377.629 -73.4943L375.943 -337.177L375.381 -337.18L377.067 -73.4976L377.629 -73.4943Z" fill="black"/><path d="M383.789 -79.6545L382.103 -343.337L381.541 -343.341L383.228 -79.6578L383.789 -79.6545Z" fill="black"/><path d="M389.95 -85.8147L388.263 -349.497L387.701 -349.501L389.388 -85.818L389.95 -85.8147Z" fill="black"/><path d="M393.03 -88.8948L391.343 -352.578L390.781 -352.581L392.468 -88.8981L393.03 -88.8948Z" fill="black"/><path d="M399.19 -95.0549L397.503 -358.738L396.941 -358.741L398.628 -95.0582L399.19 -95.0549Z" fill="black"/><path d="M405.35 -101.215L403.663 -364.898L403.102 -364.901L404.788 -101.218L405.35 -101.215Z" fill="black"/><path d="M411.51 -107.375L409.823 -371.058L409.262 -371.061L410.948 -107.379L411.51 -107.375Z" fill="black"/><path d="M417.67 -113.535L415.984 -377.218L415.422 -377.222L417.109 -113.539L417.67 -113.535Z" fill="black"/><path d="M439.231 -135.096L437.544 -398.779L436.982 -398.782L438.669 -135.099L439.231 -135.096Z" fill="black"/><path d="M445.391 -141.256L443.704 -404.939L443.143 -404.942L444.829 -141.259L445.391 -141.256Z" fill="black"/><path d="M451.551 -147.416L449.865 -411.099L449.303 -411.102L450.989 -147.42L451.551 -147.416Z" fill="black"/><path d="M217.465 86.67L215.778 -177.013L215.216 -177.016L216.903 86.6667L217.465 86.67Z" fill="black"/><path d="M248.266 55.8691L246.579 -207.814L246.017 -207.817L247.704 55.8658L248.266 55.8691Z" fill="black"/><path d="M282.147 21.9882L280.46 -241.695L279.898 -241.698L281.585 21.9849L282.147 21.9882Z" fill="black"/><path d="M297.547 6.58781L295.86 -257.095L295.299 -257.098L296.985 6.58451L297.547 6.58781Z" fill="black"/><path d="M322.188 -18.0529L320.501 -281.736L319.939 -281.739L321.626 -18.0562L322.188 -18.0529Z" fill="black"/><path d="M325.268 -21.1329L323.581 -284.816L323.019 -284.819L324.706 -21.1362L325.268 -21.1329Z" fill="black"/><path d="M331.428 -27.2931L329.741 -290.976L329.18 -290.979L330.866 -27.2964L331.428 -27.2931Z" fill="black"/><path d="M334.508 -30.3732L332.821 -294.056L332.26 -294.059L333.946 -30.3765L334.508 -30.3732Z" fill="black"/><path d="M340.668 -36.5334L338.982 -300.216L338.42 -300.219L340.106 -36.5367L340.668 -36.5334Z" fill="black"/><path d="M346.828 -42.6935L345.142 -306.376L344.58 -306.38L346.267 -42.6968L346.828 -42.6935Z" fill="black"/><path d="M352.989 -48.8537L351.302 -312.536L350.74 -312.54L352.427 -48.857L352.989 -48.8537Z" fill="black"/><path d="M359.149 -55.0139L357.462 -318.697L356.9 -318.7L358.587 -55.0172L359.149 -55.0139Z" fill="black"/><path d="M362.229 -58.0939L360.542 -321.777L359.98 -321.78L361.667 -58.0972L362.229 -58.0939Z" fill="black"/><path d="M368.389 -64.2541L366.702 -327.937L366.141 -327.94L367.827 -64.2574L368.389 -64.2541Z" fill="black"/><path d="M374.549 -70.4143L372.862 -334.097L372.301 -334.1L373.987 -70.4176L374.549 -70.4143Z" fill="black"/><path d="M380.709 -76.5744L379.023 -340.257L378.461 -340.261L380.148 -76.5777L380.709 -76.5744Z" fill="black"/><path d="M386.869 -82.7346L385.183 -346.417L384.621 -346.421L386.308 -82.7379L386.869 -82.7346Z" fill="black"/><path d="M396.11 -91.9749L394.423 -355.658L393.861 -355.661L395.548 -91.9782L396.11 -91.9749Z" fill="black"/><path d="M402.27 -98.135L400.583 -361.818L400.021 -361.821L401.708 -98.1383L402.27 -98.135Z" fill="black"/><path d="M408.43 -104.295L406.743 -367.978L406.182 -367.981L407.868 -104.298L408.43 -104.295Z" fill="black"/><path d="M414.59 -110.455L412.904 -374.138L412.342 -374.141L414.028 -110.459L414.59 -110.455Z" fill="black"/><path d="M420.75 -116.616L419.064 -380.298L418.502 -380.302L420.189 -116.619L420.75 -116.616Z" fill="black"/><path d="M423.83 -119.696L422.144 -383.378L421.582 -383.382L423.269 -119.699L423.83 -119.696Z" fill="black"/><path d="M426.911 -122.776L425.224 -386.458L424.662 -386.462L426.349 -122.779L426.911 -122.776Z" fill="black"/><path d="M429.991 -125.856L428.304 -389.539L427.742 -389.542L429.429 -125.859L429.991 -125.856Z" fill="black"/><path d="M433.071 -128.936L431.384 -392.619L430.822 -392.622L432.509 -128.939L433.071 -128.936Z" fill="black"/><path d="M436.151 -132.016L434.464 -395.699L433.902 -395.702L435.589 -132.019L436.151 -132.016Z" fill="black"/><path d="M442.311 -138.176L440.624 -401.859L440.063 -401.862L441.749 -138.179L442.311 -138.176Z" fill="black"/><path d="M448.471 -144.336L446.784 -408.019L446.223 -408.022L447.909 -144.34L448.471 -144.336Z" fill="black"/><path d="M454.631 -150.496L452.945 -414.179L452.383 -414.183L454.07 -150.5L454.631 -150.496Z" fill="black"/><path d="M457.711 -153.577L456.025 -417.259L455.463 -417.263L457.15 -153.58L457.711 -153.577Z" fill="black"/><path d="M460.791 -156.657L459.105 -420.339L458.543 -420.343L460.23 -156.66L460.791 -156.657Z" fill="black"/><path d="M463.872 -159.737L462.185 -423.419L461.623 -423.423L463.31 -159.74L463.872 -159.737Z" fill="black"/><path d="M78.8502 225.285L77.1635 -38.3981L76.6018 -38.4015L78.2885 225.281L78.8502 225.285Z" fill="black"/><path d="M-28.9528 333.088L-30.6394 69.4048L-31.2011 69.4015L-29.5145 333.084L-28.9528 333.088Z" fill="black"/><path d="M-25.8727 330.008L-27.5593 66.3247L-28.1211 66.3214L-26.4344 330.004L-25.8727 330.008Z" fill="black"/><path d="M-22.7926 326.927L-24.4792 63.2446L-25.041 63.2413L-23.3543 326.924L-22.7926 326.927Z" fill="black"/><path d="M-19.7125 323.847L-21.3992 60.1646L-21.9609 60.1613L-20.2742 323.844L-19.7125 323.847Z" fill="black"/><path d="M-16.6324 320.767L-18.3191 57.0845L-18.8808 57.0812L-17.1941 320.764L-16.6324 320.767Z" fill="black"/><path d="M-13.5523 317.687L-15.239 54.0044L-15.8007 54.0011L-14.1141 317.684L-13.5523 317.687Z" fill="black"/><path d="M-10.4723 314.607L-12.1589 50.9243L-12.7206 50.921L-11.034 314.604L-10.4723 314.607Z" fill="black"/><path d="M-7.39218 311.527L-9.07883 47.8443L-9.64055 47.8409L-7.95393 311.524L-7.39218 311.527Z" fill="black"/><path d="M-4.3121 308.447L-5.99871 44.7641L-6.56042 44.7608L-4.87385 308.444L-4.3121 308.447Z" fill="black"/><path d="M1.84807 302.287L0.161461 38.604L-0.400255 38.6006L1.28632 302.283L1.84807 302.287Z" fill="black"/><path d="M4.92815 299.207L3.2415 35.5239L2.67979 35.5206L4.3664 299.203L4.92815 299.207Z" fill="black"/><path d="M8.00824 296.127L6.32163 32.4438L5.75991 32.4405L7.44649 296.123L8.00824 296.127Z" fill="black"/><path d="M11.0883 293.047L9.40167 29.3638L8.83995 29.3604L10.5266 293.043L11.0883 293.047Z" fill="black"/><path d="M14.1684 289.966L12.4818 26.2836L11.9201 26.2803L13.6067 289.963L14.1684 289.966Z" fill="black"/><path d="M17.2485 286.886L15.5619 23.2035L15.0002 23.2002L16.6867 286.883L17.2485 286.886Z" fill="black"/><path d="M20.3286 283.806L18.642 20.1235L18.0802 20.1201L19.7669 283.803L20.3286 283.806Z" fill="black"/><path d="M23.4087 280.726L21.722 17.0434L21.1603 17.04L22.8469 280.723L23.4087 280.726Z" fill="black"/><path d="M26.4888 277.646L24.8021 13.9633L24.2404 13.96L25.927 277.643L26.4888 277.646Z" fill="black"/><path d="M29.5688 274.566L27.8822 10.8832L27.3205 10.8799L29.0071 274.563L29.5688 274.566Z" fill="black"/><path d="M35.729 268.406L34.0424 4.72305L33.4806 4.71976L35.1673 268.403L35.729 268.406Z" fill="black"/><path d="M38.8091 265.326L37.1225 1.64296L36.5607 1.63967L38.2474 265.322L38.8091 265.326Z" fill="black"/><path d="M41.8892 262.246L40.2025 -1.43712L39.6408 -1.44041L41.3274 262.242L41.8892 262.246Z" fill="black"/><path d="M44.9693 259.166L43.2826 -4.5172L42.7209 -4.52049L44.4075 259.162L44.9693 259.166Z" fill="black"/><path d="M51.1294 253.005L49.4428 -10.6774L48.881 -10.6807L50.5677 253.002L51.1294 253.005Z" fill="black"/><path d="M54.2095 249.925L52.5229 -13.7575L51.9611 -13.7607L53.6478 249.922L54.2095 249.925Z" fill="black"/><path d="M57.2896 246.845L55.603 -16.8375L55.0412 -16.8408L56.7279 246.842L57.2896 246.845Z" fill="black"/><path d="M60.3697 243.765L58.683 -19.9176L58.1213 -19.9209L59.808 243.762L60.3697 243.765Z" fill="black"/><path d="M63.4497 240.685L61.7631 -22.9977L61.2014 -23.001L62.888 240.682L63.4497 240.685Z" fill="black"/><path d="M66.5298 237.605L64.8432 -26.0778L64.2815 -26.0811L65.9681 237.602L66.5298 237.605Z" fill="black"/><path d="M69.6099 234.525L67.9233 -29.1579L67.3615 -29.1612L69.0482 234.522L69.6099 234.525Z" fill="black"/><path d="M88.0904 216.044L86.4038 -47.6384L85.842 -47.6417L87.5287 216.041L88.0904 216.044Z" fill="black"/><path d="M94.2506 209.884L92.564 -53.7985L92.0022 -53.8018L93.6888 209.881L94.2506 209.884Z" fill="black"/><path d="M100.411 203.724L98.7241 -59.9587L98.1624 -59.962L99.849 203.721L100.411 203.724Z" fill="black"/><path d="M106.571 197.564L104.884 -66.1189L104.323 -66.1222L106.009 197.561L106.571 197.564Z" fill="black"/><path d="M115.811 188.324L114.125 -75.3591L113.563 -75.3624L115.249 188.32L115.811 188.324Z" fill="black"/><path d="M121.971 182.163L120.285 -81.5193L119.723 -81.5226L121.41 182.16L121.971 182.163Z" fill="black"/><path d="M128.131 176.003L126.445 -87.6794L125.883 -87.6827L127.57 176L128.131 176.003Z" fill="black"/><path d="M134.292 169.843L132.605 -93.8396L132.043 -93.8429L133.73 169.84L134.292 169.843Z" fill="black"/><path d="M140.452 163.683L138.765 -99.9998L138.203 -100.003L139.89 163.68L140.452 163.683Z" fill="black"/><path d="M143.532 160.603L141.845 -103.08L141.284 -103.083L142.97 160.6L143.532 160.603Z" fill="black"/><path d="M149.692 154.443L148.005 -109.24L147.444 -109.243L149.13 154.439L149.692 154.443Z" fill="black"/><path d="M155.852 148.283L154.166 -115.4L153.604 -115.404L155.291 148.279L155.852 148.283Z" fill="black"/><path d="M162.012 142.122L160.326 -121.56L159.764 -121.564L161.451 142.119L162.012 142.122Z" fill="black"/><path d="M168.173 135.962L166.486 -127.721L165.924 -127.724L167.611 135.959L168.173 135.962Z" fill="black"/><path d="M189.733 114.402L188.047 -149.281L187.485 -149.284L189.171 114.398L189.733 114.402Z" fill="black"/><path d="M195.893 108.242L194.207 -155.441L193.645 -155.445L195.332 108.238L195.893 108.242Z" fill="black"/><path d="M202.053 102.081L200.367 -161.601L199.805 -161.605L201.492 102.078L202.053 102.081Z" fill="black"/><path d="M-32.0328 336.168L-33.7195 72.4849L-34.2812 72.4816L-32.5946 336.164L-32.0328 336.168Z" fill="black"/><path d="M-1.23201 305.367L-2.91867 41.6841L-3.48038 41.6808L-1.79376 305.364L-1.23201 305.367Z" fill="black"/><path d="M32.6489 271.486L30.9623 7.80313L30.4005 7.79984L32.0872 271.483L32.6489 271.486Z" fill="black"/><path d="M48.0493 256.086L46.3627 -7.59724L45.8009 -7.60053L47.4876 256.082L48.0493 256.086Z" fill="black"/><path d="M72.69 231.445L71.0034 -32.238L70.4416 -32.2412L72.1283 231.442L72.69 231.445Z" fill="black"/><path d="M75.7701 228.365L74.0835 -35.318L73.5217 -35.3213L75.2084 228.361L75.7701 228.365Z" fill="black"/><path d="M81.9302 222.205L80.2436 -41.4782L79.6819 -41.4815L81.3685 222.201L81.9302 222.205Z" fill="black"/><path d="M85.0103 219.124L83.3237 -44.5582L82.762 -44.5616L84.4486 219.121L85.0103 219.124Z" fill="black"/><path d="M91.1705 212.964L89.4838 -50.7184L88.9221 -50.7217L90.6087 212.961L91.1705 212.964Z" fill="black"/><path d="M97.3307 206.804L95.644 -56.8786L95.0823 -56.8819L96.7689 206.801L97.3307 206.804Z" fill="black"/><path d="M103.491 200.644L101.804 -63.0387L101.242 -63.0421L102.929 200.641L103.491 200.644Z" fill="black"/><path d="M109.651 194.484L107.964 -69.1989L107.403 -69.2022L109.089 194.481L109.651 194.484Z" fill="black"/><path d="M112.731 191.404L111.044 -72.279L110.483 -72.2823L112.169 191.4L112.731 191.404Z" fill="black"/><path d="M118.891 185.244L117.205 -78.4392L116.643 -78.4425L118.329 185.24L118.891 185.244Z" fill="black"/><path d="M125.051 179.083L123.365 -84.5994L122.803 -84.6027L124.49 179.08L125.051 179.083Z" fill="black"/><path d="M131.212 172.923L129.525 -90.7595L128.963 -90.7628L130.65 172.92L131.212 172.923Z" fill="black"/><path d="M137.372 166.763L135.685 -96.9197L135.123 -96.923L136.81 166.76L137.372 166.763Z" fill="black"/><path d="M146.612 157.523L144.925 -106.16L144.364 -106.163L146.05 157.52L146.612 157.523Z" fill="black"/><path d="M152.772 151.363L151.086 -112.32L150.524 -112.323L152.21 151.359L152.772 151.363Z" fill="black"/><path d="M158.932 145.202L157.246 -118.48L156.684 -118.484L158.371 145.199L158.932 145.202Z" fill="black"/><path d="M165.092 139.042L163.406 -124.64L162.844 -124.644L164.531 139.039L165.092 139.042Z" fill="black"/><path d="M171.253 132.882L169.566 -130.801L169.004 -130.804L170.691 132.879L171.253 132.882Z" fill="black"/><path d="M174.333 129.802L172.646 -133.881L172.084 -133.884L173.771 129.799L174.333 129.802Z" fill="black"/><path d="M177.413 126.722L175.726 -136.961L175.164 -136.964L176.851 126.719L177.413 126.722Z" fill="black"/><path d="M180.493 123.642L178.806 -140.041L178.245 -140.044L179.931 123.639L180.493 123.642Z" fill="black"/><path d="M183.573 120.562L181.886 -143.121L181.325 -143.124L183.011 120.559L183.573 120.562Z" fill="black"/><path d="M186.653 117.482L184.966 -146.201L184.405 -146.204L186.091 117.478L186.653 117.482Z" fill="black"/><path d="M192.813 111.322L191.127 -152.361L190.565 -152.365L192.251 111.318L192.813 111.322Z" fill="black"/><path d="M198.973 105.161L197.287 -158.521L196.725 -158.525L198.412 105.158L198.973 105.161Z" fill="black"/><path d="M205.134 99.0012L203.447 -164.682L202.885 -164.685L204.572 98.998L205.134 99.0012Z" fill="black"/><path d="M208.214 95.9212L206.527 -167.762L205.965 -167.765L207.652 95.9179L208.214 95.9212Z" fill="black"/><path d="M211.294 92.8411L209.607 -170.842L209.045 -170.845L210.732 92.8378L211.294 92.8411Z" fill="black"/><path d="M214.374 89.761L212.687 -173.922L212.125 -173.925L213.812 89.7577L214.374 89.761Z" fill="black"/></g><rect x="0.605469" y="134.877" width="99.3288" height="17.8116" stroke="black"/><mask id="mask2" mask-type="alpha" maskUnits="userSpaceOnUse" x="21" y="153" width="101" height="19"><rect x="21.2695" y="153.188" width="100.329" height="18.8116" fill="#C4C4C4"/></mask><g mask="url(#mask2)"><path d="M349.512 -5.40138L347.825 -269.084L347.264 -269.087L348.95 -5.40468L349.512 -5.40138Z" fill="black"/><path d="M241.709 102.402L240.022 -161.281L239.461 -161.285L241.147 102.398L241.709 102.402Z" fill="black"/><path d="M244.789 99.3215L243.102 -164.361L242.541 -164.365L244.227 99.3181L244.789 99.3215Z" fill="black"/><path d="M247.869 96.2414L246.183 -167.441L245.621 -167.445L247.307 96.2381L247.869 96.2414Z" fill="black"/><path d="M250.949 93.1613L249.263 -170.521L248.701 -170.525L250.387 93.158L250.949 93.1613Z" fill="black"/><path d="M254.029 90.0812L252.343 -173.602L251.781 -173.605L253.468 90.0779L254.029 90.0812Z" fill="black"/><path d="M257.109 87.0011L255.423 -176.682L254.861 -176.685L256.548 86.9978L257.109 87.0011Z" fill="black"/><path d="M260.189 83.921L258.503 -179.762L257.941 -179.765L259.628 83.9177L260.189 83.921Z" fill="black"/><path d="M263.27 80.8409L261.583 -182.842L261.021 -182.845L262.708 80.8377L263.27 80.8409Z" fill="black"/><path d="M266.35 77.7609L264.663 -185.922L264.101 -185.925L265.788 77.7576L266.35 77.7609Z" fill="black"/><path d="M272.51 71.6007L270.823 -192.082L270.261 -192.085L271.948 71.5974L272.51 71.6007Z" fill="black"/><path d="M275.59 68.5206L273.903 -195.162L273.342 -195.165L275.028 68.5173L275.59 68.5206Z" fill="black"/><path d="M278.67 65.4405L276.983 -198.242L276.422 -198.246L278.108 65.4373L278.67 65.4405Z" fill="black"/><path d="M281.75 62.3605L280.063 -201.322L279.502 -201.326L281.188 62.3572L281.75 62.3605Z" fill="black"/><path d="M284.83 59.2804L283.144 -204.402L282.582 -204.406L284.268 59.2771L284.83 59.2804Z" fill="black"/><path d="M287.91 56.2003L286.224 -207.482L285.662 -207.486L287.349 56.197L287.91 56.2003Z" fill="black"/><path d="M290.99 53.1202L289.304 -210.563L288.742 -210.566L290.429 53.1169L290.99 53.1202Z" fill="black"/><path d="M294.07 50.0401L292.384 -213.643L291.822 -213.646L293.509 50.0368L294.07 50.0401Z" fill="black"/><path d="M297.15 46.96L295.464 -216.723L294.902 -216.726L296.589 46.9567L297.15 46.96Z" fill="black"/><path d="M300.231 43.88L298.544 -219.803L297.982 -219.806L299.669 43.8767L300.231 43.88Z" fill="black"/><path d="M306.391 37.7198L304.704 -225.963L304.142 -225.966L305.829 37.7165L306.391 37.7198Z" fill="black"/><path d="M309.471 34.6397L307.784 -229.043L307.222 -229.046L308.909 34.6364L309.471 34.6397Z" fill="black"/><path d="M312.551 31.5596L310.864 -232.123L310.303 -232.126L311.989 31.5563L312.551 31.5596Z" fill="black"/><path d="M315.631 28.4795L313.944 -235.203L313.383 -235.207L315.069 28.4762L315.631 28.4795Z" fill="black"/><path d="M321.791 22.3194L320.105 -241.363L319.543 -241.367L321.229 22.3161L321.791 22.3194Z" fill="black"/><path d="M324.871 19.2393L323.185 -244.443L322.623 -244.447L324.31 19.236L324.871 19.2393Z" fill="black"/><path d="M327.951 16.1592L326.265 -247.524L325.703 -247.527L327.39 16.1559L327.951 16.1592Z" fill="black"/><path d="M331.031 13.0791L329.345 -250.604L328.783 -250.607L330.47 13.0758L331.031 13.0791Z" fill="black"/><path d="M334.111 9.99904L332.425 -253.684L331.863 -253.687L333.55 9.99574L334.111 9.99904Z" fill="black"/><path d="M337.192 6.91896L335.505 -256.764L334.943 -256.767L336.63 6.91566L337.192 6.91896Z" fill="black"/><path d="M340.272 3.83887L338.585 -259.844L338.023 -259.847L339.71 3.83557L340.272 3.83887Z" fill="black"/><path d="M358.752 -14.6416L357.066 -278.324L356.504 -278.328L358.19 -14.6449L358.752 -14.6416Z" fill="black"/><path d="M364.912 -20.8018L363.226 -284.485L362.664 -284.488L364.351 -20.8051L364.912 -20.8018Z" fill="black"/><path d="M371.072 -26.962L369.386 -290.645L368.824 -290.648L370.511 -26.9653L371.072 -26.962Z" fill="black"/><path d="M377.233 -33.1221L375.546 -296.805L374.984 -296.808L376.671 -33.1254L377.233 -33.1221Z" fill="black"/><path d="M386.473 -42.3624L384.786 -306.045L384.225 -306.048L385.911 -42.3657L386.473 -42.3624Z" fill="black"/><path d="M392.633 -48.5225L390.946 -312.205L390.385 -312.209L392.071 -48.5258L392.633 -48.5225Z" fill="black"/><path d="M398.793 -54.6827L397.107 -318.365L396.545 -318.369L398.231 -54.686L398.793 -54.6827Z" fill="black"/><path d="M404.953 -60.8429L403.267 -324.526L402.705 -324.529L404.392 -60.8462L404.953 -60.8429Z" fill="black"/><path d="M411.114 -67.0031L409.427 -330.686L408.865 -330.689L410.552 -67.0064L411.114 -67.0031Z" fill="black"/><path d="M414.194 -70.0831L412.507 -333.766L411.945 -333.769L413.632 -70.0864L414.194 -70.0831Z" fill="black"/><path d="M420.354 -76.2433L418.667 -339.926L418.105 -339.929L419.792 -76.2466L420.354 -76.2433Z" fill="black"/><path d="M426.514 -82.4035L424.827 -346.086L424.266 -346.09L425.952 -82.4068L426.514 -82.4035Z" fill="black"/><path d="M432.674 -88.5636L430.988 -352.246L430.426 -352.25L432.112 -88.5669L432.674 -88.5636Z" fill="black"/><path d="M438.834 -94.7238L437.148 -358.407L436.586 -358.41L438.273 -94.7271L438.834 -94.7238Z" fill="black"/><path d="M460.395 -116.284L458.708 -379.967L458.147 -379.97L459.833 -116.288L460.395 -116.284Z" fill="black"/><path d="M466.555 -122.445L464.868 -386.127L464.307 -386.131L465.993 -122.448L466.555 -122.445Z" fill="black"/><path d="M472.715 -128.605L471.029 -392.287L470.467 -392.291L472.154 -128.608L472.715 -128.605Z" fill="black"/><path d="M238.629 105.482L236.942 -158.201L236.381 -158.204L238.067 105.478L238.629 105.482Z" fill="black"/><path d="M269.43 74.6808L267.743 -189.002L267.181 -189.005L268.868 74.6775L269.43 74.6808Z" fill="black"/><path d="M303.311 40.7999L301.624 -222.883L301.062 -222.886L302.749 40.7966L303.311 40.7999Z" fill="black"/><path d="M318.711 25.3995L317.024 -238.283L316.463 -238.287L318.149 25.3962L318.711 25.3995Z" fill="black"/><path d="M343.352 0.758791L341.665 -262.924L341.103 -262.927L342.79 0.75549L343.352 0.758791Z" fill="black"/><path d="M346.432 -2.32129L344.745 -266.004L344.183 -266.007L345.87 -2.32459L346.432 -2.32129Z" fill="black"/><path d="M352.592 -8.48146L350.905 -272.164L350.344 -272.168L352.03 -8.48476L352.592 -8.48146Z" fill="black"/><path d="M355.672 -11.5615L353.985 -275.244L353.424 -275.248L355.11 -11.5648L355.672 -11.5615Z" fill="black"/><path d="M361.832 -17.7217L360.146 -281.404L359.584 -281.408L361.271 -17.725L361.832 -17.7217Z" fill="black"/><path d="M367.992 -23.8819L366.306 -287.565L365.744 -287.568L367.431 -23.8852L367.992 -23.8819Z" fill="black"/><path d="M374.153 -30.042L372.466 -293.725L371.904 -293.728L373.591 -30.0453L374.153 -30.042Z" fill="black"/><path d="M380.313 -36.2022L378.626 -299.885L378.064 -299.888L379.751 -36.2055L380.313 -36.2022Z" fill="black"/><path d="M383.393 -39.2823L381.706 -302.965L381.144 -302.968L382.831 -39.2856L383.393 -39.2823Z" fill="black"/><path d="M389.553 -45.4424L387.866 -309.125L387.305 -309.129L388.991 -45.4457L389.553 -45.4424Z" fill="black"/><path d="M395.713 -51.6026L394.027 -315.285L393.465 -315.289L395.151 -51.6059L395.713 -51.6026Z" fill="black"/><path d="M401.873 -57.7628L400.187 -321.446L399.625 -321.449L401.312 -57.7661L401.873 -57.7628Z" fill="black"/><path d="M408.033 -63.923L406.347 -327.606L405.785 -327.609L407.472 -63.9263L408.033 -63.923Z" fill="black"/><path d="M417.274 -73.1632L415.587 -336.846L415.025 -336.849L416.712 -73.1665L417.274 -73.1632Z" fill="black"/><path d="M423.434 -79.3234L421.747 -343.006L421.186 -343.009L422.872 -79.3267L423.434 -79.3234Z" fill="black"/><path d="M429.594 -85.4835L427.907 -349.166L427.346 -349.17L429.032 -85.4868L429.594 -85.4835Z" fill="black"/><path d="M435.754 -91.6437L434.068 -355.326L433.506 -355.33L435.192 -91.647L435.754 -91.6437Z" fill="black"/><path d="M441.914 -97.8039L440.228 -361.487L439.666 -361.49L441.353 -97.8072L441.914 -97.8039Z" fill="black"/><path d="M444.994 -100.884L443.308 -364.567L442.746 -364.57L444.433 -100.887L444.994 -100.884Z" fill="black"/><path d="M448.075 -103.964L446.388 -367.647L445.826 -367.65L447.513 -103.967L448.075 -103.964Z" fill="black"/><path d="M451.155 -107.044L449.468 -370.727L448.906 -370.73L450.593 -107.047L451.155 -107.044Z" fill="black"/><path d="M454.235 -110.124L452.548 -373.807L451.986 -373.81L453.673 -110.128L454.235 -110.124Z" fill="black"/><path d="M457.315 -113.204L455.628 -376.887L455.066 -376.89L456.753 -113.208L457.315 -113.204Z" fill="black"/><path d="M463.475 -119.364L461.788 -383.047L461.227 -383.051L462.913 -119.368L463.475 -119.364Z" fill="black"/><path d="M469.635 -125.525L467.949 -389.207L467.387 -389.211L469.073 -125.528L469.635 -125.525Z" fill="black"/><path d="M475.795 -131.685L474.109 -395.368L473.547 -395.371L475.234 -131.688L475.795 -131.685Z" fill="black"/><path d="M478.875 -134.765L477.189 -398.448L476.627 -398.451L478.314 -134.768L478.875 -134.765Z" fill="black"/><path d="M481.955 -137.845L480.269 -401.528L479.707 -401.531L481.394 -137.848L481.955 -137.845Z" fill="black"/><path d="M485.036 -140.925L483.349 -404.608L482.787 -404.611L484.474 -140.928L485.036 -140.925Z" fill="black"/><path d="M100.014 244.096L98.3276 -19.5865L97.7659 -19.5898L99.4525 244.093L100.014 244.096Z" fill="black"/><path d="M-7.7887 351.899L-9.47531 88.2164L-10.0371 88.2132L-8.35041 351.896L-7.7887 351.899Z" fill="black"/><path d="M-4.70862 348.819L-6.39523 85.1364L-6.95699 85.1331L-5.27033 348.816L-4.70862 348.819Z" fill="black"/><path d="M-1.62854 345.739L-3.31514 82.0563L-3.8769 82.053L-2.19024 345.736L-1.62854 345.739Z" fill="black"/><path d="M1.45155 342.659L-0.235104 78.9762L-0.796821 78.9729L0.889841 342.656L1.45155 342.659Z" fill="black"/><path d="M4.53163 339.579L2.84498 75.8962L2.28326 75.8928L3.96992 339.576L4.53163 339.579Z" fill="black"/><path d="M7.61171 336.499L5.92506 72.8161L5.36335 72.8127L7.05001 336.495L7.61171 336.499Z" fill="black"/><path d="M10.6918 333.419L9.00519 69.7359L8.44347 69.7326L10.13 333.415L10.6918 333.419Z" fill="black"/><path d="M13.7719 330.339L12.0852 66.6559L11.5235 66.6526L13.2101 330.335L13.7719 330.339Z" fill="black"/><path d="M16.852 327.259L15.1654 63.5758L14.6036 63.5724L16.2902 327.255L16.852 327.259Z" fill="black"/><path d="M23.0121 321.098L21.3255 57.4156L20.7638 57.4123L22.4504 321.095L23.0121 321.098Z" fill="black"/><path d="M26.0922 318.018L24.4056 54.3356L23.8438 54.3322L25.5305 318.015L26.0922 318.018Z" fill="black"/><path d="M29.1723 314.938L27.4857 51.2554L26.924 51.2521L28.6105 314.935L29.1723 314.938Z" fill="black"/><path d="M32.2524 311.858L30.5657 48.1754L30.004 48.1721L31.6906 311.855L32.2524 311.858Z" fill="black"/><path d="M35.3325 308.778L33.6459 45.0953L33.0841 45.0919L34.7707 308.775L35.3325 308.778Z" fill="black"/><path d="M38.4125 305.698L36.7259 42.0152L36.1642 42.0119L37.8508 305.695L38.4125 305.698Z" fill="black"/><path d="M41.4927 302.618L39.806 38.9351L39.2443 38.9318L40.9309 302.615L41.4927 302.618Z" fill="black"/><path d="M44.5727 299.538L42.8861 35.855L42.3244 35.8517L44.011 299.535L44.5727 299.538Z" fill="black"/><path d="M47.6528 296.458L45.9662 32.7749L45.4045 32.7716L47.0911 296.454L47.6528 296.458Z" fill="black"/><path d="M50.7329 293.378L49.0463 29.6949L48.4845 29.6916L50.1711 293.374L50.7329 293.378Z" fill="black"/><path d="M56.8931 287.217L55.2064 23.5347L54.6447 23.5314L56.3313 287.214L56.8931 287.217Z" fill="black"/><path d="M59.9732 284.137L58.2865 20.4546L57.7248 20.4513L59.4114 284.134L59.9732 284.137Z" fill="black"/><path d="M63.0533 281.057L61.3666 17.3745L60.8049 17.3712L62.4915 281.054L63.0533 281.057Z" fill="black"/><path d="M66.1333 277.977L64.4467 14.2944L63.8849 14.2912L65.5716 277.974L66.1333 277.977Z" fill="black"/><path d="M72.2935 271.817L70.6069 8.13428L70.0451 8.13099L71.7318 271.814L72.2935 271.817Z" fill="black"/><path d="M75.3736 268.737L73.6869 5.05419L73.1252 5.0509L74.8118 268.734L75.3736 268.737Z" fill="black"/><path d="M78.4536 265.657L76.767 1.97411L76.2053 1.97082L77.8919 265.654L78.4536 265.657Z" fill="black"/><path d="M81.5337 262.577L79.8471 -1.10597L79.2854 -1.10926L80.972 262.573L81.5337 262.577Z" fill="black"/><path d="M84.6138 259.497L82.9272 -4.18606L82.3654 -4.18935L84.0521 259.493L84.6138 259.497Z" fill="black"/><path d="M87.6939 256.417L86.0073 -7.26614L85.4455 -7.26943L87.1322 256.413L87.6939 256.417Z" fill="black"/><path d="M90.774 253.337L89.0874 -10.3462L88.5256 -10.3495L90.2123 253.333L90.774 253.337Z" fill="black"/><path d="M109.254 234.856L107.568 -28.8267L107.006 -28.83L108.693 234.853L109.254 234.856Z" fill="black"/><path d="M115.415 228.696L113.728 -34.9869L113.166 -34.9902L114.853 228.693L115.415 228.696Z" fill="black"/><path d="M121.575 222.536L119.888 -41.1471L119.326 -41.1504L121.013 222.532L121.575 222.536Z" fill="black"/><path d="M127.735 216.376L126.048 -47.3072L125.487 -47.3105L127.173 216.372L127.735 216.376Z" fill="black"/><path d="M136.975 207.135L135.289 -56.5475L134.727 -56.5508L136.413 207.132L136.975 207.135Z" fill="black"/><path d="M143.135 200.975L141.449 -62.7076L140.887 -62.7109L142.574 200.972L143.135 200.975Z" fill="black"/><path d="M149.296 194.815L147.609 -68.8678L147.047 -68.8711L148.734 194.812L149.296 194.815Z" fill="black"/><path d="M155.456 188.655L153.769 -75.028L153.207 -75.0313L154.894 188.652L155.456 188.655Z" fill="black"/><path d="M161.616 182.495L159.929 -81.1881L159.368 -81.1915L161.054 182.491L161.616 182.495Z" fill="black"/><path d="M164.696 179.415L163.009 -84.2682L162.448 -84.2715L164.134 179.411L164.696 179.415Z" fill="black"/><path d="M170.856 173.254L169.169 -90.4284L168.608 -90.4317L170.294 173.251L170.856 173.254Z" fill="black"/><path d="M177.016 167.094L175.33 -96.5885L174.768 -96.5919L176.455 167.091L177.016 167.094Z" fill="black"/><path d="M183.176 160.934L181.49 -102.749L180.928 -102.752L182.615 160.931L183.176 160.934Z" fill="black"/><path d="M189.337 154.774L187.65 -108.909L187.088 -108.912L188.775 154.771L189.337 154.774Z" fill="black"/><path d="M210.897 133.213L209.211 -130.469L208.649 -130.473L210.335 133.21L210.897 133.213Z" fill="black"/><path d="M217.057 127.053L215.371 -136.63L214.809 -136.633L216.496 127.05L217.057 127.053Z" fill="black"/><path d="M223.218 120.893L221.531 -142.79L220.969 -142.793L222.656 120.89L223.218 120.893Z" fill="black"/><path d="M-10.8688 354.979L-12.5554 91.2965L-13.1172 91.2932L-11.4305 354.976L-10.8688 354.979Z" fill="black"/><path d="M19.932 324.178L18.2454 60.4957L17.6837 60.4924L19.3703 324.175L19.932 324.178Z" fill="black"/><path d="M53.813 290.298L52.1264 26.6148L51.5646 26.6115L53.2513 290.294L53.813 290.298Z" fill="black"/><path d="M69.2134 274.897L67.5267 11.2144L66.965 11.2111L68.6517 274.894L69.2134 274.897Z" fill="black"/><path d="M93.8541 250.256L92.1674 -13.4263L91.6057 -13.4296L93.2923 250.253L93.8541 250.256Z" fill="black"/><path d="M96.9341 247.176L95.2475 -16.5064L94.6858 -16.5097L96.3724 247.173L96.9341 247.176Z" fill="black"/><path d="M103.094 241.016L101.408 -22.6665L100.846 -22.6698L102.533 241.013L103.094 241.016Z" fill="black"/><path d="M106.174 237.936L104.488 -25.7466L103.926 -25.7499L105.613 237.933L106.174 237.936Z" fill="black"/><path d="M112.335 231.776L110.648 -31.9068L110.086 -31.9101L111.773 231.773L112.335 231.776Z" fill="black"/><path d="M118.495 225.616L116.808 -38.0669L116.246 -38.0703L117.933 225.613L118.495 225.616Z" fill="black"/><path d="M124.655 219.456L122.968 -44.2271L122.406 -44.2304L124.093 219.452L124.655 219.456Z" fill="black"/><path d="M130.815 213.295L129.128 -50.3873L128.567 -50.3906L130.253 213.292L130.815 213.295Z" fill="black"/><path d="M133.895 210.215L132.208 -53.4674L131.647 -53.4707L133.333 210.212L133.895 210.215Z" fill="black"/><path d="M140.055 204.055L138.369 -59.6275L137.807 -59.6308L139.494 204.052L140.055 204.055Z" fill="black"/><path d="M146.215 197.895L144.529 -65.7877L143.967 -65.791L145.654 197.892L146.215 197.895Z" fill="black"/><path d="M152.376 191.735L150.689 -71.9479L150.127 -71.9512L151.814 191.732L152.376 191.735Z" fill="black"/><path d="M158.536 185.575L156.849 -78.108L156.287 -78.1114L157.974 185.571L158.536 185.575Z" fill="black"/><path d="M167.776 176.334L166.089 -87.3483L165.528 -87.3516L167.214 176.331L167.776 176.334Z" fill="black"/><path d="M173.936 170.174L172.25 -93.5084L171.688 -93.5117L173.375 170.171L173.936 170.174Z" fill="black"/><path d="M180.096 164.014L178.41 -99.6686L177.848 -99.6719L179.535 164.011L180.096 164.014Z" fill="black"/><path d="M186.257 157.854L184.57 -105.829L184.008 -105.832L185.695 157.851L186.257 157.854Z" fill="black"/><path d="M192.417 151.694L190.73 -111.989L190.168 -111.992L191.855 151.69L192.417 151.694Z" fill="black"/><path d="M195.497 148.614L193.81 -115.069L193.248 -115.072L194.935 148.61L195.497 148.614Z" fill="black"/><path d="M198.577 145.534L196.89 -118.149L196.329 -118.152L198.015 145.53L198.577 145.534Z" fill="black"/><path d="M201.657 142.454L199.97 -121.229L199.409 -121.233L201.095 142.45L201.657 142.454Z" fill="black"/><path d="M204.737 139.373L203.05 -124.309L202.489 -124.313L204.175 139.37L204.737 139.373Z" fill="black"/><path d="M207.817 136.293L206.131 -127.389L205.569 -127.393L207.255 136.29L207.817 136.293Z" fill="black"/><path d="M213.977 130.133L212.291 -133.55L211.729 -133.553L213.416 130.13L213.977 130.133Z" fill="black"/><path d="M220.137 123.973L218.451 -139.71L217.889 -139.713L219.576 123.97L220.137 123.973Z" fill="black"/><path d="M226.298 117.813L224.611 -145.87L224.049 -145.873L225.736 117.81L226.298 117.813Z" fill="black"/><path d="M229.378 114.733L227.691 -148.95L227.129 -148.953L228.816 114.73L229.378 114.733Z" fill="black"/><path d="M232.458 111.653L230.771 -152.03L230.209 -152.033L231.896 111.649L232.458 111.653Z" fill="black"/><path d="M235.538 108.573L233.851 -155.11L233.29 -155.113L234.976 108.569L235.538 108.573Z" fill="black"/></g><rect x="21.7695" y="153.688" width="99.3288" height="17.8116" stroke="black"/></svg>