<svg width="200" height="150" viewBox="0 0 200 150" fill="none" xmlns="http://www.w3.org/2000/svg"><path d="M0.5 20.5H199.5V149.5H0.5V20.5Z" fill="white" stroke="black"/><path d="M31 52L1 103H31V52Z" fill="#9EDB3C"/><path d="M0.5 6C0.5 2.96243 2.96243 0.5 6 0.5H194C197.038 0.5 199.5 2.96243 199.5 6V20.5H0.5V6Z" fill="#9EDB3C" stroke="black"/><path d="M9 7H15V13H9V7Z" stroke="black"/><path d="M19 7H25V13H19V7Z" stroke="black"/><path d="M29 7H35V13H29V7Z" stroke="black"/><mask id="mask0" mask-type="alpha" maskUnits="userSpaceOnUse" x="13" y="32" width="174" height="108"><path d="M187 103.5V140H13V103H31V97.5H46L46.5 95.5H60.5C62.1 95.5 64.1667 96.8333 65 97.5L64 99C63.3333 99.5 62.4 101.2 64 104C65.6 106.8 69 106.167 70.5 105.5C70.1667 105.667 69.4 106.2 69 107C68.5 108 68 110 70.5 113C72.5 115.4 76.6667 113.667 78.5 112.5C77.8333 113.333 76.8 115.6 78 118C79.2 120.4 81.8333 120.667 83 120.5L89 118L88 121.5C88.1667 123 89.4 126 93 126C96.6 126 98.1667 123.667 98.5 122.5L105.5 127C106.667 127.667 109.6 128.5 112 126.5C114.4 124.5 113.333 121.333 112.5 120C114.167 121.5 118.3 123.8 121.5 121C124.503 118.372 122.75 115.245 121.283 113.768C121.924 114.35 123.14 115.32 124.5 116C126.5 117 128.5 118 131.5 115C133.9 112.6 132.167 109.667 131 108.5L135 111C136.333 111.833 139.6 112.9 142 110.5C144.4 108.1 143 105.167 142 104L135 98C136.5 97.1667 140.4 95.1 144 93.5C147.6 91.9 153.167 92.1667 155.5 92.5V95H169V103.5H187Z" fill="#C4C4C4"/><path d="M187 53.5H169V60.5H155V64H143.5C137.777 64 132.928 62.2534 129.396 60.9814C128.299 60.5863 127.329 60.237 126.5 60C123 59 118.5 58 109.5 58.5C102.3 58.9 96.8333 60.6667 95 61.5C87.1468 61.4442 79.9 62.3 68.4897 63.6475L68.4874 63.6478C67.5223 63.7618 66.5275 63.8793 65.5 64H46.5V61H31V51.5H13V32H187V53.5Z" fill="#C4C4C4"/><path d="M121.283 113.768C121.187 113.671 121.092 113.582 121 113.5C121.075 113.575 121.17 113.665 121.283 113.768Z" fill="#C4C4C4"/></mask><g mask="url(#mask0)"><path d="M-82.4973 191L251.482 -147.28L250.771 -148L-83.2092 190.28L-82.4973 191Z" fill="black"/><path d="M-357.341 191L-23.3613 -147.28L-24.0731 -148L-358.053 190.28L-357.341 191Z" fill="black"/><path d="M-349.488 191L-15.5086 -147.28L-16.2205 -148L-350.2 190.28L-349.488 191Z" fill="black"/><path d="M-341.636 191L-7.65594 -147.28L-8.3678 -148L-342.347 190.28L-341.636 191Z" fill="black"/><path d="M-333.783 191L0.196716 -147.28L-0.515137 -148L-334.495 190.28L-333.783 191Z" fill="black"/><path d="M-325.93 191L8.04938 -147.28L7.33752 -148L-326.642 190.28L-325.93 191Z" fill="black"/><path d="M-318.078 191L15.9022 -147.28L15.1902 -148L-318.789 190.28L-318.078 191Z" fill="black"/><path d="M-310.225 191L23.7548 -147.28L23.043 -148L-310.937 190.28L-310.225 191Z" fill="black"/><path d="M-302.372 191L31.6075 -147.28L30.8956 -148L-303.084 190.28L-302.372 191Z" fill="black"/><path d="M-294.52 191L39.4601 -147.28L38.7483 -148L-295.231 190.28L-294.52 191Z" fill="black"/><path d="M-278.814 191L55.1655 -147.28L54.4537 -148L-279.526 190.28L-278.814 191Z" fill="black"/><path d="M-270.961 191L63.0182 -147.28L62.3063 -148L-271.673 190.28L-270.961 191Z" fill="black"/><path d="M-263.109 191L70.8708 -147.28L70.159 -148L-263.821 190.28L-263.109 191Z" fill="black"/><path d="M-255.256 191L78.7235 -147.28L78.0117 -148L-255.968 190.28L-255.256 191Z" fill="black"/><path d="M-247.404 191L86.5762 -147.28L85.8643 -148L-248.115 190.28L-247.404 191Z" fill="black"/><path d="M-239.551 191L94.4289 -147.28L93.717 -148L-240.263 190.28L-239.551 191Z" fill="black"/><path d="M-231.698 191L102.282 -147.28L101.57 -148L-232.41 190.28L-231.698 191Z" fill="black"/><path d="M-223.845 191L110.134 -147.28L109.422 -148L-224.557 190.28L-223.845 191Z" fill="black"/><path d="M-215.993 191L117.987 -147.28L117.275 -148L-216.705 190.28L-215.993 191Z" fill="black"/><path d="M-208.14 191L125.84 -147.28L125.128 -148L-208.852 190.28L-208.14 191Z" fill="black"/><path d="M-192.435 191L141.545 -147.28L140.833 -148L-193.147 190.28L-192.435 191Z" fill="black"/><path d="M-184.582 191L149.398 -147.28L148.686 -148L-185.294 190.28L-184.582 191Z" fill="black"/><path d="M-176.729 191L157.25 -147.28L156.538 -148L-177.441 190.28L-176.729 191Z" fill="black"/><path d="M-168.877 191L165.103 -147.28L164.391 -148L-169.589 190.28L-168.877 191Z" fill="black"/><path d="M-153.171 191L180.808 -147.28L180.096 -148L-153.883 190.28L-153.171 191Z" fill="black"/><path d="M-145.319 191L188.661 -147.28L187.949 -148L-146.031 190.28L-145.319 191Z" fill="black"/><path d="M-137.466 191L196.514 -147.28L195.802 -148L-138.178 190.28L-137.466 191Z" fill="black"/><path d="M-129.613 191L204.366 -147.28L203.654 -148L-130.325 190.28L-129.613 191Z" fill="black"/><path d="M-121.761 191L212.219 -147.28L211.507 -148L-122.473 190.28L-121.761 191Z" fill="black"/><path d="M-113.908 191L220.072 -147.28L219.36 -148L-114.62 190.28L-113.908 191Z" fill="black"/><path d="M-106.055 191L227.924 -147.28L227.212 -148L-106.767 190.28L-106.055 191Z" fill="black"/><path d="M-58.9393 191L275.04 -147.28L274.329 -148L-59.6512 190.28L-58.9393 191Z" fill="black"/><path d="M-43.2339 191L290.746 -147.28L290.034 -148L-43.9458 190.28L-43.2339 191Z" fill="black"/><path d="M-27.5286 191L306.451 -147.28L305.739 -148L-28.2405 190.28L-27.5286 191Z" fill="black"/><path d="M-11.8232 191L322.156 -147.28L321.445 -148L-12.5352 190.28L-11.8232 191Z" fill="black"/><path d="M11.7347 191L345.714 -147.28L345.003 -148L11.0229 190.28L11.7347 191Z" fill="black"/><path d="M27.4401 191L361.42 -147.28L360.708 -148L26.7282 190.28L27.4401 191Z" fill="black"/><path d="M43.1454 191L377.125 -147.28L376.413 -148L42.4336 190.28L43.1454 191Z" fill="black"/><path d="M58.8508 191L392.83 -147.28L392.119 -148L58.1389 190.28L58.8508 191Z" fill="black"/><path d="M74.5562 191L408.536 -147.28L407.824 -148L73.8444 190.28L74.5562 191Z" fill="black"/><path d="M82.4088 191L416.389 -147.28L415.677 -148L81.697 190.28L82.4088 191Z" fill="black"/><path d="M98.1142 191L432.094 -147.28L431.382 -148L97.4023 190.28L98.1142 191Z" fill="black"/><path d="M113.82 191L447.799 -147.28L447.087 -148L113.108 190.28L113.82 191Z" fill="black"/><path d="M129.525 191L463.505 -147.28L462.793 -148L128.813 190.28L129.525 191Z" fill="black"/><path d="M145.23 191L479.21 -147.28L478.498 -148L144.518 190.28L145.23 191Z" fill="black"/><path d="M200.199 191L534.179 -147.28L533.467 -148L199.487 190.28L200.199 191Z" fill="black"/><path d="M215.904 191L549.884 -147.28L549.172 -148L215.192 190.28L215.904 191Z" fill="black"/><path d="M231.61 191L565.589 -147.28L564.878 -148L230.898 190.28L231.61 191Z" fill="black"/><path d="M-365.194 191L-31.2139 -147.28L-31.9258 -148L-365.905 190.28L-365.194 191Z" fill="black"/><path d="M-286.667 191L47.3127 -147.28L46.6009 -148L-287.379 190.28L-286.667 191Z" fill="black"/><path d="M-200.287 191L133.692 -147.28L132.98 -148L-200.999 190.28L-200.287 191Z" fill="black"/><path d="M-161.024 191L172.956 -147.28L172.244 -148L-161.736 190.28L-161.024 191Z" fill="black"/><path d="M-98.2026 191L235.777 -147.28L235.065 -148L-98.9145 190.28L-98.2026 191Z" fill="black"/><path d="M-90.35 191L243.63 -147.28L242.918 -148L-91.0618 190.28L-90.35 191Z" fill="black"/><path d="M-74.6447 191L259.335 -147.28L258.623 -148L-75.3565 190.28L-74.6447 191Z" fill="black"/><path d="M-66.792 191L267.188 -147.28L266.476 -148L-67.5038 190.28L-66.792 191Z" fill="black"/><path d="M-51.0866 191L282.893 -147.28L282.181 -148L-51.7985 190.28L-51.0866 191Z" fill="black"/><path d="M-35.3813 191L298.598 -147.28L297.887 -148L-36.0931 190.28L-35.3813 191Z" fill="black"/><path d="M-19.676 191L314.304 -147.28L313.592 -148L-20.3878 190.28L-19.676 191Z" fill="black"/><path d="M-3.97052 191L330.009 -147.28L329.297 -148L-4.68237 190.28L-3.97052 191Z" fill="black"/><path d="M3.88208 191L337.862 -147.28L337.15 -148L3.17023 190.28L3.88208 191Z" fill="black"/><path d="M19.5874 191L353.567 -147.28L352.855 -148L18.8755 190.28L19.5874 191Z" fill="black"/><path d="M35.2928 191L369.272 -147.28L368.561 -148L34.5809 190.28L35.2928 191Z" fill="black"/><path d="M50.9982 191L384.978 -147.28L384.266 -148L50.2863 190.28L50.9982 191Z" fill="black"/><path d="M66.7035 191L400.683 -147.28L399.971 -148L65.9916 190.28L66.7035 191Z" fill="black"/><path d="M90.2615 191L424.241 -147.28L423.529 -148L89.5497 190.28L90.2615 191Z" fill="black"/><path d="M105.967 191L439.947 -147.28L439.235 -148L105.255 190.28L105.967 191Z" fill="black"/><path d="M121.672 191L455.652 -147.28L454.94 -148L120.96 190.28L121.672 191Z" fill="black"/><path d="M137.378 191L471.357 -147.28L470.645 -148L136.666 190.28L137.378 191Z" fill="black"/><path d="M153.083 191L487.063 -147.28L486.351 -148L152.371 190.28L153.083 191Z" fill="black"/><path d="M160.936 191L494.915 -147.28L494.203 -148L160.224 190.28L160.936 191Z" fill="black"/><path d="M168.788 191L502.768 -147.28L502.056 -148L168.076 190.28L168.788 191Z" fill="black"/><path d="M176.641 191L510.621 -147.28L509.909 -148L175.929 190.28L176.641 191Z" fill="black"/><path d="M184.494 191L518.473 -147.28L517.761 -148L183.782 190.28L184.494 191Z" fill="black"/><path d="M192.346 191L526.326 -147.28L525.614 -148L191.634 190.28L192.346 191Z" fill="black"/><path d="M208.052 191L542.031 -147.28L541.319 -148L207.34 190.28L208.052 191Z" fill="black"/><path d="M223.757 191L557.737 -147.28L557.025 -148L223.045 190.28L223.757 191Z" fill="black"/><path d="M239.462 191L573.442 -147.28L572.73 -148L238.75 190.28L239.462 191Z" fill="black"/><path d="M247.315 191L581.295 -147.28L580.583 -148L246.603 190.28L247.315 191Z" fill="black"/><path d="M255.168 191L589.147 -147.28L588.435 -148L254.456 190.28L255.168 191Z" fill="black"/><path d="M263.02 191L597 -147.28L596.288 -148L262.309 190.28L263.02 191Z" fill="black"/><path d="M-718.592 191L-384.612 -147.28L-385.324 -148L-719.304 190.28L-718.592 191Z" fill="black"/><path d="M-993.435 191L-659.456 -147.28L-660.168 -148L-994.147 190.28L-993.435 191Z" fill="black"/><path d="M-985.583 191L-651.603 -147.28L-652.315 -148L-986.295 190.28L-985.583 191Z" fill="black"/><path d="M-977.73 191L-643.75 -147.28L-644.462 -148L-978.442 190.28L-977.73 191Z" fill="black"/><path d="M-969.877 191L-635.898 -147.28L-636.61 -148L-970.589 190.28L-969.877 191Z" fill="black"/><path d="M-962.025 191L-628.045 -147.28L-628.757 -148L-962.737 190.28L-962.025 191Z" fill="black"/><path d="M-954.172 191L-620.193 -147.28L-620.904 -148L-954.884 190.28L-954.172 191Z" fill="black"/><path d="M-946.319 191L-612.34 -147.28L-613.052 -148L-947.031 190.28L-946.319 191Z" fill="black"/><path d="M-938.467 191L-604.487 -147.28L-605.199 -148L-939.179 190.28L-938.467 191Z" fill="black"/><path d="M-930.614 191L-596.634 -147.28L-597.346 -148L-931.326 190.28L-930.614 191Z" fill="black"/><path d="M-914.909 191L-580.929 -147.28L-581.641 -148L-915.621 190.28L-914.909 191Z" fill="black"/><path d="M-907.056 191L-573.076 -147.28L-573.788 -148L-907.768 190.28L-907.056 191Z" fill="black"/><path d="M-899.203 191L-565.224 -147.28L-565.935 -148L-899.915 190.28L-899.203 191Z" fill="black"/><path d="M-891.351 191L-557.371 -147.28L-558.083 -148L-892.063 190.28L-891.351 191Z" fill="black"/><path d="M-883.498 191L-549.518 -147.28L-550.23 -148L-884.21 190.28L-883.498 191Z" fill="black"/><path d="M-875.645 191L-541.666 -147.28L-542.377 -148L-876.357 190.28L-875.645 191Z" fill="black"/><path d="M-867.793 191L-533.813 -147.28L-534.525 -148L-868.504 190.28L-867.793 191Z" fill="black"/><path d="M-859.94 191L-525.96 -147.28L-526.672 -148L-860.652 190.28L-859.94 191Z" fill="black"/><path d="M-852.087 191L-518.108 -147.28L-518.819 -148L-852.799 190.28L-852.087 191Z" fill="black"/><path d="M-844.235 191L-510.255 -147.28L-510.967 -148L-844.947 190.28L-844.235 191Z" fill="black"/><path d="M-828.529 191L-494.55 -147.28L-495.261 -148L-829.241 190.28L-828.529 191Z" fill="black"/><path d="M-820.677 191L-486.697 -147.28L-487.409 -148L-821.388 190.28L-820.677 191Z" fill="black"/><path d="M-812.824 191L-478.844 -147.28L-479.556 -148L-813.536 190.28L-812.824 191Z" fill="black"/><path d="M-804.971 191L-470.992 -147.28L-471.703 -148L-805.683 190.28L-804.971 191Z" fill="black"/><path d="M-789.266 191L-455.286 -147.28L-455.998 -148L-789.978 190.28L-789.266 191Z" fill="black"/><path d="M-781.413 191L-447.434 -147.28L-448.145 -148L-782.125 190.28L-781.413 191Z" fill="black"/><path d="M-773.561 191L-439.581 -147.28L-440.293 -148L-774.272 190.28L-773.561 191Z" fill="black"/><path d="M-765.708 191L-431.728 -147.28L-432.44 -148L-766.42 190.28L-765.708 191Z" fill="black"/><path d="M-757.855 191L-423.876 -147.28L-424.587 -148L-758.567 190.28L-757.855 191Z" fill="black"/><path d="M-750.003 191L-416.023 -147.28L-416.735 -148L-750.714 190.28L-750.003 191Z" fill="black"/><path d="M-742.15 191L-408.17 -147.28L-408.882 -148L-742.862 190.28L-742.15 191Z" fill="black"/><path d="M-695.034 191L-361.054 -147.28L-361.766 -148L-695.746 190.28L-695.034 191Z" fill="black"/><path d="M-679.328 191L-345.349 -147.28L-346.061 -148L-680.04 190.28L-679.328 191Z" fill="black"/><path d="M-663.623 191L-329.643 -147.28L-330.355 -148L-664.335 190.28L-663.623 191Z" fill="black"/><path d="M-647.918 191L-313.938 -147.28L-314.65 -148L-648.63 190.28L-647.918 191Z" fill="black"/><path d="M-624.36 191L-290.38 -147.28L-291.092 -148L-625.072 190.28L-624.36 191Z" fill="black"/><path d="M-608.654 191L-274.675 -147.28L-275.387 -148L-609.366 190.28L-608.654 191Z" fill="black"/><path d="M-592.949 191L-258.969 -147.28L-259.681 -148L-593.661 190.28L-592.949 191Z" fill="black"/><path d="M-577.244 191L-243.264 -147.28L-243.976 -148L-577.956 190.28L-577.244 191Z" fill="black"/><path d="M-561.538 191L-227.559 -147.28L-228.271 -148L-562.25 190.28L-561.538 191Z" fill="black"/><path d="M-553.686 191L-219.706 -147.28L-220.418 -148L-554.398 190.28L-553.686 191Z" fill="black"/><path d="M-537.98 191L-204.001 -147.28L-204.713 -148L-538.692 190.28L-537.98 191Z" fill="black"/><path d="M-522.275 191L-188.295 -147.28L-189.007 -148L-522.987 190.28L-522.275 191Z" fill="black"/><path d="M-506.57 191L-172.59 -147.28L-173.302 -148L-507.281 190.28L-506.57 191Z" fill="black"/><path d="M-490.864 191L-156.885 -147.28L-157.596 -148L-491.576 190.28L-490.864 191Z" fill="black"/><path d="M-435.896 191L-101.916 -147.28L-102.628 -148L-436.607 190.28L-435.896 191Z" fill="black"/><path d="M-420.19 191L-86.2106 -147.28L-86.9224 -148L-420.902 190.28L-420.19 191Z" fill="black"/><path d="M-404.485 191L-70.5051 -147.28L-71.217 -148L-405.197 190.28L-404.485 191Z" fill="black"/><path d="M-1001.29 191L-667.308 -147.28L-668.02 -148L-1002 190.28L-1001.29 191Z" fill="black"/><path d="M-922.761 191L-588.782 -147.28L-589.494 -148L-923.473 190.28L-922.761 191Z" fill="black"/><path d="M-836.382 191L-502.402 -147.28L-503.114 -148L-837.094 190.28L-836.382 191Z" fill="black"/><path d="M-797.119 191L-463.139 -147.28L-463.851 -148L-797.83 190.28L-797.119 191Z" fill="black"/><path d="M-734.297 191L-400.318 -147.28L-401.029 -148L-735.009 190.28L-734.297 191Z" fill="black"/><path d="M-726.444 191L-392.465 -147.28L-393.177 -148L-727.156 190.28L-726.444 191Z" fill="black"/><path d="M-710.739 191L-376.76 -147.28L-377.471 -148L-711.451 190.28L-710.739 191Z" fill="black"/><path d="M-702.886 191L-368.907 -147.28L-369.619 -148L-703.598 190.28L-702.886 191Z" fill="black"/><path d="M-687.181 191L-353.201 -147.28L-353.913 -148L-687.893 190.28L-687.181 191Z" fill="black"/><path d="M-671.476 191L-337.496 -147.28L-338.208 -148L-672.188 190.28L-671.476 191Z" fill="black"/><path d="M-655.771 191L-321.791 -147.28L-322.503 -148L-656.482 190.28L-655.771 191Z" fill="black"/><path d="M-640.065 191L-306.085 -147.28L-306.797 -148L-640.777 190.28L-640.065 191Z" fill="black"/><path d="M-632.212 191L-298.233 -147.28L-298.945 -148L-632.924 190.28L-632.212 191Z" fill="black"/><path d="M-616.507 191L-282.527 -147.28L-283.239 -148L-617.219 190.28L-616.507 191Z" fill="black"/><path d="M-600.802 191L-266.822 -147.28L-267.534 -148L-601.514 190.28L-600.802 191Z" fill="black"/><path d="M-585.096 191L-251.117 -147.28L-251.829 -148L-585.808 190.28L-585.096 191Z" fill="black"/><path d="M-569.391 191L-235.411 -147.28L-236.123 -148L-570.103 190.28L-569.391 191Z" fill="black"/><path d="M-545.833 191L-211.853 -147.28L-212.565 -148L-546.545 190.28L-545.833 191Z" fill="black"/><path d="M-530.128 191L-196.148 -147.28L-196.86 -148L-530.839 190.28L-530.128 191Z" fill="black"/><path d="M-514.422 191L-180.443 -147.28L-181.155 -148L-515.134 190.28L-514.422 191Z" fill="black"/><path d="M-498.717 191L-164.737 -147.28L-165.449 -148L-499.429 190.28L-498.717 191Z" fill="black"/><path d="M-483.012 191L-149.032 -147.28L-149.744 -148L-483.723 190.28L-483.012 191Z" fill="black"/><path d="M-475.159 191L-141.179 -147.28L-141.891 -148L-475.871 190.28L-475.159 191Z" fill="black"/><path d="M-467.306 191L-133.327 -147.28L-134.038 -148L-468.018 190.28L-467.306 191Z" fill="black"/><path d="M-459.454 191L-125.474 -147.28L-126.186 -148L-460.166 190.28L-459.454 191Z" fill="black"/><path d="M-451.601 191L-117.621 -147.28L-118.333 -148L-452.313 190.28L-451.601 191Z" fill="black"/><path d="M-443.748 191L-109.769 -147.28L-110.48 -148L-444.46 190.28L-443.748 191Z" fill="black"/><path d="M-428.043 191L-94.0632 -147.28L-94.7751 -148L-428.755 190.28L-428.043 191Z" fill="black"/><path d="M-412.338 191L-78.3578 -147.28L-79.0697 -148L-413.049 190.28L-412.338 191Z" fill="black"/><path d="M-396.632 191L-62.6525 -147.28L-63.3644 -148L-397.344 190.28L-396.632 191Z" fill="black"/><path d="M-388.779 191L-54.7999 -147.28L-55.5117 -148L-389.491 190.28L-388.779 191Z" fill="black"/><path d="M-380.927 191L-46.9472 -147.28L-47.6591 -148L-381.639 190.28L-380.927 191Z" fill="black"/><path d="M-373.074 191L-39.0945 -147.28L-39.8064 -148L-373.786 190.28L-373.074 191Z" fill="black"/></g><path d="M13 51.5V32H187V53.5M13 103.5V140H187V103.5" stroke="black"/><path d="M46.2065 95.1613L58.2796 95.1613C62.4544 95.1613 66.2221 97.6416 67.84 101.455C68.6655 103.401 70.0756 105.047 71.8787 106.171L91.6402 118.487L106.156 127.291C108.444 128.679 111.435 127.966 112.835 125.699C114.236 123.432 113.517 120.468 111.228 119.08L115.636 121.754C117.924 123.142 120.915 122.429 122.315 120.161C123.716 117.894 122.997 114.931 120.708 113.543L125.16 116.243C127.448 117.631 130.439 116.918 131.84 114.651C133.24 112.383 132.521 109.42 130.232 108.032L135.605 111.291C137.893 112.679 140.884 111.966 142.285 109.698C143.685 107.431 142.966 104.468 140.678 103.08L134.284 97.8735M46.2065 95.1613L46.2065 63.8738M46.2065 95.1613V97.2242H34.8426H31M46.2065 63.8738H65.1698L89.4145 61.5314C93.0705 61.1782 96.7947 61.0914 100.322 62.1146C104.371 63.2892 108.186 65.1901 111.569 67.7381L112.83 68.6872M46.2065 63.8738V61H31M0 51.5H31V103H0" stroke="black"/><path d="M126.067 60.0597C139.708 64.7006 140.806 63.8636 154.493 63.8636V92.3398C139.777 92.3398 144.233 93.9488 134.176 98.2172L108.11 75.9512C105.482 74.3572 101.553 74.9253 99.8236 77.4665L94.1273 85.8347C92.5335 88.1762 89.3939 88.8753 86.9571 87.4313C84.6171 86.0448 83.685 83.1266 84.7878 80.6403L91.5219 65.4577C92.6383 62.9408 94.7742 61.017 97.4547 60.3879C103.852 58.8862 116.356 56.7556 126.067 60.0597Z" fill="white"/><path d="M96.2367 124.78L94.7654 125.522C92.382 126.678 89.5213 125.665 88.3757 123.261C87.2524 120.903 88.1955 118.082 90.4797 116.883L84.2147 120.045C81.8313 121.201 78.9705 120.188 77.825 117.783C76.7017 115.426 77.6447 112.605 79.929 111.406L75.5497 113.616C73.1663 114.772 70.3056 113.759 69.16 111.355C68.0367 108.997 68.9798 106.176 71.2642 104.977L69.8634 105.684C67.48 106.84 64.6192 105.827 63.4737 103.423C62.3281 101.018 63.3316 98.1318 65.715 96.9761L68.5895 95.5256C70.9806 94.3191 73.8879 95.3221 75.046 97.7532C76.1787 100.131 75.2111 102.986 72.8725 104.166L78.4242 101.364C80.8154 100.158 83.7226 101.161 84.8807 103.592C86.0134 105.969 85.0458 108.824 82.7073 110.004L87.0892 107.793C89.4803 106.587 92.3875 107.59 93.5457 110.021C94.6784 112.398 93.7108 115.253 91.3722 116.433L91.9536 116.14C94.3448 114.933 97.252 115.936 98.4101 118.367C99.5428 120.745 98.5752 123.6 96.2367 124.78Z" fill="white"/><path d="M154.493 63.8636C140.806 63.8636 139.708 64.7006 126.067 60.0597C116.356 56.7556 103.852 58.8862 97.4547 60.3879C94.7742 61.017 92.6383 62.9408 91.5219 65.4577L84.7878 80.6403C83.685 83.1266 84.6171 86.0448 86.9571 87.4313V87.4313C89.3939 88.8753 92.5335 88.1762 94.1273 85.8347L99.8236 77.4665C101.553 74.9253 105.482 74.3572 108.11 75.9512V75.9512M154.493 63.8636V92.3398M154.493 63.8636V60.4055H168.226M108.11 75.9512L134.176 98.2172C144.233 93.9488 139.777 92.3398 154.493 92.3398M108.11 75.9512C116.004 80.7379 126.487 79.7935 130.71 74.8228M154.493 92.3398V95.0936H168.226M90.4798 116.883C88.1955 118.082 87.2524 120.903 88.3757 123.261C89.5213 125.665 92.382 126.678 94.7654 125.522L96.2367 124.78C98.5752 123.6 99.5428 120.745 98.4101 118.367C97.252 115.936 94.3448 114.933 91.9536 116.14L91.3722 116.433M90.4798 116.883L84.2147 120.045C81.8313 121.201 78.9705 120.188 77.825 117.783C76.7017 115.426 77.6447 112.605 79.929 111.406M90.4798 116.883L91.3722 116.433M79.929 111.406L75.5497 113.616C73.1663 114.772 70.3056 113.759 69.16 111.355C68.0367 108.997 68.9798 106.176 71.2642 104.977M79.929 111.406L82.7073 110.004M71.2642 104.977L69.8634 105.684C67.48 106.84 64.6192 105.827 63.4737 103.423C62.3281 101.018 63.3316 98.1318 65.715 96.9761L68.5895 95.5256C70.9806 94.3191 73.8879 95.3221 75.046 97.7532C76.1787 100.131 75.2111 102.986 72.8725 104.166M71.2642 104.977L72.8725 104.166M72.8725 104.166L78.4242 101.364C80.8154 100.158 83.7226 101.161 84.8807 103.592C86.0134 105.969 85.0458 108.824 82.7073 110.004M82.7073 110.004L87.0892 107.793C89.4803 106.587 92.3875 107.59 93.5457 110.021C94.6784 112.398 93.7108 115.253 91.3722 116.433M199 53.5H168.226V103.5H199" stroke="black" stroke-linecap="round" stroke-linejoin="round"/><path d="M199 54L169 103H199V54Z" fill="#9EDB3C"/><circle cx="38.5" cy="89.5" r="3" fill="#9EDB3C" stroke="black"/><circle cx="162.5" cy="89.5" r="3" fill="#9EDB3C" stroke="black"/></svg>